<svg xmlns="http://www.w3.org/2000/svg" xmlns:xlink="http://www.w3.org/1999/xlink" viewBox="0 0 164.93 211.99"><defs><style>.cls-1,.cls-10,.cls-104,.cls-105,.cls-107,.cls-11,.cls-78,.cls-79,.cls-80,.cls-81,.cls-9{fill:none;}.cls-2{isolation:isolate;}.cls-3{opacity:0.3;fill:url(#linear-gradient);}.cls-4{fill:url(#linear-gradient-2);}.cls-5{fill:url(#linear-gradient-3);}.cls-6{fill:url(#linear-gradient-4);}.cls-7{fill:url(#linear-gradient-5);}.cls-8{fill:url(#linear-gradient-6);}.cls-10,.cls-104,.cls-105,.cls-107,.cls-11,.cls-78,.cls-79,.cls-80,.cls-81,.cls-9{stroke-linecap:round;}.cls-10,.cls-104,.cls-105,.cls-107,.cls-11,.cls-78,.cls-79,.cls-9{stroke-miterlimit:10;}.cls-9{stroke:url(#linear-gradient-7);}.cls-10{stroke:url(#linear-gradient-8);}.cls-11{stroke:url(#linear-gradient-9);}.cls-12{fill:url(#linear-gradient-10);}.cls-13{fill:url(#linear-gradient-11);}.cls-14{fill:url(#linear-gradient-12);}.cls-15{fill:url(#linear-gradient-13);}.cls-16{fill:url(#linear-gradient-14);}.cls-17{fill:url(#linear-gradient-15);}.cls-18{fill:url(#linear-gradient-16);}.cls-19{fill:url(#linear-gradient-17);}.cls-20{fill:url(#linear-gradient-18);}.cls-21{fill:url(#linear-gradient-19);}.cls-22,.cls-82{opacity:0.1;}.cls-22{mix-blend-mode:darken;}.cls-23{fill:url(#radial-gradient);}.cls-24{clip-path:url(#clip-path);}.cls-25{fill:url(#linear-gradient-20);}.cls-26,.cls-80,.cls-81{opacity:0.8;}.cls-27{fill:url(#linear-gradient-21);}.cls-28{fill:url(#linear-gradient-22);}.cls-29{fill:url(#linear-gradient-23);}.cls-30{fill:url(#linear-gradient-24);}.cls-31{fill:url(#linear-gradient-25);}.cls-32{fill:url(#linear-gradient-26);}.cls-33{fill:url(#linear-gradient-27);}.cls-34{fill:url(#linear-gradient-28);}.cls-35{fill:url(#linear-gradient-29);}.cls-36{fill:url(#linear-gradient-30);}.cls-37{fill:url(#linear-gradient-31);}.cls-38{fill:url(#linear-gradient-32);}.cls-39{fill:url(#linear-gradient-33);}.cls-40{fill:url(#linear-gradient-34);}.cls-41{fill:url(#linear-gradient-35);}.cls-42{fill:url(#linear-gradient-36);}.cls-43{fill:url(#linear-gradient-37);}.cls-44{fill:url(#linear-gradient-38);}.cls-45{fill:#ffce76;}.cls-46{fill:url(#linear-gradient-39);}.cls-47{fill:url(#linear-gradient-40);}.cls-48{fill:url(#radial-gradient-2);}.cls-49{clip-path:url(#clip-path-2);}.cls-50{fill:url(#linear-gradient-41);}.cls-51{fill:url(#linear-gradient-42);}.cls-52{fill:url(#linear-gradient-43);}.cls-53{fill:url(#linear-gradient-44);}.cls-54{fill:url(#linear-gradient-45);}.cls-55{fill:url(#linear-gradient-46);}.cls-56{fill:url(#linear-gradient-47);}.cls-57{fill:url(#linear-gradient-48);}.cls-58{fill:url(#linear-gradient-49);}.cls-59{fill:url(#linear-gradient-50);}.cls-60{fill:url(#linear-gradient-51);}.cls-61{fill:url(#linear-gradient-52);}.cls-62{fill:url(#linear-gradient-53);}.cls-63{fill:url(#linear-gradient-54);}.cls-64{fill:url(#linear-gradient-55);}.cls-65{fill:url(#linear-gradient-56);}.cls-66{fill:url(#linear-gradient-57);}.cls-67{fill:url(#linear-gradient-58);}.cls-68{fill:url(#linear-gradient-59);}.cls-69{fill:url(#linear-gradient-60);}.cls-70{fill:url(#linear-gradient-61);}.cls-71{fill:url(#linear-gradient-62);}.cls-102,.cls-72,.cls-73,.cls-76,.cls-77{opacity:0.4;}.cls-72{fill:url(#linear-gradient-63);}.cls-73{fill:url(#linear-gradient-64);}.cls-74{fill:url(#linear-gradient-65);}.cls-75{fill:url(#linear-gradient-66);}.cls-76{fill:url(#linear-gradient-67);}.cls-77{fill:url(#linear-gradient-68);}.cls-78{stroke:url(#linear-gradient-69);}.cls-79{stroke:url(#linear-gradient-70);}.cls-80,.cls-81{stroke-linejoin:round;stroke-width:0.5px;}.cls-80{stroke:url(#linear-gradient-71);}.cls-81{stroke:url(#linear-gradient-72);}.cls-82{mix-blend-mode:multiply;}.cls-83{fill:#050505;}.cls-84{fill:url(#linear-gradient-73);}.cls-85{fill:url(#linear-gradient-74);}.cls-86{fill:url(#linear-gradient-75);}.cls-87{fill:url(#linear-gradient-76);}.cls-88{fill:url(#linear-gradient-77);}.cls-89{fill:url(#linear-gradient-78);}.cls-90{fill:url(#linear-gradient-79);}.cls-91{fill:url(#linear-gradient-81);}.cls-92{fill:url(#linear-gradient-82);}.cls-93{fill:url(#linear-gradient-83);}.cls-94{fill:url(#linear-gradient-84);}.cls-95{fill:url(#linear-gradient-85);}.cls-96{fill:url(#linear-gradient-86);}.cls-97{fill:url(#linear-gradient-87);}.cls-98{fill:url(#linear-gradient-88);}.cls-99{fill:url(#linear-gradient-89);}.cls-100{fill:url(#linear-gradient-90);}.cls-101{fill:url(#linear-gradient-91);}.cls-102{fill:url(#linear-gradient-92);}.cls-103{fill:url(#linear-gradient-93);}.cls-104{stroke:url(#linear-gradient-94);}.cls-105,.cls-107{stroke-width:1.5px;}.cls-105{stroke:url(#linear-gradient-95);}.cls-106{fill:url(#linear-gradient-96);}.cls-107{stroke:url(#linear-gradient-97);}</style><linearGradient id="linear-gradient" x1="5202.84" y1="1286.37" x2="5367.43" y2="1286.37" gradientUnits="userSpaceOnUse"><stop offset="0" stop-color="#c27201"/><stop offset="1" stop-color="#f2aa43"/></linearGradient><linearGradient id="linear-gradient-2" x1="5202.72" y1="1255.51" x2="5367.65" y2="1255.51" gradientUnits="userSpaceOnUse"><stop offset="0" stop-color="#222427"/><stop offset="1" stop-color="#392b1a"/></linearGradient><linearGradient id="linear-gradient-3" x1="5202.84" y1="1251.13" x2="5367.43" y2="1251.13" gradientUnits="userSpaceOnUse"><stop offset="0" stop-color="#505255"/><stop offset="1" stop-color="#70665a"/></linearGradient><linearGradient id="linear-gradient-4" x1="5225.93" y1="1170.96" x2="5262.8" y2="1170.96" xlink:href="#linear-gradient"/><linearGradient id="linear-gradient-5" x1="5229.92" y1="1172.24" x2="5264.22" y2="1172.24" gradientUnits="userSpaceOnUse"><stop offset="0" stop-color="#f2aa43"/><stop offset="1" stop-color="#fdd17a"/></linearGradient><linearGradient id="linear-gradient-6" x1="5247.3" y1="1217.29" x2="5247.3" y2="1126.83" gradientUnits="userSpaceOnUse"><stop offset="0" stop-color="#ed9a24"/><stop offset="1" stop-color="#f2aa43"/></linearGradient><linearGradient id="linear-gradient-7" x1="68.51" y1="119.93" x2="146.05" y2="119.93" xlink:href="#linear-gradient"/><linearGradient id="linear-gradient-8" x1="106.54" y1="111.1" x2="118.75" y2="111.1" xlink:href="#linear-gradient"/><linearGradient id="linear-gradient-9" x1="15.38" y1="118.82" x2="47.29" y2="118.82" xlink:href="#linear-gradient"/><linearGradient id="linear-gradient-10" x1="103.23" y1="114.39" x2="110.83" y2="114.39" gradientUnits="userSpaceOnUse"><stop offset="0" stop-color="#2d2f33"/><stop offset="1" stop-color="#4f4334"/></linearGradient><linearGradient id="linear-gradient-11" x1="95.62" y1="114.39" x2="103.23" y2="114.39" xlink:href="#linear-gradient-10"/><linearGradient id="linear-gradient-12" x1="95.62" y1="107.8" x2="110.83" y2="107.8" xlink:href="#linear-gradient-10"/><linearGradient id="linear-gradient-13" x1="5259.79" y1="1213.66" x2="5303.29" y2="1213.66" xlink:href="#linear-gradient-10"/><linearGradient id="linear-gradient-14" x1="5308.47" y1="1176.84" x2="5258.14" y2="1264.02" xlink:href="#linear-gradient-10"/><linearGradient id="linear-gradient-15" x1="57.61" y1="140.73" x2="65.21" y2="140.73" xlink:href="#linear-gradient-10"/><linearGradient id="linear-gradient-16" x1="50" y1="140.73" x2="57.61" y2="140.73" xlink:href="#linear-gradient-10"/><linearGradient id="linear-gradient-17" x1="50" y1="134.14" x2="65.21" y2="134.14" xlink:href="#linear-gradient-10"/><linearGradient id="linear-gradient-18" x1="5290.76" y1="1209.29" x2="5324.23" y2="1209.29" gradientUnits="userSpaceOnUse"><stop offset="0" stop-color="#d49c4d"/><stop offset="1" stop-color="#f9d9aa"/></linearGradient><linearGradient id="linear-gradient-19" x1="5290.84" y1="1207.29" x2="5324.22" y2="1207.29" gradientUnits="userSpaceOnUse"><stop offset="0" stop-color="#faddb4"/><stop offset="1" stop-color="#fff6e6"/></linearGradient><radialGradient id="radial-gradient" cx="5307.53" cy="1207.29" r="7.93" gradientTransform="translate(0 482.92) scale(1 0.6)" gradientUnits="userSpaceOnUse"><stop offset="0" stop-color="#1d1d1b"/><stop offset="1" stop-color="#1d1d1b" stop-opacity="0"/></radialGradient><clipPath id="clip-path" transform="translate(-5202.72 -1122.6)"><path class="cls-1" d="M5307.22,1188.46c2.8-1.42,5.5-1,7.38.7,3.47,3.2-2.57,15.64-6.72,18-2.17,1.26-4.17.45-5.75-.68a6.12,6.12,0,0,1-2.39-5.1A16.5,16.5,0,0,1,5307.22,1188.46Z"/></clipPath><linearGradient id="linear-gradient-20" x1="5299.74" y1="1197.71" x2="5315.63" y2="1197.71" gradientUnits="userSpaceOnUse"><stop offset="0" stop-color="#c27201"/><stop offset="1" stop-color="#c27201"/></linearGradient><linearGradient id="linear-gradient-21" x1="5293.53" y1="1205.58" x2="5305.6" y2="1205.58" xlink:href="#linear-gradient"/><linearGradient id="linear-gradient-22" x1="5294.21" y1="1204.36" x2="5306.2" y2="1204.36" xlink:href="#linear-gradient"/><linearGradient id="linear-gradient-23" x1="5294.88" y1="1203.14" x2="5306.8" y2="1203.14" xlink:href="#linear-gradient"/><linearGradient id="linear-gradient-24" x1="5295.56" y1="1201.92" x2="5307.4" y2="1201.92" xlink:href="#linear-gradient"/><linearGradient id="linear-gradient-25" x1="5296.23" y1="1200.7" x2="5307.99" y2="1200.7" xlink:href="#linear-gradient"/><linearGradient id="linear-gradient-26" x1="5296.91" y1="1199.49" x2="5308.59" y2="1199.49" xlink:href="#linear-gradient"/><linearGradient id="linear-gradient-27" x1="5297.58" y1="1198.27" x2="5309.19" y2="1198.27" xlink:href="#linear-gradient"/><linearGradient id="linear-gradient-28" x1="5298.26" y1="1197.05" x2="5309.78" y2="1197.05" xlink:href="#linear-gradient"/><linearGradient id="linear-gradient-29" x1="5298.93" y1="1195.83" x2="5310.38" y2="1195.83" xlink:href="#linear-gradient"/><linearGradient id="linear-gradient-30" x1="5299.61" y1="1194.61" x2="5310.98" y2="1194.61" xlink:href="#linear-gradient"/><linearGradient id="linear-gradient-31" x1="5300.28" y1="1193.39" x2="5311.58" y2="1193.39" xlink:href="#linear-gradient"/><linearGradient id="linear-gradient-32" x1="5300.96" y1="1192.17" x2="5312.17" y2="1192.17" xlink:href="#linear-gradient"/><linearGradient id="linear-gradient-33" x1="5301.63" y1="1190.96" x2="5312.77" y2="1190.96" xlink:href="#linear-gradient"/><linearGradient id="linear-gradient-34" x1="5302.31" y1="1189.74" x2="5313.37" y2="1189.74" xlink:href="#linear-gradient"/><linearGradient id="linear-gradient-35" x1="5302.98" y1="1188.52" x2="5313.96" y2="1188.52" xlink:href="#linear-gradient"/><linearGradient id="linear-gradient-36" x1="5303.66" y1="1187.3" x2="5314.56" y2="1187.3" xlink:href="#linear-gradient"/><linearGradient id="linear-gradient-37" x1="5304.33" y1="1186.08" x2="5315.16" y2="1186.08" xlink:href="#linear-gradient"/><linearGradient id="linear-gradient-38" x1="5301.56" y1="1198.19" x2="5316.57" y2="1198.19" gradientTransform="translate(3677.46 -3994.09) rotate(59.84)" gradientUnits="userSpaceOnUse"><stop offset="0" stop-color="#eb741c"/><stop offset="1" stop-color="#f2aa43"/></linearGradient><linearGradient id="linear-gradient-39" x1="5243.16" y1="1236.18" x2="5276.64" y2="1236.18" xlink:href="#linear-gradient-18"/><linearGradient id="linear-gradient-40" x1="5243.24" y1="1234.18" x2="5276.63" y2="1234.18" xlink:href="#linear-gradient-19"/><radialGradient id="radial-gradient-2" cx="5259.93" cy="1234.18" r="7.93" gradientTransform="translate(0 493.67) scale(1 0.6)" xlink:href="#radial-gradient"/><clipPath id="clip-path-2" transform="translate(-5202.72 -1122.6)"><path class="cls-1" d="M5259.62,1215.34a6.29,6.29,0,0,1,7.38.7c3.47,3.2-2.57,15.64-6.71,18-2.18,1.26-4.17.45-5.76-.68a6.1,6.1,0,0,1-2.39-5.09A16.5,16.5,0,0,1,5259.62,1215.34Z"/></clipPath><linearGradient id="linear-gradient-41" x1="5252.14" y1="1224.59" x2="5268.03" y2="1224.59" xlink:href="#linear-gradient-20"/><linearGradient id="linear-gradient-42" x1="5245.93" y1="1232.46" x2="5258.01" y2="1232.46" xlink:href="#linear-gradient"/><linearGradient id="linear-gradient-43" x1="5246.61" y1="1231.24" x2="5258.6" y2="1231.24" xlink:href="#linear-gradient"/><linearGradient id="linear-gradient-44" x1="5247.28" y1="1230.02" x2="5259.2" y2="1230.02" xlink:href="#linear-gradient"/><linearGradient id="linear-gradient-45" x1="5247.96" y1="1228.81" x2="5259.8" y2="1228.81" xlink:href="#linear-gradient"/><linearGradient id="linear-gradient-46" x1="5248.63" y1="1227.59" x2="5260.4" y2="1227.59" xlink:href="#linear-gradient"/><linearGradient id="linear-gradient-47" x1="5249.31" y1="1226.37" x2="5260.99" y2="1226.37" xlink:href="#linear-gradient"/><linearGradient id="linear-gradient-48" x1="5249.98" y1="1225.15" x2="5261.59" y2="1225.15" xlink:href="#linear-gradient"/><linearGradient id="linear-gradient-49" x1="5250.66" y1="1223.93" x2="5262.19" y2="1223.93" xlink:href="#linear-gradient"/><linearGradient id="linear-gradient-50" x1="5251.33" y1="1222.71" x2="5262.78" y2="1222.71" xlink:href="#linear-gradient"/><linearGradient id="linear-gradient-51" x1="5252.01" y1="1221.49" x2="5263.38" y2="1221.49" xlink:href="#linear-gradient"/><linearGradient id="linear-gradient-52" x1="5252.68" y1="1220.28" x2="5263.98" y2="1220.28" xlink:href="#linear-gradient"/><linearGradient id="linear-gradient-53" x1="5253.36" y1="1219.06" x2="5264.58" y2="1219.06" xlink:href="#linear-gradient"/><linearGradient id="linear-gradient-54" x1="5254.03" y1="1217.84" x2="5265.17" y2="1217.84" xlink:href="#linear-gradient"/><linearGradient id="linear-gradient-55" x1="5254.71" y1="1216.62" x2="5265.77" y2="1216.62" xlink:href="#linear-gradient"/><linearGradient id="linear-gradient-56" x1="5255.38" y1="1215.4" x2="5266.37" y2="1215.4" xlink:href="#linear-gradient"/><linearGradient id="linear-gradient-57" x1="5256.06" y1="1214.18" x2="5266.96" y2="1214.18" xlink:href="#linear-gradient"/><linearGradient id="linear-gradient-58" x1="5256.73" y1="1212.96" x2="5267.56" y2="1212.96" xlink:href="#linear-gradient"/><linearGradient id="linear-gradient-59" x1="5253.96" y1="1225.07" x2="5268.97" y2="1225.07" gradientTransform="translate(3677.03 -3939.56) rotate(59.84)" xlink:href="#linear-gradient-38"/><linearGradient id="linear-gradient-60" x1="5250.66" y1="1133.14" x2="5251.71" y2="1133.14" gradientTransform="translate(3592.43 -3976.41) rotate(59.84)" xlink:href="#linear-gradient-38"/><linearGradient id="linear-gradient-61" x1="5257.05" y1="1255.99" x2="5263.61" y2="1255.99" gradientTransform="matrix(1, 0, 0, 1, 0, 0)" xlink:href="#linear-gradient-38"/><linearGradient id="linear-gradient-62" x1="5257.13" y1="1257.14" x2="5263.53" y2="1257.14" xlink:href="#linear-gradient-20"/><linearGradient id="linear-gradient-63" x1="5260.86" y1="1258.64" x2="5260.86" y2="1241.95" gradientUnits="userSpaceOnUse"><stop offset="0" stop-color="#f2aa43"/><stop offset="0.19" stop-color="#f2aa43" stop-opacity="0.99"/><stop offset="0.33" stop-color="#f2ab44" stop-opacity="0.95"/><stop offset="0.44" stop-color="#f3ac44" stop-opacity="0.88"/><stop offset="0.55" stop-color="#f3ad45" stop-opacity="0.79"/><stop offset="0.66" stop-color="#f4af47" stop-opacity="0.67"/><stop offset="0.75" stop-color="#f5b149" stop-opacity="0.53"/><stop offset="0.85" stop-color="#f7b34b" stop-opacity="0.35"/><stop offset="0.94" stop-color="#f8b64d" stop-opacity="0.16"/><stop offset="1" stop-color="#f9b84f" stop-opacity="0"/></linearGradient><linearGradient id="linear-gradient-64" x1="5260.86" y1="1258.64" x2="5260.86" y2="1241.95" gradientUnits="userSpaceOnUse"><stop offset="0" stop-color="#e8610f"/><stop offset="0.18" stop-color="#ee8026" stop-opacity="0.64"/><stop offset="0.52" stop-color="#f9b84f" stop-opacity="0"/></linearGradient><linearGradient id="linear-gradient-65" x1="5302.72" y1="1229.51" x2="5309.27" y2="1229.51" gradientTransform="matrix(1, 0, 0, 1, 0, 0)" xlink:href="#linear-gradient-38"/><linearGradient id="linear-gradient-66" x1="5302.8" y1="1230.66" x2="5309.2" y2="1230.66" xlink:href="#linear-gradient-20"/><linearGradient id="linear-gradient-67" x1="5306.53" y1="1232.16" x2="5306.53" y2="1215.47" gradientUnits="userSpaceOnUse"><stop offset="0" stop-color="#f2aa43"/><stop offset="0.1" stop-color="#f2aa43" stop-opacity="0.98"/><stop offset="0.23" stop-color="#f3ab44" stop-opacity="0.92"/><stop offset="0.37" stop-color="#f3ad45" stop-opacity="0.81"/><stop offset="0.52" stop-color="#f4af47" stop-opacity="0.67"/><stop offset="0.68" stop-color="#f6b149" stop-opacity="0.48"/><stop offset="0.84" stop-color="#f7b44c" stop-opacity="0.26"/><stop offset="1" stop-color="#f9b84f" stop-opacity="0"/></linearGradient><linearGradient id="linear-gradient-68" x1="5306.53" y1="1232.16" x2="5306.53" y2="1215.47" xlink:href="#linear-gradient-64"/><linearGradient id="linear-gradient-69" x1="61" y1="158.46" x2="99.93" y2="158.46" xlink:href="#linear-gradient"/><linearGradient id="linear-gradient-70" x1="60.99" y1="163.78" x2="80.96" y2="163.78" xlink:href="#linear-gradient"/><linearGradient id="linear-gradient-71" x1="44.82" y1="96.19" x2="71.3" y2="96.19" xlink:href="#linear-gradient"/><linearGradient id="linear-gradient-72" x1="90.56" y1="68.29" x2="117.04" y2="68.29" xlink:href="#linear-gradient"/><linearGradient id="linear-gradient-73" x1="38.42" y1="53.8" x2="42.27" y2="53.8" gradientUnits="userSpaceOnUse"><stop offset="0" stop-color="#f5bb69"/><stop offset="1" stop-color="#fdd17a"/></linearGradient><linearGradient id="linear-gradient-74" x1="36.57" y1="54.35" x2="38.44" y2="54.35" gradientUnits="userSpaceOnUse"><stop offset="0" stop-color="#d99c45"/><stop offset="1" stop-color="#e4ae5f"/></linearGradient><linearGradient id="linear-gradient-75" x1="36.57" y1="48.08" x2="42.24" y2="48.08" gradientUnits="userSpaceOnUse"><stop offset="0" stop-color="#f5c074"/><stop offset="1" stop-color="#fdd789"/></linearGradient><linearGradient id="linear-gradient-76" x1="46.02" y1="45.82" x2="49.87" y2="45.82" xlink:href="#linear-gradient-73"/><linearGradient id="linear-gradient-77" x1="44.17" y1="46.37" x2="46.05" y2="46.37" xlink:href="#linear-gradient-74"/><linearGradient id="linear-gradient-78" x1="44.17" y1="36.5" x2="49.84" y2="36.5" xlink:href="#linear-gradient-75"/><linearGradient id="linear-gradient-79" x1="53.62" y1="39.19" x2="57.47" y2="39.19" xlink:href="#linear-gradient-73"/><linearGradient id="linear-gradient-81" x1="51.77" y1="39.74" x2="53.65" y2="39.74" xlink:href="#linear-gradient-74"/><linearGradient id="linear-gradient-82" x1="51.77" y1="27.63" x2="57.44" y2="27.63" xlink:href="#linear-gradient-75"/><linearGradient id="linear-gradient-83" x1="11.99" y1="80.41" x2="38.73" y2="80.41" xlink:href="#linear-gradient-73"/><linearGradient id="linear-gradient-84" x1="5219.49" y1="1202.82" x2="5233.72" y2="1202.82" gradientTransform="matrix(1, 0, 0, 1, 0, 0)" xlink:href="#linear-gradient-38"/><linearGradient id="linear-gradient-85" x1="5218.46" y1="1202.92" x2="5237.52" y2="1202.92" xlink:href="#linear-gradient-6"/><linearGradient id="linear-gradient-86" x1="15.79" y1="91.79" x2="18.78" y2="91.79" gradientUnits="userSpaceOnUse"><stop offset="0" stop-color="#c27201"/><stop offset="1" stop-color="#c77808"/></linearGradient><linearGradient id="linear-gradient-87" x1="20.4" y1="89.2" x2="23.39" y2="89.2" xlink:href="#linear-gradient-86"/><linearGradient id="linear-gradient-88" x1="24.63" y1="83.78" x2="34.8" y2="83.78" xlink:href="#linear-gradient-6"/><linearGradient id="linear-gradient-89" x1="24.63" y1="85.85" x2="34.8" y2="85.85" gradientTransform="matrix(1, 0, 0, 1, 0, 0)" xlink:href="#linear-gradient-38"/><linearGradient id="linear-gradient-90" x1="10.83" y1="69.07" x2="38.73" y2="69.07" xlink:href="#linear-gradient-75"/><linearGradient id="linear-gradient-91" x1="10.83" y1="87.75" x2="12.13" y2="87.75" xlink:href="#linear-gradient-74"/><linearGradient id="linear-gradient-92" x1="118.11" y1="56.22" x2="152.65" y2="56.22" xlink:href="#linear-gradient"/><linearGradient id="linear-gradient-93" x1="114.63" y1="58.51" x2="149.18" y2="58.51" xlink:href="#linear-gradient"/><linearGradient id="linear-gradient-94" x1="116.87" y1="59.56" x2="144.63" y2="59.56" gradientUnits="userSpaceOnUse"><stop offset="0" stop-color="#f2aa43"/><stop offset="1" stop-color="#fcc659"/></linearGradient><linearGradient id="linear-gradient-95" x1="79.67" y1="42.26" x2="103.91" y2="42.26" xlink:href="#linear-gradient"/><linearGradient id="linear-gradient-96" x1="77.5" y1="39.63" x2="83.84" y2="39.63" xlink:href="#linear-gradient-10"/><linearGradient id="linear-gradient-97" x1="56.86" y1="56.77" x2="80.26" y2="56.77" xlink:href="#linear-gradient"/></defs><title>basic-learn-icon-03</title><g class="cls-2"><g id="Layer_1" data-name="Layer 1"><path class="cls-3" d="M5204.46,1284.83l78.78-45.48a6.67,6.67,0,0,1,7.6,0l75,43.28a3.25,3.25,0,0,1,0,5.62l-78.21,45.16c-3.22,1.42-5,1.62-8.33.23l-74.81-43.19A3.25,3.25,0,0,1,5204.46,1284.83Z" transform="translate(-5202.72 -1122.6)"/><path class="cls-4" d="M5203.1,1251.13l82.32-43.65a3.23,3.23,0,0,1,3.24,0l78.21,40.9c1.23,1.34,1.1,8-1.06,9.26l-78.21,45.16c-3.22,1.42-5,1.62-8.33.23l-74.81-43.19C5202.3,1258.59,5202.56,1251.54,5203.1,1251.13Z" transform="translate(-5202.72 -1122.6)"/><path class="cls-5" d="M5204.46,1249.58l78.78-45.48a6.69,6.69,0,0,1,7.6,0l75,43.29a3.25,3.25,0,0,1,0,5.62l-78.21,45.16c-3.22,1.42-5,1.61-8.33.22l-74.81-43.19A3.25,3.25,0,0,1,5204.46,1249.58Z" transform="translate(-5202.72 -1122.6)"/><path class="cls-6" d="M5262.8,1125.14l-3.9-2.15-.13-.07-.16-.08v0a2.68,2.68,0,0,0-2.5.1l-26.39,15.23a6.91,6.91,0,0,0-3.79,6.59l.12,70a2.71,2.71,0,0,0,1.61,2.47v0l3.79,2.1,3.19-4.82,21.73-12.66a6.74,6.74,0,0,0,3.78-6.59l.07-68.35,1.08-.78Z" transform="translate(-5202.72 -1122.6)"/><path class="cls-7" d="M5233.72,1140.4l26.39-15.24a2.74,2.74,0,0,1,4.11,2.38l-.08,69.93a6.75,6.75,0,0,1-3.78,6.59l-26.19,15.25a2.74,2.74,0,0,1-4.12-2.36l-.13-70A6.92,6.92,0,0,1,5233.72,1140.4Z" transform="translate(-5202.72 -1122.6)"/><path class="cls-8" d="M5260.31,1127l-6.12,3.56-.41.24a3.86,3.86,0,0,1-1.73,3.84l-9.54,5.57c-3,1.59-3.33-.18-3.59-.8-2.35,1.36-4.14,2.37-4.75,2.7-2.68,1.42-2.35,5.67-2.35,5.67s0,63.34,0,66.75c0,2.73,1.9,3.24,3.29,2.5,0,0,24.05-13.8,25.68-14.75a4,4,0,0,0,1.82-2.79s.15-67.32.19-70.25C5262.84,1126,5260.31,1127,5260.31,1127Z" transform="translate(-5202.72 -1122.6)"/><polyline class="cls-9" points="72.81 151.67 110.83 129.75 122.24 136.34 145.05 123.17 103.08 99.11 95.63 103.41 69.01 88.2"/><line class="cls-10" x1="118.25" y1="107.8" x2="107.04" y2="114.4"/><polyline class="cls-11" points="15.88 118.83 31 127.56 46.29 118.83 31.17 110"/><polygon class="cls-12" points="103.23 112.19 110.83 107.8 110.83 116.58 103.23 120.97 103.23 112.19"/><polygon class="cls-13" points="95.63 107.8 95.63 116.58 103.23 120.97 103.23 112.19 95.63 107.8"/><polygon class="cls-14" points="103.23 103.41 95.63 107.8 103.23 112.19 110.83 107.8 103.23 103.41"/><path class="cls-15" d="M5301.6,1238.63l-17.81,10.28-.39-84.4-1.75-1.06.2,79.31h0s-.66,6.65-4.59,9.93l-17.44,10.08,1.9,1.09,41.6-24.27Z" transform="translate(-5202.72 -1122.6)"/><path class="cls-16" d="M5293.15,1245.52c-7.1,3.82-7.5-1.74-7.5-2.64l-.38-79.43-2.07,1.06.56,79.06c-.23,1.6-1.37,8.22-5.62,10.71l-16.45,9.59v2.2l41.6-24.15v-2.32Z" transform="translate(-5202.72 -1122.6)"/><polygon class="cls-17" points="57.61 138.53 65.21 134.14 65.21 142.92 57.61 147.31 57.61 138.53"/><polygon class="cls-18" points="50.01 134.14 50.01 142.92 57.61 147.31 57.61 138.53 50.01 134.14"/><polygon class="cls-19" points="57.61 129.75 50.01 134.14 57.61 138.53 65.21 134.14 57.61 129.75"/><path class="cls-20" d="M5319.66,1201.17c2.73,1.57,4.4,1.92,4.54,4.3.21,3.6-.64,6.25-2.68,8.36-5,5.22-15.35,7.42-23.08,4.92a16.48,16.48,0,0,1-3-1.33,9,9,0,0,1-4.55-9c.19-1.2,1.66-2.54,2.7-3.63,5-5.22,15.36-7.43,23.09-4.92A16.27,16.27,0,0,1,5319.66,1201.17Z" transform="translate(-5202.72 -1122.6)"/><path class="cls-21" d="M5319.66,1199.17c5.18,3,6.15,8.2,1.86,12.66-5,5.22-15.35,7.42-23.08,4.92a16.48,16.48,0,0,1-3-1.33c-5.17-3-6.14-8.21-1.85-12.66,5-5.22,15.36-7.43,23.09-4.92A16.27,16.27,0,0,1,5319.66,1199.17Z" transform="translate(-5202.72 -1122.6)"/><g class="cls-22"><path class="cls-23" d="M5314.43,1202.67c2.95,1.7,3.5,4.67,1.06,7.2-2.85,3-8.74,4.23-13.13,2.8a8.92,8.92,0,0,1-1.73-.75c-2.95-1.71-3.5-4.67-1.06-7.21,2.86-3,8.74-4.22,13.14-2.79A8.49,8.49,0,0,1,5314.43,1202.67Z" transform="translate(-5202.72 -1122.6)"/></g><g class="cls-24"><path class="cls-25" d="M5307.22,1188.46c2.8-1.42,5.5-1,7.38.7,3.47,3.2-2.57,15.64-6.72,18-2.17,1.26-4.17.45-5.75-.68a6.12,6.12,0,0,1-2.39-5.1A16.5,16.5,0,0,1,5307.22,1188.46Z" transform="translate(-5202.72 -1122.6)"/><g class="cls-26"><path class="cls-27" d="M5305.34,1209a.28.28,0,0,1-.13,0l-11.54-6.29a.27.27,0,0,1-.11-.36.28.28,0,0,1,.37-.11l11.53,6.29a.27.27,0,0,1-.12.5Z" transform="translate(-5202.72 -1122.6)"/><path class="cls-28" d="M5305.94,1207.75a.28.28,0,0,1-.13,0l-11.46-6.25a.27.27,0,0,1,.25-.47l11.46,6.25a.27.27,0,0,1-.12.5Z" transform="translate(-5202.72 -1122.6)"/><path class="cls-29" d="M5306.53,1206.51l-.12,0-11.39-6.21a.27.27,0,0,1-.11-.36.28.28,0,0,1,.37-.1l11.38,6.2a.27.27,0,0,1,.11.36A.27.27,0,0,1,5306.53,1206.51Z" transform="translate(-5202.72 -1122.6)"/><path class="cls-30" d="M5307.13,1205.27a.31.31,0,0,1-.13,0l-11.3-6.16a.27.27,0,1,1,.25-.47l11.31,6.16a.26.26,0,0,1,.1.36A.27.27,0,0,1,5307.13,1205.27Z" transform="translate(-5202.72 -1122.6)"/><path class="cls-31" d="M5307.73,1204a.28.28,0,0,1-.13,0l-11.23-6.12a.27.27,0,0,1-.11-.36.28.28,0,0,1,.37-.11l11.22,6.12a.27.27,0,0,1-.12.5Z" transform="translate(-5202.72 -1122.6)"/><path class="cls-32" d="M5308.32,1202.79l-.12,0-11.15-6.08a.27.27,0,0,1,.25-.47l11.15,6.08a.27.27,0,0,1,.11.36A.27.27,0,0,1,5308.32,1202.79Z" transform="translate(-5202.72 -1122.6)"/><path class="cls-33" d="M5308.92,1201.55a.31.31,0,0,1-.13,0l-11.07-6a.27.27,0,0,1-.11-.36.28.28,0,0,1,.37-.1l11.07,6a.25.25,0,0,1,.1.36A.24.24,0,0,1,5308.92,1201.55Z" transform="translate(-5202.72 -1122.6)"/><path class="cls-34" d="M5309.52,1200.31a.31.31,0,0,1-.13,0l-11-6a.27.27,0,1,1,.25-.47l11,6a.27.27,0,0,1,.1.36A.27.27,0,0,1,5309.52,1200.31Z" transform="translate(-5202.72 -1122.6)"/><path class="cls-35" d="M5310.12,1199.07a.28.28,0,0,1-.13,0l-10.92-6a.27.27,0,0,1-.11-.36.28.28,0,0,1,.37-.11l10.91,6a.27.27,0,0,1-.12.5Z" transform="translate(-5202.72 -1122.6)"/><path class="cls-36" d="M5310.71,1197.83l-.12,0-10.84-5.91a.27.27,0,0,1-.11-.36.25.25,0,0,1,.36-.1l10.84,5.9a.27.27,0,0,1,.11.36A.27.27,0,0,1,5310.71,1197.83Z" transform="translate(-5202.72 -1122.6)"/><path class="cls-37" d="M5311.31,1196.59a.31.31,0,0,1-.13,0l-10.76-5.87a.27.27,0,0,1-.11-.36.28.28,0,0,1,.37-.1l10.76,5.86a.26.26,0,0,1,.1.36A.25.25,0,0,1,5311.31,1196.59Z" transform="translate(-5202.72 -1122.6)"/><path class="cls-38" d="M5311.91,1195.35a.28.28,0,0,1-.13,0l-10.68-5.82a.27.27,0,0,1,.25-.47l10.68,5.82a.27.27,0,0,1-.12.5Z" transform="translate(-5202.72 -1122.6)"/><path class="cls-39" d="M5312.5,1194.11l-.12,0-10.61-5.78a.27.27,0,0,1-.11-.36.28.28,0,0,1,.37-.11l10.6,5.78a.27.27,0,0,1,.11.36A.27.27,0,0,1,5312.5,1194.11Z" transform="translate(-5202.72 -1122.6)"/><path class="cls-40" d="M5313.1,1192.87a.31.31,0,0,1-.13,0l-10.52-5.74a.27.27,0,0,1-.11-.36.26.26,0,0,1,.36-.1l10.53,5.73a.27.27,0,0,1,.11.36A.27.27,0,0,1,5313.1,1192.87Z" transform="translate(-5202.72 -1122.6)"/><path class="cls-41" d="M5313.7,1191.63a.31.31,0,0,1-.13,0l-10.45-5.7a.27.27,0,0,1-.11-.36.28.28,0,0,1,.37-.1l10.45,5.69a.27.27,0,0,1-.13.5Z" transform="translate(-5202.72 -1122.6)"/><path class="cls-42" d="M5314.3,1190.39a.28.28,0,0,1-.13,0l-10.37-5.65a.27.27,0,0,1,.25-.47l10.37,5.65a.27.27,0,0,1-.12.5Z" transform="translate(-5202.72 -1122.6)"/><path class="cls-43" d="M5314.89,1189.15a.27.27,0,0,1-.12,0l-10.3-5.61a.27.27,0,0,1-.11-.36.28.28,0,0,1,.37-.11l10.29,5.61a.27.27,0,0,1-.13.5Z" transform="translate(-5202.72 -1122.6)"/></g></g><ellipse class="cls-44" cx="5309.06" cy="1198.19" rx="10.58" ry="6.13" transform="translate(-3597.17 4063.8) rotate(-59.84)"/><g class="cls-2"><path class="cls-45" d="M5309.44,1194.86a.27.27,0,0,1,.14,0c.13,0,.18.18.11.39a2.25,2.25,0,0,0-.16.86v1.48l1.27-.76a2.43,2.43,0,0,0,.61-.56.37.37,0,0,1,.13-.12c.1-.06.19-.06.24,0a.49.49,0,0,1-.1.51,3.49,3.49,0,0,1-.88.81h0l-1.25.75v1.55a3.6,3.6,0,0,1-.24,1.2.64.64,0,0,1-.24.31.37.37,0,0,1-.14,0c-.13,0-.18-.19-.1-.4a2.32,2.32,0,0,0,.17-.83v-1.53l-1,.59-.27.16h0a2.41,2.41,0,0,0-.6.56.55.55,0,0,1-.14.13.17.17,0,0,1-.24,0,.49.49,0,0,1,.1-.51,3.33,3.33,0,0,1,.65-.65l.27-.18,1.23-.74v-1.78h0a4.17,4.17,0,0,1,.22-.93A.65.65,0,0,1,5309.44,1194.86Z" transform="translate(-5202.72 -1122.6)"/><path class="cls-45" d="M5311.89,1191.89l.37.22-.43.79a.92.92,0,0,1,.23.09l.15.11.43-.77.37.22-.54,1a2.75,2.75,0,0,1-.09,1.86.63.63,0,0,1-.25.32.21.21,0,0,1-.13,0c-.13,0-.18-.17-.11-.38.26-.74.17-1.42-.22-1.65a.86.86,0,0,0-.89.09,2.31,2.31,0,0,0-.6.54.36.36,0,0,1-.13.12c-.1.06-.2.06-.25,0a.54.54,0,0,1,.11-.52,3.42,3.42,0,0,1,.86-.78,2,2,0,0,1,.56-.23Z" transform="translate(-5202.72 -1122.6)"/><path class="cls-45" d="M5309.29,1191c3.34-2,6.07-.39,6.08,3.61a14,14,0,0,1-6,10.89c-3.35,2-6.08.39-6.09-3.61A14,14,0,0,1,5309.29,1191Zm0,13.84a12.74,12.74,0,0,0,5.5-9.9c0-3.63-2.49-5.1-5.53-3.28a12.74,12.74,0,0,0-5.5,9.9c0,3.63,2.5,5.1,5.53,3.28" transform="translate(-5202.72 -1122.6)"/></g><path class="cls-45" d="M5306.37,1200.4a.25.25,0,0,1,.14,0c.13,0,.18.18.11.39-.27.74-.18,1.42.21,1.66a.89.89,0,0,0,.9-.1,2.33,2.33,0,0,0,.6-.55.53.53,0,0,1,.14-.12.16.16,0,0,1,.24,0,.52.52,0,0,1-.11.51,3.34,3.34,0,0,1-.87.79,1.74,1.74,0,0,1-.64.24l-.57,1-.38-.22.47-.85-.17-.07-.19-.16-.48.86-.37-.23.6-1.08a2.88,2.88,0,0,1,.13-1.78A.62.62,0,0,1,5306.37,1200.4Z" transform="translate(-5202.72 -1122.6)"/><path class="cls-46" d="M5272.06,1228.05c2.73,1.57,4.41,1.92,4.55,4.3.21,3.6-.65,6.25-2.68,8.36-5,5.23-15.36,7.43-23.09,4.92a16.08,16.08,0,0,1-3-1.33,9,9,0,0,1-4.55-9c.18-1.2,1.65-2.54,2.69-3.63,5-5.22,15.36-7.42,23.09-4.92A16,16,0,0,1,5272.06,1228.05Z" transform="translate(-5202.72 -1122.6)"/><path class="cls-47" d="M5272.06,1226.05c5.19,3,6.15,8.21,1.87,12.66-5,5.23-15.36,7.43-23.09,4.92a16.08,16.08,0,0,1-3-1.33c-5.18-3-6.15-8.2-1.86-12.66,5-5.22,15.36-7.42,23.09-4.92A16,16,0,0,1,5272.06,1226.05Z" transform="translate(-5202.72 -1122.6)"/><g class="cls-22"><path class="cls-48" d="M5266.84,1229.55c2.94,1.71,3.49,4.67,1.05,7.21-2.85,3-8.73,4.22-13.13,2.8a8.92,8.92,0,0,1-1.73-.76c-2.95-1.7-3.5-4.67-1.06-7.2,2.86-3,8.74-4.23,13.14-2.8A9.48,9.48,0,0,1,5266.84,1229.55Z" transform="translate(-5202.72 -1122.6)"/></g><g class="cls-49"><path class="cls-50" d="M5259.62,1215.34a6.29,6.29,0,0,1,7.38.7c3.47,3.2-2.57,15.64-6.71,18-2.18,1.26-4.17.45-5.76-.68a6.1,6.1,0,0,1-2.39-5.09A16.5,16.5,0,0,1,5259.62,1215.34Z" transform="translate(-5202.72 -1122.6)"/><g class="cls-26"><path class="cls-51" d="M5257.74,1235.87a.31.31,0,0,1-.13,0l-11.54-6.29a.26.26,0,0,1-.1-.36.27.27,0,0,1,.36-.11l11.54,6.29a.26.26,0,0,1,.1.36A.27.27,0,0,1,5257.74,1235.87Z" transform="translate(-5202.72 -1122.6)"/><path class="cls-52" d="M5258.34,1234.63a.28.28,0,0,1-.13,0l-11.46-6.25a.27.27,0,0,1-.11-.36.26.26,0,0,1,.36-.1l11.46,6.24a.27.27,0,0,1-.12.5Z" transform="translate(-5202.72 -1122.6)"/><path class="cls-53" d="M5258.93,1233.39a.27.27,0,0,1-.12,0l-11.39-6.2a.27.27,0,0,1,.26-.47l11.38,6.2a.27.27,0,0,1,.11.36A.27.27,0,0,1,5258.93,1233.39Z" transform="translate(-5202.72 -1122.6)"/><path class="cls-54" d="M5259.53,1232.15a.27.27,0,0,1-.12,0L5248.1,1226a.27.27,0,0,1,.25-.47l11.31,6.16a.27.27,0,0,1-.13.5Z" transform="translate(-5202.72 -1122.6)"/><path class="cls-55" d="M5260.13,1230.91a.31.31,0,0,1-.13,0l-11.23-6.12a.26.26,0,0,1-.1-.36.27.27,0,0,1,.36-.11l11.23,6.12a.27.27,0,0,1-.13.5Z" transform="translate(-5202.72 -1122.6)"/><path class="cls-56" d="M5260.73,1229.67a.28.28,0,0,1-.13,0l-11.15-6.08a.27.27,0,0,1-.11-.36.26.26,0,0,1,.36-.1l11.15,6.07a.27.27,0,0,1-.12.5Z" transform="translate(-5202.72 -1122.6)"/><path class="cls-57" d="M5261.32,1228.43l-.12,0-11.08-6a.27.27,0,0,1,.26-.47l11.07,6a.27.27,0,0,1-.13.5Z" transform="translate(-5202.72 -1122.6)"/><path class="cls-58" d="M5261.92,1227.19a.31.31,0,0,1-.13,0l-11-6a.27.27,0,0,1,.25-.47l11,6a.26.26,0,0,1,.1.36A.25.25,0,0,1,5261.92,1227.19Z" transform="translate(-5202.72 -1122.6)"/><path class="cls-59" d="M5262.52,1226a.28.28,0,0,1-.13,0l-10.92-6a.26.26,0,0,1,.26-.46l10.92,5.94a.28.28,0,0,1,.1.37A.28.28,0,0,1,5262.52,1226Z" transform="translate(-5202.72 -1122.6)"/><path class="cls-60" d="M5263.12,1224.71a.28.28,0,0,1-.13,0l-10.84-5.91a.27.27,0,0,1-.11-.36.26.26,0,0,1,.36-.1l10.84,5.91a.27.27,0,0,1,.11.36A.28.28,0,0,1,5263.12,1224.71Z" transform="translate(-5202.72 -1122.6)"/><path class="cls-61" d="M5263.71,1223.47l-.12,0-10.77-5.86a.26.26,0,0,1-.1-.36.27.27,0,0,1,.36-.11l10.76,5.87a.27.27,0,0,1,.11.36A.28.28,0,0,1,5263.71,1223.47Z" transform="translate(-5202.72 -1122.6)"/><path class="cls-62" d="M5264.31,1222.23a.31.31,0,0,1-.13,0l-10.68-5.82a.27.27,0,1,1,.25-.47l10.69,5.83a.26.26,0,0,1,.1.36A.28.28,0,0,1,5264.31,1222.23Z" transform="translate(-5202.72 -1122.6)"/><path class="cls-63" d="M5264.91,1221a.28.28,0,0,1-.13,0l-10.61-5.78a.26.26,0,1,1,.26-.46l10.6,5.78a.27.27,0,0,1,.11.36A.28.28,0,0,1,5264.91,1221Z" transform="translate(-5202.72 -1122.6)"/><path class="cls-64" d="M5265.5,1219.75l-.12,0-10.53-5.74a.27.27,0,0,1-.11-.36.26.26,0,0,1,.36-.1l10.53,5.74a.27.27,0,0,1,.11.36A.28.28,0,0,1,5265.5,1219.75Z" transform="translate(-5202.72 -1122.6)"/><path class="cls-65" d="M5266.1,1218.52a.33.33,0,0,1-.13,0l-10.45-5.69a.26.26,0,0,1-.1-.36.27.27,0,0,1,.36-.11l10.45,5.7a.26.26,0,0,1,.1.36A.24.24,0,0,1,5266.1,1218.52Z" transform="translate(-5202.72 -1122.6)"/><path class="cls-66" d="M5266.7,1217.28a.33.33,0,0,1-.13,0l-10.37-5.65a.27.27,0,1,1,.25-.47l10.38,5.66a.27.27,0,0,1,.1.36A.27.27,0,0,1,5266.7,1217.28Z" transform="translate(-5202.72 -1122.6)"/><path class="cls-67" d="M5267.3,1216a.2.2,0,0,1-.13,0l-10.3-5.61a.26.26,0,0,1,.26-.46l10.29,5.61a.27.27,0,0,1-.12.5Z" transform="translate(-5202.72 -1122.6)"/></g></g><ellipse class="cls-68" cx="5261.47" cy="1225.07" rx="10.58" ry="6.13" transform="translate(-3644.1 4036.02) rotate(-59.84)"/><ellipse class="cls-69" cx="5251.18" cy="1133.14" rx="0.74" ry="0.43" transform="translate(-3569.73 3981.39) rotate(-59.84)"/><path class="cls-70" d="M5258,1256.2a5.13,5.13,0,0,1,4.64,0,1.9,1.9,0,0,1,.89,1c.23-.62-.07-1.28-.89-1.76a5.1,5.1,0,0,0-4.64,0c-.81.47-1.1,1.13-.87,1.74A1.88,1.88,0,0,1,5258,1256.2Z" transform="translate(-5202.72 -1122.6)"/><path class="cls-71" d="M5258,1258.08a5.1,5.1,0,0,0,4.64,0,1.87,1.87,0,0,0,.87-.93,1.9,1.9,0,0,0-.89-1,5.13,5.13,0,0,0-4.64,0,1.88,1.88,0,0,0-.87.94A1.93,1.93,0,0,0,5258,1258.08Z" transform="translate(-5202.72 -1122.6)"/><path class="cls-72" d="M5251,1242l5.39,13.32.63,1.55h0a1.7,1.7,0,0,0,1,1.26,5.09,5.09,0,0,0,4.65,0,1.69,1.69,0,0,0,1-1.24h0l.77-1.41,6.37-13.48Z" transform="translate(-5202.72 -1122.6)"/><path class="cls-73" d="M5251,1242l5.39,13.32.63,1.55h0a1.7,1.7,0,0,0,1,1.26,5.09,5.09,0,0,0,4.65,0,1.69,1.69,0,0,0,1-1.24h0l.77-1.41,6.37-13.48Z" transform="translate(-5202.72 -1122.6)"/><path class="cls-74" d="M5303.67,1229.72a5.1,5.1,0,0,1,4.64,0,1.9,1.9,0,0,1,.89,1c.22-.61-.07-1.27-.89-1.75a5.13,5.13,0,0,0-4.64,0c-.81.48-1.1,1.14-.87,1.74A1.82,1.82,0,0,1,5303.67,1229.72Z" transform="translate(-5202.72 -1122.6)"/><path class="cls-75" d="M5303.68,1231.6a5.13,5.13,0,0,0,4.64,0,.95.95,0,0,0,0-1.89,5.1,5.1,0,0,0-4.64,0,1.82,1.82,0,0,0-.87.93A1.88,1.88,0,0,0,5303.68,1231.6Z" transform="translate(-5202.72 -1122.6)"/><path class="cls-76" d="M5296.65,1215.47l5.4,13.32.62,1.54h0a1.7,1.7,0,0,0,1,1.27,5.17,5.17,0,0,0,4.66,0,1.67,1.67,0,0,0,.95-1.24h0l.78-1.41,6.37-13.48Z" transform="translate(-5202.72 -1122.6)"/><path class="cls-77" d="M5296.65,1215.47l5.4,13.32.62,1.54h0a1.7,1.7,0,0,0,1,1.27,5.17,5.17,0,0,0,4.66,0,1.67,1.67,0,0,0,.95-1.24h0l.78-1.41,6.37-13.48Z" transform="translate(-5202.72 -1122.6)"/><polyline class="cls-78" points="61.5 145.12 99.43 167.07 99.43 171.81"/><polyline class="cls-79" points="80.46 156.09 61.5 167.12 61.49 171.46"/><polyline class="cls-80" points="71.05 104.65 57.41 72.67 45.07 119.7"/><polyline class="cls-81" points="116.79 76.75 103.16 44.77 90.81 91.81"/><g class="cls-82"><polygon class="cls-83" points="31.16 60.12 34.98 57.92 34.95 47.58 31.13 49.79 31.16 60.12"/><polygon class="cls-83" points="38.79 55.75 42.61 53.54 42.56 36 38.73 38.21 38.79 55.75"/><polygon class="cls-83" points="46.41 51.35 50.23 49.15 50.16 27.13 46.34 29.33 46.41 51.35"/></g><polygon class="cls-84" points="42.24 47.53 42.27 57.87 38.44 60.08 38.41 49.74 42.24 47.53"/><polygon class="cls-85" points="36.56 58.99 36.56 48.63 38.41 49.74 38.44 60.08 36.56 58.99"/><polygon class="cls-86" points="36.56 48.63 40.24 46.42 42.24 47.53 38.41 49.74 36.56 48.63"/><polygon class="cls-87" points="49.84 35.95 49.87 53.49 46.05 55.7 46.02 38.16 49.84 35.95"/><polygon class="cls-88" points="44.17 54.61 44.17 37.05 46.02 38.16 46.05 55.7 44.17 54.61"/><polygon class="cls-89" points="44.17 37.05 47.84 34.84 49.84 35.95 46.02 38.16 44.17 37.05"/><polygon class="cls-90" points="57.45 27.08 57.47 49.1 53.65 51.31 53.62 29.29 57.45 27.08"/><polygon class="cls-90" points="57.45 27.08 57.47 49.1 53.65 51.31 53.62 29.29 57.45 27.08"/><polygon class="cls-91" points="51.77 50.22 51.77 28.18 53.62 29.29 53.65 51.31 51.77 50.22"/><polygon class="cls-92" points="51.77 28.18 55.44 25.97 57.45 27.08 53.62 29.29 51.77 28.18"/><polygon class="cls-93" points="11.99 77.07 12.13 99.11 38.73 83.58 38.73 61.71 11.99 77.07"/><path class="cls-94" d="M5219.49,1209.68s.31-4.16,1.75-3.71,2.49.89,3,0,.21-3.17.81-3.67a6.9,6.9,0,0,1,2.09-.92c.92-.38,1.5-2.17,1.71-3s.54-2.27,1.87-1.88a4.84,4.84,0,0,0,3-.54l-1.65,5.84-5.47,3.48Z" transform="translate(-5202.72 -1122.6)"/><path class="cls-95" d="M5237.52,1199.8l-19,11s-.44-2.38,1.18-2.84,2.51-.33,2.85-1.12.82-3.5,2-3.46,1.46-1.8,2.75-1.36,2.28-2.63,2.6-3.33S5234.94,1190.24,5237.52,1199.8Z" transform="translate(-5202.72 -1122.6)"/><polygon class="cls-96" points="15.79 90.93 15.79 94.38 18.78 92.65 18.78 89.2 15.79 90.93"/><polygon class="cls-97" points="20.4 88.33 20.4 91.79 23.39 90.06 23.39 86.61 20.4 88.33"/><polygon class="cls-98" points="24.63 86 34.8 80.23 34.8 81.46 24.63 87.33 24.63 86"/><polygon class="cls-99" points="24.63 88.07 34.8 82.3 34.8 83.53 24.63 89.4 24.63 88.07"/><polygon class="cls-100" points="38.73 61.71 37.51 61.07 10.83 76.4 11.99 77.07 38.73 61.71"/><polygon class="cls-101" points="12.13 99.11 10.83 98.35 10.83 76.4 11.99 77.07 12.13 99.11"/><polygon class="cls-102" points="118.11 33.08 118.11 59.41 152.65 79.36 152.65 52.83 118.11 33.08"/><polygon class="cls-103" points="114.63 35.37 114.63 61.71 149.18 81.65 149.18 55.12 114.63 35.37"/><polyline class="cls-104" points="117.37 59.26 123.72 56.98 126.04 61.94 133.64 57.65 135.38 62.04 144.13 56.98"/><path class="cls-45" d="M5261.65,1217.89c3.45-2,6.27-.39,6.28,3.58a13.81,13.81,0,0,1-6.24,10.82c-3.46,2-6.28.38-6.29-3.59A13.76,13.76,0,0,1,5261.65,1217.89Zm0,13.74a12.51,12.51,0,0,0,5.67-9.83c0-3.61-2.57-5.07-5.71-3.26a12.55,12.55,0,0,0-5.68,9.83c0,3.61,2.58,5.07,5.72,3.26" transform="translate(-5202.72 -1122.6)"/><path class="cls-45" d="M5263.59,1224.23c.83-.06,1.11.51,1.07,1.17a3.69,3.69,0,0,1-1.69,2.67l-.67.39v.53l-.76.44v-.53l-.36.21v.53l-.76.44v-.53l-.57.33c-.21.12-.38,0-.38-.22a.86.86,0,0,1,.38-.66l.57-.32v-2l-.57.32c-.21.13-.38,0-.38-.21a.84.84,0,0,1,.38-.66l.57-.33v-2l-.57.33c-.21.12-.38,0-.38-.22a.86.86,0,0,1,.38-.66l.57-.32V1222l.76-.44v.84l.37-.21v-.84l.76-.44v.84l.15-.08a1,1,0,0,1,1.6.59A2.63,2.63,0,0,1,5263.59,1224.23Zm.31,1.54c0-.56-.41-.72-1.2-.42l-1.53.89v2l1.79-1a2,2,0,0,0,.93-1.43m-2.74-2.46v2l1.47-.85a2.15,2.15,0,0,0,.65-1.58.56.56,0,0,0-.86-.35l-1.27.73" transform="translate(-5202.72 -1122.6)"/><line class="cls-105" x1="103.16" y1="44.77" x2="80.42" y2="39.75"/><circle class="cls-106" cx="80.67" cy="39.63" r="3.17"/><line class="cls-107" x1="79.51" y1="40.85" x2="57.61" y2="72.68"/></g></g></svg>