<svg id="Layer_1" data-name="Layer 1" xmlns="http://www.w3.org/2000/svg" xmlns:xlink="http://www.w3.org/1999/xlink" viewBox="0 0 164.93 224.02"><defs><style>.cls-1,.cls-13,.cls-76,.cls-77,.cls-78{fill:none;}.cls-2{opacity:0.3;fill:url(#linear-gradient);}.cls-3{fill:url(#linear-gradient-2);}.cls-4{fill:url(#linear-gradient-3);}.cls-5{fill:url(#linear-gradient-4);}.cls-6{fill:url(#linear-gradient-5);}.cls-7{fill:url(#linear-gradient-6);}.cls-8{fill:url(#linear-gradient-7);}.cls-9{fill:url(#linear-gradient-8);}.cls-10{fill:url(#linear-gradient-9);}.cls-11{fill:url(#linear-gradient-10);}.cls-12{fill:url(#linear-gradient-11);}.cls-13,.cls-76,.cls-77,.cls-78{stroke-linecap:round;stroke-miterlimit:10;}.cls-13{stroke:url(#linear-gradient-12);}.cls-14{clip-path:url(#clip-path);}.cls-15{fill:url(#linear-gradient-13);}.cls-16{fill:url(#linear-gradient-14);}.cls-17{fill:url(#linear-gradient-15);}.cls-18{fill:url(#linear-gradient-16);}.cls-19{fill:url(#linear-gradient-17);}.cls-20{fill:url(#linear-gradient-18);}.cls-21{fill:url(#linear-gradient-19);}.cls-22{fill:url(#linear-gradient-20);}.cls-23{fill:url(#linear-gradient-21);}.cls-24{fill:url(#linear-gradient-22);}.cls-25{fill:url(#linear-gradient-23);}.cls-26{fill:url(#linear-gradient-24);}.cls-27{fill:url(#linear-gradient-25);}.cls-28{fill:url(#linear-gradient-26);}.cls-29{fill:url(#linear-gradient-27);}.cls-30{fill:url(#linear-gradient-28);}.cls-31{fill:url(#linear-gradient-29);}.cls-32{opacity:0.4;fill:url(#linear-gradient-30);}.cls-33{clip-path:url(#clip-path-2);}.cls-34{fill:url(#linear-gradient-31);}.cls-35{opacity:0.8;}.cls-36{fill:url(#linear-gradient-32);}.cls-37{fill:url(#linear-gradient-33);}.cls-38{fill:url(#linear-gradient-34);}.cls-39{fill:url(#linear-gradient-35);}.cls-40{fill:url(#linear-gradient-36);}.cls-41{fill:url(#linear-gradient-37);}.cls-42{fill:url(#linear-gradient-38);}.cls-43{fill:url(#linear-gradient-39);}.cls-44{fill:url(#linear-gradient-40);}.cls-45{fill:url(#linear-gradient-41);}.cls-46{fill:url(#linear-gradient-42);}.cls-47{fill:url(#linear-gradient-43);}.cls-48{fill:url(#linear-gradient-44);}.cls-49{fill:url(#linear-gradient-45);}.cls-50{fill:url(#linear-gradient-46);}.cls-51{fill:url(#linear-gradient-47);}.cls-52{fill:url(#linear-gradient-48);}.cls-53{fill:url(#linear-gradient-49);}.cls-54{isolation:isolate;}.cls-55{fill:#ffce76;}.cls-56{clip-path:url(#clip-path-3);}.cls-57{fill:url(#linear-gradient-50);}.cls-58{fill:url(#linear-gradient-51);}.cls-59{fill:url(#linear-gradient-52);}.cls-60{fill:url(#linear-gradient-53);}.cls-61{fill:url(#linear-gradient-54);}.cls-62{fill:url(#linear-gradient-55);}.cls-63{fill:url(#linear-gradient-56);}.cls-64{fill:url(#linear-gradient-57);}.cls-65{fill:url(#linear-gradient-58);}.cls-66{fill:url(#linear-gradient-59);}.cls-67{fill:url(#linear-gradient-60);}.cls-68{fill:url(#linear-gradient-61);}.cls-69{fill:url(#linear-gradient-62);}.cls-70{fill:url(#linear-gradient-63);}.cls-71{fill:url(#linear-gradient-64);}.cls-72{fill:url(#linear-gradient-65);}.cls-73{fill:url(#linear-gradient-66);}.cls-74{fill:url(#linear-gradient-67);}.cls-75{fill:url(#linear-gradient-68);}.cls-76{stroke:url(#linear-gradient-69);}.cls-77{stroke:url(#linear-gradient-70);}.cls-78{stroke:url(#linear-gradient-71);}.cls-79{clip-path:url(#clip-path-4);}.cls-80{fill:url(#linear-gradient-72);}.cls-81{opacity:0.5;}.cls-82{fill:url(#linear-gradient-73);}.cls-83{fill:url(#linear-gradient-74);}.cls-84{fill:url(#linear-gradient-75);}.cls-85{fill:url(#linear-gradient-76);}.cls-86{fill:url(#linear-gradient-77);}.cls-87{fill:url(#linear-gradient-78);}.cls-88{fill:url(#linear-gradient-79);}.cls-89{fill:url(#linear-gradient-80);}.cls-90{fill:url(#linear-gradient-81);}.cls-91{fill:url(#linear-gradient-82);}.cls-92{fill:url(#linear-gradient-83);}.cls-93{fill:url(#linear-gradient-84);}.cls-94{fill:url(#linear-gradient-85);}.cls-95{fill:url(#linear-gradient-86);}.cls-96{fill:url(#linear-gradient-87);}.cls-97{fill:url(#linear-gradient-88);}.cls-98{fill:url(#linear-gradient-89);}.cls-99{fill:url(#linear-gradient-90);}</style><linearGradient id="linear-gradient" x1="5015.93" y1="1288.77" x2="5180.52" y2="1288.77" gradientUnits="userSpaceOnUse"><stop offset="0" stop-color="#c27201"/><stop offset="1" stop-color="#f2aa43"/></linearGradient><linearGradient id="linear-gradient-2" x1="5015.76" y1="1257.91" x2="5180.69" y2="1257.91" gradientUnits="userSpaceOnUse"><stop offset="0" stop-color="#222427"/><stop offset="1" stop-color="#392b1a"/></linearGradient><linearGradient id="linear-gradient-3" x1="5015.88" y1="1253.52" x2="5180.47" y2="1253.52" gradientUnits="userSpaceOnUse"><stop offset="0" stop-color="#505255"/><stop offset="1" stop-color="#70665a"/></linearGradient><linearGradient id="linear-gradient-4" x1="5128.25" y1="1189.28" x2="5156.95" y2="1189.28" gradientUnits="userSpaceOnUse"><stop offset="0" stop-color="#d49c4d"/><stop offset="1" stop-color="#f9d9aa"/></linearGradient><linearGradient id="linear-gradient-5" x1="5134.84" y1="1165.74" x2="5150.23" y2="1165.74" xlink:href="#linear-gradient-4"/><linearGradient id="linear-gradient-6" x1="5130.54" y1="1189.97" x2="5157.15" y2="1189.97" gradientUnits="userSpaceOnUse"><stop offset="0" stop-color="#faddb4"/><stop offset="1" stop-color="#fff6e6"/></linearGradient><linearGradient id="linear-gradient-7" x1="5137.13" y1="1166.51" x2="5150.42" y2="1166.51" xlink:href="#linear-gradient-6"/><linearGradient id="linear-gradient-8" x1="5040.65" y1="1195.42" x2="5069.35" y2="1195.42" xlink:href="#linear-gradient-4"/><linearGradient id="linear-gradient-9" x1="5047.24" y1="1171.88" x2="5062.63" y2="1171.88" xlink:href="#linear-gradient-4"/><linearGradient id="linear-gradient-10" x1="5042.94" y1="1196.11" x2="5069.55" y2="1196.11" xlink:href="#linear-gradient-6"/><linearGradient id="linear-gradient-11" x1="5049.53" y1="1172.64" x2="5062.82" y2="1172.64" xlink:href="#linear-gradient-6"/><linearGradient id="linear-gradient-12" x1="26.45" y1="131.98" x2="103.87" y2="131.98" xlink:href="#linear-gradient"/><clipPath id="clip-path" transform="translate(-5015.76 -1112.96)"><circle class="cls-1" cx="5100.07" cy="1180.11" r="32.93"/></clipPath><linearGradient id="linear-gradient-13" x1="51.38" y1="67.15" x2="117.23" y2="67.15" xlink:href="#linear-gradient"/><linearGradient id="linear-gradient-14" x1="5086.64" y1="1151.79" x2="5110.85" y2="1151.79" gradientUnits="userSpaceOnUse"><stop offset="0" stop-color="#f5bb69"/><stop offset="1" stop-color="#fdd17a"/></linearGradient><linearGradient id="linear-gradient-15" x1="5067.42" y1="1179.56" x2="5094.42" y2="1179.56" xlink:href="#linear-gradient-14"/><linearGradient id="linear-gradient-16" x1="5097.85" y1="1164.57" x2="5109.25" y2="1164.57" xlink:href="#linear-gradient-14"/><linearGradient id="linear-gradient-17" x1="5112.2" y1="1174.96" x2="5134.67" y2="1174.96" xlink:href="#linear-gradient-14"/><linearGradient id="linear-gradient-18" x1="5113.68" y1="1199.23" x2="5134.41" y2="1199.23" xlink:href="#linear-gradient-14"/><linearGradient id="linear-gradient-19" x1="5114.59" y1="1173.4" x2="5116.88" y2="1173.4" xlink:href="#linear-gradient-14"/><linearGradient id="linear-gradient-20" x1="5112.86" y1="1173.09" x2="5114.59" y2="1173.09" xlink:href="#linear-gradient-14"/><linearGradient id="linear-gradient-21" x1="5040.81" y1="1238.24" x2="5069.51" y2="1238.24" xlink:href="#linear-gradient-4"/><linearGradient id="linear-gradient-22" x1="5047.4" y1="1214.7" x2="5062.79" y2="1214.7" xlink:href="#linear-gradient-4"/><linearGradient id="linear-gradient-23" x1="5043.1" y1="1238.93" x2="5069.71" y2="1238.93" xlink:href="#linear-gradient-6"/><linearGradient id="linear-gradient-24" x1="5049.69" y1="1215.46" x2="5062.98" y2="1215.46" xlink:href="#linear-gradient-6"/><linearGradient id="linear-gradient-25" x1="5080.75" y1="1255.3" x2="5111.54" y2="1255.3" gradientUnits="userSpaceOnUse"><stop offset="0" stop-color="#2d2f33"/><stop offset="1" stop-color="#4f4334"/></linearGradient><linearGradient id="linear-gradient-26" x1="67.95" y1="138.16" x2="92.37" y2="138.16" xlink:href="#linear-gradient"/><linearGradient id="linear-gradient-27" x1="5085.75" y1="1253.63" x2="5106.85" y2="1253.63" xlink:href="#linear-gradient-25"/><linearGradient id="linear-gradient-28" x1="5089.81" y1="1260.24" x2="5102.48" y2="1241.46" xlink:href="#linear-gradient-25"/><linearGradient id="linear-gradient-29" x1="5099.99" y1="1257.16" x2="5099.99" y2="1201.97" gradientUnits="userSpaceOnUse"><stop offset="0.37" stop-color="#f4af47" stop-opacity="0.86"/><stop offset="0.94" stop-color="#fcc659" stop-opacity="0"/></linearGradient><linearGradient id="linear-gradient-30" x1="5099.99" y1="1257.16" x2="5099.99" y2="1201.97" gradientUnits="userSpaceOnUse"><stop offset="0" stop-color="#e8610f"/><stop offset="0.18" stop-color="#ee8026" stop-opacity="0.64"/><stop offset="0.52" stop-color="#f9b84f" stop-opacity="0"/></linearGradient><clipPath id="clip-path-2" transform="translate(-5015.76 -1112.96)"><path class="cls-1" d="M5051.73,1172c4.21-2.13,8.28-1.54,11.11,1.06,5.24,4.82-3.86,23.55-10.11,27.16-3.27,1.89-6.28.68-8.67-1a9.19,9.19,0,0,1-3.59-7.67C5040.44,1184.39,5045.49,1175.65,5051.73,1172Z"/></clipPath><linearGradient id="linear-gradient-31" x1="5040.47" y1="1185.98" x2="5064.4" y2="1185.98" gradientUnits="userSpaceOnUse"><stop offset="0" stop-color="#c27201"/><stop offset="1" stop-color="#c27201"/></linearGradient><linearGradient id="linear-gradient-32" x1="5031.12" y1="1197.83" x2="5049.3" y2="1197.83" xlink:href="#linear-gradient"/><linearGradient id="linear-gradient-33" x1="5032.13" y1="1195.99" x2="5050.2" y2="1195.99" xlink:href="#linear-gradient"/><linearGradient id="linear-gradient-34" x1="5033.15" y1="1194.16" x2="5051.1" y2="1194.16" xlink:href="#linear-gradient"/><linearGradient id="linear-gradient-35" x1="5034.17" y1="1192.32" x2="5052" y2="1192.32" xlink:href="#linear-gradient"/><linearGradient id="linear-gradient-36" x1="5035.18" y1="1190.49" x2="5052.9" y2="1190.49" xlink:href="#linear-gradient"/><linearGradient id="linear-gradient-37" x1="5036.2" y1="1188.65" x2="5053.8" y2="1188.65" xlink:href="#linear-gradient"/><linearGradient id="linear-gradient-38" x1="5037.22" y1="1186.82" x2="5054.69" y2="1186.82" xlink:href="#linear-gradient"/><linearGradient id="linear-gradient-39" x1="5038.23" y1="1184.98" x2="5055.59" y2="1184.98" xlink:href="#linear-gradient"/><linearGradient id="linear-gradient-40" x1="5039.25" y1="1183.15" x2="5056.49" y2="1183.15" xlink:href="#linear-gradient"/><linearGradient id="linear-gradient-41" x1="5040.27" y1="1181.31" x2="5057.39" y2="1181.31" xlink:href="#linear-gradient"/><linearGradient id="linear-gradient-42" x1="5041.28" y1="1179.48" x2="5058.29" y2="1179.48" xlink:href="#linear-gradient"/><linearGradient id="linear-gradient-43" x1="5042.3" y1="1177.64" x2="5059.19" y2="1177.64" xlink:href="#linear-gradient"/><linearGradient id="linear-gradient-44" x1="5043.32" y1="1175.81" x2="5060.09" y2="1175.81" xlink:href="#linear-gradient"/><linearGradient id="linear-gradient-45" x1="5044.33" y1="1173.97" x2="5060.99" y2="1173.97" xlink:href="#linear-gradient"/><linearGradient id="linear-gradient-46" x1="5045.35" y1="1172.14" x2="5061.89" y2="1172.14" xlink:href="#linear-gradient"/><linearGradient id="linear-gradient-47" x1="5046.37" y1="1170.3" x2="5062.79" y2="1170.3" xlink:href="#linear-gradient"/><linearGradient id="linear-gradient-48" x1="5047.38" y1="1168.47" x2="5063.69" y2="1168.47" xlink:href="#linear-gradient"/><linearGradient id="linear-gradient-49" x1="5043.2" y1="1186.7" x2="5065.81" y2="1186.7" gradientTransform="translate(3540.88 -3779.71) rotate(59.84)" gradientUnits="userSpaceOnUse"><stop offset="0" stop-color="#eb741c"/><stop offset="1" stop-color="#f2aa43"/></linearGradient><clipPath id="clip-path-3" transform="translate(-5015.76 -1112.96)"><path class="cls-1" d="M5140.54,1121.17c4.21-2.14,8.28-1.55,11.11,1.06,5.23,4.81-3.87,23.55-10.11,27.15-3.28,1.89-6.28.68-8.67-1a9.23,9.23,0,0,1-3.6-7.68C5129.25,1133.51,5134.3,1124.77,5140.54,1121.17Z"/></clipPath><linearGradient id="linear-gradient-50" x1="5129.27" y1="1135.1" x2="5153.21" y2="1135.1" xlink:href="#linear-gradient-31"/><linearGradient id="linear-gradient-51" x1="5119.92" y1="1146.95" x2="5138.11" y2="1146.95" xlink:href="#linear-gradient"/><linearGradient id="linear-gradient-52" x1="5120.94" y1="1145.12" x2="5139" y2="1145.12" xlink:href="#linear-gradient"/><linearGradient id="linear-gradient-53" x1="5121.96" y1="1143.28" x2="5139.9" y2="1143.28" xlink:href="#linear-gradient"/><linearGradient id="linear-gradient-54" x1="5122.97" y1="1141.45" x2="5140.8" y2="1141.45" xlink:href="#linear-gradient"/><linearGradient id="linear-gradient-55" x1="5123.99" y1="1139.61" x2="5141.7" y2="1139.61" xlink:href="#linear-gradient"/><linearGradient id="linear-gradient-56" x1="5125.01" y1="1137.78" x2="5142.6" y2="1137.78" xlink:href="#linear-gradient"/><linearGradient id="linear-gradient-57" x1="5126.02" y1="1135.94" x2="5143.5" y2="1135.94" xlink:href="#linear-gradient"/><linearGradient id="linear-gradient-58" x1="5127.04" y1="1134.11" x2="5144.4" y2="1134.11" xlink:href="#linear-gradient"/><linearGradient id="linear-gradient-59" x1="5128.06" y1="1132.27" x2="5145.3" y2="1132.27" xlink:href="#linear-gradient"/><linearGradient id="linear-gradient-60" x1="5129.07" y1="1130.44" x2="5146.2" y2="1130.44" xlink:href="#linear-gradient"/><linearGradient id="linear-gradient-61" x1="5130.09" y1="1128.6" x2="5147.1" y2="1128.6" xlink:href="#linear-gradient"/><linearGradient id="linear-gradient-62" x1="5131.11" y1="1126.76" x2="5148" y2="1126.76" xlink:href="#linear-gradient"/><linearGradient id="linear-gradient-63" x1="5132.12" y1="1124.93" x2="5148.9" y2="1124.93" xlink:href="#linear-gradient"/><linearGradient id="linear-gradient-64" x1="5133.14" y1="1123.09" x2="5149.8" y2="1123.09" xlink:href="#linear-gradient"/><linearGradient id="linear-gradient-65" x1="5134.16" y1="1121.26" x2="5150.7" y2="1121.26" xlink:href="#linear-gradient"/><linearGradient id="linear-gradient-66" x1="5135.17" y1="1119.42" x2="5151.6" y2="1119.42" xlink:href="#linear-gradient"/><linearGradient id="linear-gradient-67" x1="5136.19" y1="1117.59" x2="5152.5" y2="1117.59" xlink:href="#linear-gradient"/><linearGradient id="linear-gradient-68" x1="5132.01" y1="1135.82" x2="5154.62" y2="1135.82" gradientTransform="translate(3541.07 -3881.81) rotate(59.84)" xlink:href="#linear-gradient-49"/><linearGradient id="linear-gradient-69" x1="110.53" y1="146.15" x2="157.1" y2="146.15" xlink:href="#linear-gradient"/><linearGradient id="linear-gradient-70" x1="91.36" y1="159.31" x2="122.88" y2="159.31" xlink:href="#linear-gradient"/><linearGradient id="linear-gradient-71" x1="38.18" y1="162.63" x2="58.3" y2="162.63" xlink:href="#linear-gradient"/><clipPath id="clip-path-4" transform="translate(-5015.76 -1112.96)"><path class="cls-1" d="M5055.88,1129.66c6,3.46,10.82,11.85,10.82,18.74,0,4.72-4,8.65-7.54,9.15-1.41.2-1.67-2-3.35-2.94-6-3.46-10.84-11.86-10.82-18.75,0-2.15-2-3-1-4.15A9,9,0,0,1,5055.88,1129.66Z"/></clipPath><linearGradient id="linear-gradient-72" x1="5043.7" y1="1142.91" x2="5066.7" y2="1142.91" xlink:href="#linear-gradient-31"/><linearGradient id="linear-gradient-73" x1="5037.2" y1="1128.53" x2="5057.77" y2="1128.53" xlink:href="#linear-gradient"/><linearGradient id="linear-gradient-74" x1="5038.35" y1="1130.16" x2="5058.92" y2="1130.16" xlink:href="#linear-gradient"/><linearGradient id="linear-gradient-75" x1="5039.49" y1="1131.79" x2="5060.06" y2="1131.79" xlink:href="#linear-gradient"/><linearGradient id="linear-gradient-76" x1="5040.63" y1="1133.43" x2="5061.2" y2="1133.43" xlink:href="#linear-gradient"/><linearGradient id="linear-gradient-77" x1="5041.78" y1="1135.06" x2="5062.35" y2="1135.06" xlink:href="#linear-gradient"/><linearGradient id="linear-gradient-78" x1="5042.92" y1="1136.7" x2="5063.49" y2="1136.7" xlink:href="#linear-gradient"/><linearGradient id="linear-gradient-79" x1="5044.06" y1="1138.33" x2="5064.63" y2="1138.33" xlink:href="#linear-gradient"/><linearGradient id="linear-gradient-80" x1="5045.21" y1="1139.96" x2="5065.78" y2="1139.96" xlink:href="#linear-gradient"/><linearGradient id="linear-gradient-81" x1="5046.35" y1="1141.6" x2="5066.92" y2="1141.6" xlink:href="#linear-gradient"/><linearGradient id="linear-gradient-82" x1="5047.49" y1="1143.23" x2="5068.06" y2="1143.23" xlink:href="#linear-gradient"/><linearGradient id="linear-gradient-83" x1="5048.64" y1="1144.87" x2="5069.21" y2="1144.87" xlink:href="#linear-gradient"/><linearGradient id="linear-gradient-84" x1="5049.78" y1="1146.5" x2="5070.35" y2="1146.5" xlink:href="#linear-gradient"/><linearGradient id="linear-gradient-85" x1="5050.92" y1="1148.13" x2="5071.49" y2="1148.13" xlink:href="#linear-gradient"/><linearGradient id="linear-gradient-86" x1="5052.06" y1="1149.77" x2="5072.63" y2="1149.77" xlink:href="#linear-gradient"/><linearGradient id="linear-gradient-87" x1="5053.21" y1="1151.4" x2="5073.78" y2="1151.4" xlink:href="#linear-gradient"/><linearGradient id="linear-gradient-88" x1="5054.35" y1="1153.03" x2="5074.92" y2="1153.03" xlink:href="#linear-gradient"/><linearGradient id="linear-gradient-89" x1="5055.49" y1="1154.67" x2="5076.06" y2="1154.67" xlink:href="#linear-gradient"/><linearGradient id="linear-gradient-90" x1="5042.25" y1="1143.71" x2="5063.96" y2="1143.71" gradientTransform="matrix(1, 0, 0, 1, 0, 0)" xlink:href="#linear-gradient-49"/></defs><title>basic-learn-icon-02</title><path class="cls-2" d="M5017.55,1287.22l78.78-45.48a6.69,6.69,0,0,1,7.6,0l75,43.29a3.24,3.24,0,0,1,0,5.61l-78.21,45.16c-3.22,1.43-5,1.62-8.33.23l-74.81-43.19A3.25,3.25,0,0,1,5017.55,1287.22Z" transform="translate(-5015.76 -1112.96)"/><path class="cls-3" d="M5016.14,1253.52l82.32-43.65a3.23,3.23,0,0,1,3.24,0l78.21,40.9c1.23,1.35,1.1,8-1.06,9.27l-78.21,45.16c-3.22,1.42-5,1.62-8.33.22l-74.81-43.19C5015.34,1261,5015.6,1253.94,5016.14,1253.52Z" transform="translate(-5015.76 -1112.96)"/><path class="cls-4" d="M5017.5,1252l78.78-45.48a6.67,6.67,0,0,1,7.6,0l75,43.28a3.25,3.25,0,0,1,0,5.62l-78.21,45.16c-3.22,1.42-5,1.62-8.33.23l-74.81-43.2A3.24,3.24,0,0,1,5017.5,1252Z" transform="translate(-5015.76 -1112.96)"/><path class="cls-5" d="M5147.15,1171.08c.38-.09,8.3-.78,9.8,5.19l-2.13,0,0,12.61a5.1,5.1,0,0,1-2.3,4l-20.12,14.49c-1.27.74-4.15-1.67-4.16-3.13l0-12.62c0-7.12,7.23-13.71,7.61-14.06a8.11,8.11,0,0,0,5.66-1.24A19,19,0,0,0,5147.15,1171.08Z" transform="translate(-5015.76 -1112.96)"/><path class="cls-6" d="M5141.46,1157.27c2.69-1.48,7.48-.68,8.62,3.21,1.19,4-5.07,14-9,14.4a5.91,5.91,0,0,1-6.23-6.14A14.58,14.58,0,0,1,5141.46,1157.27Z" transform="translate(-5015.76 -1112.96)"/><path class="cls-7" d="M5149.44,1172.69c.38-.1,7.51-1.85,7.67,5v.18l0,12.62a5,5,0,0,1-2.3,4l-22,12.68c-1.27.74-2.31.15-2.31-1.32l0-12.61c0-7.12,7.23-13.72,7.62-14.07a8,8,0,0,0,5.65-1.24A18.92,18.92,0,0,0,5149.44,1172.69Z" transform="translate(-5015.76 -1112.96)"/><path class="cls-8" d="M5143.75,1158.87c3.67-2.12,6.66-.42,6.67,3.8a14.59,14.59,0,0,1-6.62,11.47c-3.67,2.12-6.66.42-6.67-3.8A14.63,14.63,0,0,1,5143.75,1158.87Z" transform="translate(-5015.76 -1112.96)"/><path class="cls-9" d="M5059.55,1177.22c.38-.09,8.3-.78,9.8,5.18l-2.13.06,0,12.61a5.1,5.1,0,0,1-2.3,4l-20.12,14.49c-1.28.74-4.15-1.67-4.16-3.13l0-12.62c0-7.12,7.23-13.72,7.61-14.06a8.13,8.13,0,0,0,5.65-1.24A18.87,18.87,0,0,0,5059.55,1177.22Z" transform="translate(-5015.76 -1112.96)"/><path class="cls-10" d="M5053.86,1163.41c2.69-1.48,7.48-.69,8.62,3.21,1.19,4.05-5.07,14-9,14.4a5.91,5.91,0,0,1-6.22-6.14A14.58,14.58,0,0,1,5053.86,1163.41Z" transform="translate(-5015.76 -1112.96)"/><path class="cls-11" d="M5061.84,1178.83c.38-.1,7.51-1.85,7.67,5.05v.18l0,12.62a5.08,5.08,0,0,1-2.3,4l-22,12.68c-1.28.74-2.31.15-2.32-1.32l0-12.62c0-7.11,7.23-13.71,7.61-14.06a8.08,8.08,0,0,0,5.65-1.24A19,19,0,0,0,5061.84,1178.83Z" transform="translate(-5015.76 -1112.96)"/><path class="cls-12" d="M5056.15,1165c3.67-2.12,6.66-.42,6.67,3.8a14.59,14.59,0,0,1-6.63,11.47c-3.66,2.12-6.65.42-6.66-3.8A14.59,14.59,0,0,1,5056.15,1165Z" transform="translate(-5015.76 -1112.96)"/><polyline class="cls-13" points="103.37 154.95 80.54 168.13 57.8 154.95 27.44 137.46 53.94 122.03 88.17 102.29 84.31 100.07 91.97 95.76"/><g class="cls-14"><circle class="cls-15" cx="84.31" cy="67.15" r="32.93"/><path class="cls-16" d="M5087.9,1148.91s-1.84,2.2-1.08,2.66-.44,1.76.18,2.2,3.13.15,4,.77,1.42,3.38,5.59,3.17,5.23-.29,7.3.16,5.41-1.5,5.41-2.54,1.83-2.26,1.45-3.76-.53-3.43-2-3.78-14.78-3.24-16.86-1.7S5087.9,1148.91,5087.9,1148.91Z" transform="translate(-5015.76 -1112.96)"/><path class="cls-17" d="M5084,1150.48s1.81.7,1.69,2.19-.06,3.6.69,4.39a10,10,0,0,0,4.62,1.79c1.31.13,2.33,2.45,3.44,2.6,0,0-.13,1.8-1.13,2.2s-4.83-.3-4.57,1.64,1.26,2.56,1.45,2.56.62.62,1.56.19,1.5.19,1.25,1.25a4.05,4.05,0,0,1-3.31,3.14c-2.19.36-4.75.92-5.38,1.8s-2.12.12-2.37.75-.63,2.37.5,2.94a2.27,2.27,0,0,1-1.63,1.43c-1.18.19-.87-2.25-.87-2.25a3.67,3.67,0,0,0-3.75.07c-2.06,1.18-3.25,1.62-3.44,3.25a2.77,2.77,0,0,0,.79,2.43,2,2,0,0,1-1.41,1.65c-1.25.35-1.88,1.35-1.5,1.79s1.5-.5,1.75.94,3.06-.53,3.06-.53,2.12-1,2.62.47,1.75,3.81,3.44,4.25,3.38,1.31,2.75,3.62-2.47,4.13-3.11,5.63-1.26,1.86-.89,3.59.89,4.39.89,4.39-13-10.6-13.31-11,.79-5.94.79-5.94v-.64s1.12-1.78,2.75-1.1,1.37-1.39.56-1.57-2.29-.13-2.21-.94,1.21-3.09.65-4.08-1.63-4-1.19-5.05-.63-.43-.63-.43-1.37,0-.31-2.2,1.26-3.13.56-4.39a25,25,0,0,1-1.37-6c.06-.18,5.06-9.39,5.06-9.39l5.38-5.48Z" transform="translate(-5015.76 -1112.96)"/><path class="cls-18" d="M5099.5,1160a13.12,13.12,0,0,0,5.13-.42c2.25-.79,3.75.54,4,1.46s1.54,2.91-.59,3.7-5.08,2.22-5.41,3-2.56,2.08-2.56,2.08.93-1.66.35-2.85,1.08-2.37,1.08-2.37-.21-2-1.08-2-2.83.07-2.54-.93S5099.5,1160,5099.5,1160Z" transform="translate(-5015.76 -1112.96)"/><path class="cls-19" d="M5128,1161.17s-2.41,1.68-3.14,2.06-2.23.87-2.42,1.94a19.28,19.28,0,0,1-1.06,4.43c-.57,1.07-1.13,3-1.57,3.13a5.68,5.68,0,0,0,3.15-.56,10.84,10.84,0,0,0,1.54-1.19l.69-1.84-.06-2.2s0-1.65.5-1.84.93-.65,1.56-.36,3.37.4,3.37,1.1.82,2.4.7,2.89-1,.62-1.45,1.12A18.08,18.08,0,0,0,5128,1172c0,.19-1,.69-1.62.75a7.23,7.23,0,0,0-2.56.74c-.19.26-.22.93-.92,1.09a6.23,6.23,0,0,1-2.65,0c-.75-.2-1.15,1.67-1.15,1.67a3.8,3.8,0,0,1-2.16,1.13c-1.06,0-.87,1.59-.87,1.59s-1,1.72-1.63,1.66-1.44.62-.69,1.25,2.32,2.5.32,2.87-2.38,1.37-1.38,1.91,1.77,1.4,2.6,1.72,2,.56,2.28,0a5.66,5.66,0,0,0,1.06-2.82c-.06-1.12-.07-2.37.47-2.5a14.67,14.67,0,0,0,1.9-.79,1.22,1.22,0,0,1,1.9.36,6.56,6.56,0,0,0,1.9,1.83s.7,1,1.2.79,1.69-.06,1.82-.5-1.12-.69-1.12-.69-1.51-.43-1.51-1.18-.87-1.38.06-1.32,2.32-.15,2.57.71a2.8,2.8,0,0,0,1.87,1.79c.56,0,4-.7,4-.7l.94-14.86Z" transform="translate(-5015.76 -1112.96)"/><path class="cls-20" d="M5115.61,1191.09c1.18-.21.75-2.29,2.62-2.2s4.1.84,4.71.71,2.79.19,3.48-.37a9.92,9.92,0,0,1,2.94-1.44c.37,0,1.15-1.56,2.06-.81s2.86.4,3,2-2.87,10.9-3,11.44-7.63,8.24-7.91,8.61a62.89,62.89,0,0,1-5.82,2.7l-2.08-1.94a17.54,17.54,0,0,0-.94-2.19c-.56-1.07-1.56-2.77.25-3.29a2.92,2.92,0,0,0,1.87-2.66s1.25-2,.88-2.37.06-2.19-2.63-2.66S5114.23,1191.32,5115.61,1191.09Z" transform="translate(-5015.76 -1112.96)"/><path class="cls-21" d="M5114.59,1176.33a2.44,2.44,0,0,0,1.29-.37,5.87,5.87,0,0,1,1-.59s-.09-.62-.34-.75-.33-.73-.33-1.09-.08-1.1-.08-1.1l.46-.72-.21-.67-1.05-.58-.49.46.16.7.33.81s.13.61,0,.74-.37.58-.49.75a4.72,4.72,0,0,0-.25,1.12Z" transform="translate(-5015.76 -1112.96)"/><path class="cls-22" d="M5114,1172.25s.67-.06.59.18-.08.91-.29,1-.3.35-.55.47a.69.69,0,0,1-.54,0l-.29-.78s-.13-.34,0-.38S5114,1172.25,5114,1172.25Z" transform="translate(-5015.76 -1112.96)"/></g><path class="cls-23" d="M5059.71,1220c.38-.1,8.3-.78,9.8,5.18l-2.12,0,0,12.62a5,5,0,0,1-2.3,4l-20.12,14.5c-1.27.73-4.15-1.67-4.15-3.14l0-12.61c0-7.12,7.23-13.72,7.62-14.07a8.1,8.1,0,0,0,5.65-1.24A19.05,19.05,0,0,0,5059.71,1220Z" transform="translate(-5015.76 -1112.96)"/><path class="cls-24" d="M5054,1206.22c2.69-1.47,7.48-.68,8.63,3.22s-5.08,13.94-9,14.39a5.91,5.91,0,0,1-6.23-6.14A14.62,14.62,0,0,1,5054,1206.22Z" transform="translate(-5015.76 -1112.96)"/><path class="cls-25" d="M5062,1221.64c.38-.09,7.52-1.84,7.67,5v.19l0,12.61a5,5,0,0,1-2.3,4l-22,12.68c-1.27.73-2.31.14-2.31-1.32l0-12.62c0-7.12,7.24-13.71,7.62-14.06a8.09,8.09,0,0,0,5.65-1.24A18.84,18.84,0,0,0,5062,1221.64Z" transform="translate(-5015.76 -1112.96)"/><path class="cls-26" d="M5056.31,1207.83c3.68-2.12,6.66-.42,6.67,3.8a14.61,14.61,0,0,1-6.62,11.47c-3.67,2.11-6.65.41-6.67-3.8A14.6,14.6,0,0,1,5056.31,1207.83Z" transform="translate(-5015.76 -1112.96)"/><path class="cls-27" d="M5111.54,1250.63l-1.41,1A10.77,10.77,0,0,0,5107,1249c-6-3.48-15.77-3.48-21.77,0a12.34,12.34,0,0,0-2,1.46l-2.45.18v4.67h0c0,2.28,1.53,4.56,4.55,6.3,6,3.48,15.77,3.48,21.76,0,3.11-1.8,4.58-4.19,4.45-6.55l0,0Zm-23.12.21a17,17,0,0,1,15.39,0,6.16,6.16,0,0,1,3,3.38l-1.75,2.63-4.9,1.66-5.4.12-6.87-1.11-2.65-2.06C5085.19,1253.8,5086.23,1252.11,5088.42,1250.84Z" transform="translate(-5015.76 -1112.96)"/><polygon class="cls-28" points="68.67 134.38 73.56 131.59 81.24 130.38 88.08 132.34 92.37 135.19 91.93 140.85 88.08 143.96 78.46 145.94 70.76 143.47 67.95 138.64 68.67 134.38"/><path class="cls-29" d="M5085.76,1253.41c-.13-.16,2.91-4.57,10.3-4.42,8.42.18,10.47,4.09,10.79,5.23l-7.32,4-11.37-1.86S5086.35,1254.16,5085.76,1253.41Z" transform="translate(-5015.76 -1112.96)"/><path class="cls-30" d="M5107,1244.55c6,3.48,6.07,9.13.07,12.61s-15.73,3.48-21.76,0-6.07-9.13-.08-12.61S5101,1241.07,5107,1244.55Zm-18.52,10.76c4.27,2.46,11.16,2.46,15.39,0s4.22-6.45,0-8.91a17,17,0,0,0-15.39,0c-4.23,2.46-4.21,6.45.05,8.91" transform="translate(-5015.76 -1112.96)"/><path class="cls-31" d="M5065.36,1202l17.83,44,2.07,5.11h0c.12,1.52,1.17,3,3.18,4.19,4.27,2.46,11.16,2.46,15.39,0,2-1.16,3.07-2.64,3.16-4.11h0l2.57-4.65,25-44.58Z" transform="translate(-5015.76 -1112.96)"/><path class="cls-32" d="M5065.36,1202l17.83,44,2.07,5.11h0c.12,1.52,1.17,3,3.18,4.19,4.27,2.46,11.16,2.46,15.39,0,2-1.16,3.07-2.64,3.16-4.11h0l2.57-4.65,25-44.58Z" transform="translate(-5015.76 -1112.96)"/><g class="cls-33"><path class="cls-34" d="M5051.73,1172c4.21-2.13,8.28-1.54,11.11,1.06,5.24,4.82-3.86,23.55-10.11,27.16-3.27,1.89-6.28.68-8.67-1a9.19,9.19,0,0,1-3.59-7.67C5040.44,1184.39,5045.49,1175.65,5051.73,1172Z" transform="translate(-5015.76 -1112.96)"/><g class="cls-35"><path class="cls-36" d="M5048.9,1203a.41.41,0,0,1-.19,0l-17.38-9.47a.4.4,0,0,1-.16-.55.41.41,0,0,1,.54-.16l17.38,9.47a.42.42,0,0,1,.16.55A.4.4,0,0,1,5048.9,1203Z" transform="translate(-5015.76 -1112.96)"/><path class="cls-37" d="M5049.8,1201.1a.41.41,0,0,1-.19,0l-17.27-9.41a.4.4,0,1,1,.39-.7l17.26,9.41a.41.41,0,0,1,.16.54A.42.42,0,0,1,5049.8,1201.1Z" transform="translate(-5015.76 -1112.96)"/><path class="cls-38" d="M5050.7,1199.23a.37.37,0,0,1-.2,0l-17.14-9.34a.4.4,0,1,1,.38-.7l17.15,9.34a.41.41,0,0,1,.16.54A.4.4,0,0,1,5050.7,1199.23Z" transform="translate(-5015.76 -1112.96)"/><path class="cls-39" d="M5051.6,1197.36a.48.48,0,0,1-.2,0l-17-9.28a.4.4,0,0,1-.16-.55.41.41,0,0,1,.54-.16l17,9.28a.42.42,0,0,1,.16.55A.41.41,0,0,1,5051.6,1197.36Z" transform="translate(-5015.76 -1112.96)"/><path class="cls-40" d="M5052.5,1195.5a.46.46,0,0,1-.2,0l-16.91-9.22a.4.4,0,1,1,.39-.7l16.91,9.22a.4.4,0,0,1,.16.54A.42.42,0,0,1,5052.5,1195.5Z" transform="translate(-5015.76 -1112.96)"/><path class="cls-41" d="M5053.4,1193.63a.46.46,0,0,1-.2-.05l-16.79-9.15a.4.4,0,1,1,.38-.7l16.8,9.15a.41.41,0,0,1,.16.54A.42.42,0,0,1,5053.4,1193.63Z" transform="translate(-5015.76 -1112.96)"/><path class="cls-42" d="M5054.29,1191.76a.34.34,0,0,1-.19,0l-16.67-9.08a.4.4,0,0,1-.16-.55.41.41,0,0,1,.54-.16l16.68,9.09a.41.41,0,0,1,.16.54A.4.4,0,0,1,5054.29,1191.76Z" transform="translate(-5015.76 -1112.96)"/><path class="cls-43" d="M5055.19,1189.9a.45.45,0,0,1-.19-.05l-16.56-9a.41.41,0,0,1-.16-.54.39.39,0,0,1,.54-.16l16.57,9a.41.41,0,0,1-.2.76Z" transform="translate(-5015.76 -1112.96)"/><path class="cls-44" d="M5056.09,1188a.45.45,0,0,1-.19,0l-16.44-9a.4.4,0,1,1,.38-.7l16.44,9a.39.39,0,0,1,.16.54A.4.4,0,0,1,5056.09,1188Z" transform="translate(-5015.76 -1112.96)"/><path class="cls-45" d="M5057,1186.16a.34.34,0,0,1-.19-.05l-16.32-8.89a.4.4,0,0,1-.16-.55.41.41,0,0,1,.54-.16l16.32,8.9a.39.39,0,0,1,.16.54A.38.38,0,0,1,5057,1186.16Z" transform="translate(-5015.76 -1112.96)"/><path class="cls-46" d="M5057.89,1184.29a.43.43,0,0,1-.19,0l-16.21-8.84a.41.41,0,0,1-.16-.54.39.39,0,0,1,.54-.16l16.21,8.83a.4.4,0,0,1,.16.55A.39.39,0,0,1,5057.89,1184.29Z" transform="translate(-5015.76 -1112.96)"/><path class="cls-47" d="M5058.79,1182.43a.45.45,0,0,1-.19,0l-16.09-8.77a.4.4,0,1,1,.38-.7l16.09,8.77a.39.39,0,0,1,.16.54A.4.4,0,0,1,5058.79,1182.43Z" transform="translate(-5015.76 -1112.96)"/><path class="cls-48" d="M5059.69,1180.56a.45.45,0,0,1-.19,0l-16-8.7a.41.41,0,0,1-.17-.55.42.42,0,0,1,.55-.16l16,8.71a.39.39,0,0,1,.16.54A.4.4,0,0,1,5059.69,1180.56Z" transform="translate(-5015.76 -1112.96)"/><path class="cls-49" d="M5060.59,1178.69a.34.34,0,0,1-.19,0l-15.86-8.64a.41.41,0,0,1-.16-.54.39.39,0,0,1,.54-.16l15.86,8.64a.39.39,0,0,1,.16.54A.38.38,0,0,1,5060.59,1178.69Z" transform="translate(-5015.76 -1112.96)"/><path class="cls-50" d="M5061.49,1176.83a.41.41,0,0,1-.19,0l-15.74-8.58a.4.4,0,1,1,.38-.7l15.74,8.57a.4.4,0,0,1,.16.55A.4.4,0,0,1,5061.49,1176.83Z" transform="translate(-5015.76 -1112.96)"/><path class="cls-51" d="M5062.39,1175a.41.41,0,0,1-.19,0l-15.63-8.51a.41.41,0,0,1,.39-.71l15.62,8.52a.39.39,0,0,1,.16.54A.4.4,0,0,1,5062.39,1175Z" transform="translate(-5015.76 -1112.96)"/><path class="cls-52" d="M5063.29,1173.09a.32.32,0,0,1-.19,0l-15.51-8.45a.41.41,0,0,1-.16-.54.39.39,0,0,1,.54-.16l15.51,8.45a.39.39,0,0,1,.16.54A.38.38,0,0,1,5063.29,1173.09Z" transform="translate(-5015.76 -1112.96)"/></g></g><ellipse class="cls-53" cx="5054.51" cy="1186.7" rx="15.93" ry="9.23" transform="translate(-3526.93 3847.62) rotate(-59.84)"/><g class="cls-54"><path class="cls-55" d="M5055.08,1181.69a.29.29,0,0,1,.21-.06c.2,0,.27.27.16.58a3.68,3.68,0,0,0-.25,1.29v2.24l1.92-1.15a3.41,3.41,0,0,0,.92-.84.89.89,0,0,1,.2-.19c.14-.08.29-.08.36,0a.73.73,0,0,1-.15.77,5.35,5.35,0,0,1-1.32,1.22l0,0-1.88,1.13v2.32a5.29,5.29,0,0,1-.36,1.81,1,1,0,0,1-.36.46.29.29,0,0,1-.21.06c-.2,0-.27-.28-.15-.59a3.66,3.66,0,0,0,.25-1.25v-2.31l-1.46.89-.4.24-.05,0a3.57,3.57,0,0,0-.91.84.72.72,0,0,1-.21.19.25.25,0,0,1-.36,0,.77.77,0,0,1,.15-.78,6.48,6.48,0,0,1,1-1l.4-.27,1.86-1.12v-2.67l0,0a5.6,5.6,0,0,1,.33-1.39A.89.89,0,0,1,5055.08,1181.69Z" transform="translate(-5015.76 -1112.96)"/><path class="cls-55" d="M5058.77,1177.21l.56.33-.66,1.19a1.51,1.51,0,0,1,.35.14,1.84,1.84,0,0,1,.22.17l.65-1.16.56.33-.8,1.45a4.27,4.27,0,0,1-.15,2.81.9.9,0,0,1-.37.47.27.27,0,0,1-.2.06c-.2,0-.28-.26-.17-.57.4-1.12.27-2.15-.33-2.5a1.31,1.31,0,0,0-1.34.15,3.35,3.35,0,0,0-.9.81,1,1,0,0,1-.2.18c-.15.09-.29.08-.37,0a.76.76,0,0,1,.16-.77,5,5,0,0,1,1.3-1.17,2.6,2.6,0,0,1,.84-.35Z" transform="translate(-5015.76 -1112.96)"/><path class="cls-55" d="M5054.84,1175.81c5-3,9.16-.59,9.17,5.43s-4.07,13.39-9.11,16.41-9.15.59-9.16-5.43S5049.81,1178.84,5054.84,1175.81Zm.06,20.84c4.58-2.75,8.29-9.43,8.28-14.9s-3.75-7.69-8.33-4.94-8.29,9.44-8.28,14.91,3.75,7.68,8.33,4.93" transform="translate(-5015.76 -1112.96)"/></g><path class="cls-55" d="M5050.46,1190a.36.36,0,0,1,.2-.06c.2,0,.27.27.16.58-.4,1.12-.26,2.15.33,2.5a1.33,1.33,0,0,0,1.35-.14,3.65,3.65,0,0,0,.91-.83.67.67,0,0,1,.2-.18c.14-.09.29-.08.36,0a.76.76,0,0,1-.16.77,5,5,0,0,1-1.31,1.19,2.68,2.68,0,0,1-1,.37l-.87,1.56-.56-.34.71-1.27a1.19,1.19,0,0,1-.26-.11,1.37,1.37,0,0,1-.29-.24l-.72,1.29-.56-.34.9-1.63a4.4,4.4,0,0,1,.2-2.68A1,1,0,0,1,5050.46,1190Z" transform="translate(-5015.76 -1112.96)"/><g class="cls-56"><path class="cls-57" d="M5140.54,1121.17c4.21-2.14,8.28-1.55,11.11,1.06,5.23,4.81-3.87,23.55-10.11,27.15-3.28,1.89-6.28.68-8.67-1a9.23,9.23,0,0,1-3.6-7.68C5129.25,1133.51,5134.3,1124.77,5140.54,1121.17Z" transform="translate(-5015.76 -1112.96)"/><g class="cls-35"><path class="cls-58" d="M5137.7,1152.09a.45.45,0,0,1-.19,0l-17.38-9.47a.41.41,0,0,1-.16-.54.4.4,0,0,1,.55-.16l17.38,9.47a.41.41,0,0,1,.16.54A.42.42,0,0,1,5137.7,1152.09Z" transform="translate(-5015.76 -1112.96)"/><path class="cls-59" d="M5138.6,1150.22a.34.34,0,0,1-.19,0l-17.26-9.4a.4.4,0,0,1,.38-.71l17.27,9.41a.41.41,0,0,1,.16.54A.4.4,0,0,1,5138.6,1150.22Z" transform="translate(-5015.76 -1112.96)"/><path class="cls-60" d="M5139.5,1148.35a.43.43,0,0,1-.19,0l-17.14-9.35a.4.4,0,1,1,.38-.7l17.15,9.34a.42.42,0,0,1,.16.55A.41.41,0,0,1,5139.5,1148.35Z" transform="translate(-5015.76 -1112.96)"/><path class="cls-61" d="M5140.4,1146.49a.45.45,0,0,1-.19,0l-17-9.28a.41.41,0,0,1-.16-.54.4.4,0,0,1,.55-.16l17,9.28a.4.4,0,0,1,.16.54A.42.42,0,0,1,5140.4,1146.49Z" transform="translate(-5015.76 -1112.96)"/><path class="cls-62" d="M5141.3,1144.62a.45.45,0,0,1-.19,0l-16.91-9.21a.4.4,0,0,1,.38-.71l16.91,9.22a.4.4,0,0,1,.17.54A.42.42,0,0,1,5141.3,1144.62Z" transform="translate(-5015.76 -1112.96)"/><path class="cls-63" d="M5142.2,1142.75a.34.34,0,0,1-.19,0l-16.79-9.15a.4.4,0,1,1,.38-.7l16.79,9.15a.39.39,0,0,1,.16.54A.38.38,0,0,1,5142.2,1142.75Z" transform="translate(-5015.76 -1112.96)"/><path class="cls-64" d="M5143.1,1140.89a.45.45,0,0,1-.19-.05l-16.68-9.09a.41.41,0,0,1-.16-.54.4.4,0,0,1,.55-.16l16.67,9.08a.4.4,0,0,1,.16.55A.4.4,0,0,1,5143.1,1140.89Z" transform="translate(-5015.76 -1112.96)"/><path class="cls-65" d="M5144,1139a.45.45,0,0,1-.19,0l-16.56-9a.4.4,0,0,1,.38-.71l16.56,9a.39.39,0,0,1,.16.54A.4.4,0,0,1,5144,1139Z" transform="translate(-5015.76 -1112.96)"/><path class="cls-66" d="M5144.9,1137.15a.34.34,0,0,1-.19-.05l-16.44-9a.4.4,0,1,1,.38-.7l16.44,9a.39.39,0,0,1,.16.54A.38.38,0,0,1,5144.9,1137.15Z" transform="translate(-5015.76 -1112.96)"/><path class="cls-67" d="M5145.8,1135.28a.43.43,0,0,1-.19,0l-16.33-8.9a.41.41,0,0,1-.16-.54.4.4,0,0,1,.55-.16l16.32,8.89a.4.4,0,0,1,.16.55A.39.39,0,0,1,5145.8,1135.28Z" transform="translate(-5015.76 -1112.96)"/><path class="cls-68" d="M5146.7,1133.42a.41.41,0,0,1-.19-.05l-16.21-8.83a.4.4,0,0,1,.38-.71l16.21,8.84a.39.39,0,0,1,.16.54A.4.4,0,0,1,5146.7,1133.42Z" transform="translate(-5015.76 -1112.96)"/><path class="cls-69" d="M5147.6,1131.55a.41.41,0,0,1-.19,0l-16.09-8.77a.4.4,0,1,1,.38-.7l16.09,8.77a.39.39,0,0,1,.16.54A.4.4,0,0,1,5147.6,1131.55Z" transform="translate(-5015.76 -1112.96)"/><path class="cls-70" d="M5148.5,1129.68a.32.32,0,0,1-.19,0l-16-8.7a.41.41,0,0,1-.16-.54.4.4,0,0,1,.55-.16l16,8.7a.4.4,0,0,1,.16.54A.38.38,0,0,1,5148.5,1129.68Z" transform="translate(-5015.76 -1112.96)"/><path class="cls-71" d="M5149.4,1127.82a.41.41,0,0,1-.19,0l-15.86-8.65a.39.39,0,0,1-.16-.54.41.41,0,0,1,.54-.16l15.86,8.64a.41.41,0,0,1-.19.76Z" transform="translate(-5015.76 -1112.96)"/><path class="cls-72" d="M5150.3,1126a.41.41,0,0,1-.19,0l-15.74-8.58a.4.4,0,1,1,.38-.7l15.74,8.58a.4.4,0,0,1-.19.75Z" transform="translate(-5015.76 -1112.96)"/><path class="cls-73" d="M5151.2,1124.08a.32.32,0,0,1-.19,0l-15.63-8.51a.41.41,0,0,1-.16-.54.4.4,0,0,1,.55-.16l15.62,8.51a.4.4,0,0,1,.16.54A.38.38,0,0,1,5151.2,1124.08Z" transform="translate(-5015.76 -1112.96)"/><path class="cls-74" d="M5152.1,1122.21a.32.32,0,0,1-.19,0l-15.51-8.45a.39.39,0,0,1-.16-.54.41.41,0,0,1,.54-.16l15.51,8.45a.42.42,0,0,1,.16.55A.39.39,0,0,1,5152.1,1122.21Z" transform="translate(-5015.76 -1112.96)"/></g></g><ellipse class="cls-75" cx="5143.32" cy="1135.82" rx="15.93" ry="9.23" transform="translate(-3438.76 3899.09) rotate(-59.84)"/><g class="cls-54"><path class="cls-55" d="M5143.89,1130.81a.33.33,0,0,1,.2-.06c.2,0,.28.28.16.58a3.94,3.94,0,0,0-.24,1.29v2.25l1.92-1.16a3.38,3.38,0,0,0,.91-.84.84.84,0,0,1,.21-.18.25.25,0,0,1,.36,0,.74.74,0,0,1-.16.78,5,5,0,0,1-1.32,1.21l0,0-1.89,1.13v2.32a5.54,5.54,0,0,1-.36,1.81,1,1,0,0,1-.36.47.45.45,0,0,1-.21.06c-.2,0-.27-.29-.15-.6a3.86,3.86,0,0,0,.25-1.25v-2.31l-1.46.89-.4.24,0,0a3.11,3.11,0,0,0-.91.84.84.84,0,0,1-.21.18c-.14.09-.29.09-.36,0a.73.73,0,0,1,.15-.77,5.34,5.34,0,0,1,1-1l.4-.28,1.86-1.11v-2.68l0,0a5.19,5.19,0,0,1,.33-1.39A.88.88,0,0,1,5143.89,1130.81Z" transform="translate(-5015.76 -1112.96)"/><path class="cls-55" d="M5147.57,1126.33l.57.33-.66,1.19a1.19,1.19,0,0,1,.35.15,1.12,1.12,0,0,1,.22.16l.65-1.16.56.33-.81,1.45a4.14,4.14,0,0,1-.15,2.81.9.9,0,0,1-.36.48.41.41,0,0,1-.2.06c-.2,0-.28-.27-.17-.58.4-1.12.27-2.14-.33-2.49a1.33,1.33,0,0,0-1.35.14,3.74,3.74,0,0,0-.9.82.79.79,0,0,1-.19.18c-.15.09-.3.08-.37,0a.77.77,0,0,1,.16-.78,5,5,0,0,1,1.3-1.17,2.84,2.84,0,0,1,.84-.35Z" transform="translate(-5015.76 -1112.96)"/><path class="cls-55" d="M5143.65,1124.93c5-3,9.15-.58,9.17,5.44s-4.07,13.38-9.11,16.41-9.15.58-9.17-5.44S5138.61,1128,5143.65,1124.93Zm.06,20.85c4.58-2.75,8.29-9.44,8.27-14.91s-3.75-7.69-8.33-4.94-8.29,9.44-8.27,14.91,3.75,7.69,8.33,4.94" transform="translate(-5015.76 -1112.96)"/></g><path class="cls-55" d="M5139.26,1139.15a.31.31,0,0,1,.2-.05c.21,0,.28.27.17.57-.4,1.12-.27,2.15.33,2.51a1.34,1.34,0,0,0,1.34-.15,3.33,3.33,0,0,0,.91-.83,1,1,0,0,1,.2-.18c.15-.09.29-.08.37,0a.78.78,0,0,1-.16.78,5.08,5.08,0,0,1-1.31,1.18,2.75,2.75,0,0,1-1,.37l-.87,1.56-.56-.34.7-1.27a.91.91,0,0,1-.25-.11,1.13,1.13,0,0,1-.29-.24l-.72,1.29-.56-.33.9-1.63a4.36,4.36,0,0,1,.2-2.69A1,1,0,0,1,5139.26,1139.15Z" transform="translate(-5015.76 -1112.96)"/><line class="cls-76" x1="111.03" y1="159.31" x2="156.6" y2="133"/><polyline class="cls-77" points="91.86 148.3 122.38 165.93 122.38 170.32"/><polyline class="cls-78" points="57.8 154.95 38.68 165.96 38.75 170.32"/><g class="cls-79"><path class="cls-80" d="M5055.88,1129.66c6,3.46,10.82,11.85,10.82,18.74,0,4.72-4,8.65-7.54,9.15-1.41.2-1.67-2-3.35-2.94-6-3.46-10.84-11.86-10.82-18.75,0-2.15-2-3-1-4.15A9,9,0,0,1,5055.88,1129.66Z" transform="translate(-5015.76 -1112.96)"/><g class="cls-81"><path class="cls-82" d="M5037.62,1134.64a.4.4,0,0,1-.36-.21.41.41,0,0,1,.15-.56l19.75-11.4a.41.41,0,0,1,.41.71l-19.75,11.4A.36.36,0,0,1,5037.62,1134.64Z" transform="translate(-5015.76 -1112.96)"/><path class="cls-83" d="M5038.76,1136.27a.42.42,0,0,1-.36-.2.42.42,0,0,1,.15-.56l19.75-11.41a.42.42,0,0,1,.56.15.4.4,0,0,1-.15.56L5039,1136.22A.46.46,0,0,1,5038.76,1136.27Z" transform="translate(-5015.76 -1112.96)"/><path class="cls-84" d="M5039.9,1137.91a.4.4,0,0,1-.35-.21.4.4,0,0,1,.15-.56l19.74-11.4a.41.41,0,0,1,.57.15.42.42,0,0,1-.15.56l-19.75,11.4A.42.42,0,0,1,5039.9,1137.91Z" transform="translate(-5015.76 -1112.96)"/><path class="cls-85" d="M5041,1139.54a.39.39,0,0,1-.35-.2.42.42,0,0,1,.15-.57l19.75-11.4a.41.41,0,0,1,.56.15.41.41,0,0,1-.15.56l-19.75,11.41A.46.46,0,0,1,5041,1139.54Z" transform="translate(-5015.76 -1112.96)"/><path class="cls-86" d="M5042.19,1141.17a.42.42,0,0,1-.36-.2.42.42,0,0,1,.15-.56l19.75-11.4a.4.4,0,0,1,.56.15.41.41,0,0,1-.15.56l-19.75,11.4A.35.35,0,0,1,5042.19,1141.17Z" transform="translate(-5015.76 -1112.96)"/><path class="cls-87" d="M5043.33,1142.81a.43.43,0,0,1-.36-.21.42.42,0,0,1,.16-.56l19.74-11.4a.41.41,0,0,1,.56.15.4.4,0,0,1-.15.56l-19.74,11.4A.42.42,0,0,1,5043.33,1142.81Z" transform="translate(-5015.76 -1112.96)"/><path class="cls-88" d="M5044.47,1144.44a.39.39,0,0,1-.35-.2.4.4,0,0,1,.15-.56l19.75-11.41a.41.41,0,1,1,.41.71l-19.75,11.41A.54.54,0,0,1,5044.47,1144.44Z" transform="translate(-5015.76 -1112.96)"/><path class="cls-89" d="M5045.62,1146.08a.43.43,0,0,1-.36-.21.41.41,0,0,1,.15-.56l19.75-11.4a.4.4,0,0,1,.56.15.41.41,0,0,1-.15.56l-19.75,11.4A.36.36,0,0,1,5045.62,1146.08Z" transform="translate(-5015.76 -1112.96)"/><path class="cls-90" d="M5046.76,1147.71a.41.41,0,0,1-.36-.21.42.42,0,0,1,.15-.56l19.75-11.4a.41.41,0,0,1,.56.15.4.4,0,0,1-.15.56l-19.74,11.4A.42.42,0,0,1,5046.76,1147.71Z" transform="translate(-5015.76 -1112.96)"/><path class="cls-91" d="M5047.9,1149.34a.39.39,0,0,1-.35-.2.4.4,0,0,1,.15-.56l19.75-11.41a.42.42,0,0,1,.56.15.43.43,0,0,1-.15.57l-19.75,11.4A.41.41,0,0,1,5047.9,1149.34Z" transform="translate(-5015.76 -1112.96)"/><path class="cls-92" d="M5049.05,1151a.42.42,0,0,1-.36-.21.41.41,0,0,1,.15-.56l19.75-11.4a.41.41,0,1,1,.41.71l-19.75,11.4A.36.36,0,0,1,5049.05,1151Z" transform="translate(-5015.76 -1112.96)"/><path class="cls-93" d="M5050.19,1152.61a.42.42,0,0,1-.36-.2.43.43,0,0,1,.15-.57l19.75-11.4a.42.42,0,0,1,.56.15.4.4,0,0,1-.15.56l-19.74,11.41A.54.54,0,0,1,5050.19,1152.61Z" transform="translate(-5015.76 -1112.96)"/><path class="cls-94" d="M5051.33,1154.25a.4.4,0,0,1-.35-.21.4.4,0,0,1,.15-.56l19.74-11.4a.41.41,0,0,1,.57.15.42.42,0,0,1-.15.56l-19.75,11.4A.42.42,0,0,1,5051.33,1154.25Z" transform="translate(-5015.76 -1112.96)"/><path class="cls-95" d="M5052.48,1155.88a.4.4,0,0,1-.36-.21.41.41,0,0,1,.15-.56l19.75-11.4a.41.41,0,0,1,.41.71l-19.75,11.4A.36.36,0,0,1,5052.48,1155.88Z" transform="translate(-5015.76 -1112.96)"/><path class="cls-96" d="M5053.62,1157.51a.42.42,0,0,1-.36-.2.42.42,0,0,1,.15-.56l19.75-11.41a.41.41,0,0,1,.41.72l-19.75,11.4A.35.35,0,0,1,5053.62,1157.51Z" transform="translate(-5015.76 -1112.96)"/><path class="cls-97" d="M5054.76,1159.15a.41.41,0,0,1-.2-.77l19.74-11.4a.41.41,0,0,1,.57.15.42.42,0,0,1-.15.56l-19.75,11.4A.42.42,0,0,1,5054.76,1159.15Z" transform="translate(-5015.76 -1112.96)"/><path class="cls-98" d="M5055.91,1160.78a.41.41,0,0,1-.36-.2.42.42,0,0,1,.15-.57l19.75-11.4a.42.42,0,0,1,.56.15.41.41,0,0,1-.15.56l-19.75,11.41A.46.46,0,0,1,5055.91,1160.78Z" transform="translate(-5015.76 -1112.96)"/></g></g><path class="cls-99" d="M5053.14,1131.23c6,3.46,10.84,11.86,10.82,18.74s-4.9,9.67-10.89,6.21-10.84-11.85-10.82-18.74S5047.14,1127.77,5053.14,1131.23Z" transform="translate(-5015.76 -1112.96)"/><path class="cls-55" d="M5056.82,1139.31l.53.92-.63.36c.12.16.23.33.34.51l.2.4.62-.35.53.91-.77.44a3,3,0,0,1-.16,2.38c-.07.11-.2.12-.34,0a.75.75,0,0,1-.19-.17.69.69,0,0,1-.16-.7,2.72,2.72,0,0,0-.3-2.63,3.66,3.66,0,0,0-1.27-1.34,1.67,1.67,0,0,0-.85-.24.45.45,0,0,1-.19,0,.93.93,0,0,1-.35-.44c-.1-.28,0-.52.16-.52a2.21,2.21,0,0,1,1.23.35,4.21,4.21,0,0,1,.8.59Z" transform="translate(-5015.76 -1112.96)"/><path class="cls-55" d="M5053.32,1139.35a.67.67,0,0,1,.2.18.65.65,0,0,1,.14.7,1.62,1.62,0,0,0-.23.9v2l1.81,1a1.58,1.58,0,0,0,.87.23.35.35,0,0,1,.19.06.86.86,0,0,1,.35.43c.1.28,0,.51-.15.53a2.33,2.33,0,0,1-1.26-.34l0,0-1.79-1v2.11a2.17,2.17,0,0,1-.35,1.24c-.08.11-.21.11-.35,0a1,1,0,0,1-.19-.17.67.67,0,0,1-.14-.71,1.56,1.56,0,0,0,.24-.86v-2.1l-1.39-.79-.38-.22,0,0a1.52,1.52,0,0,0-.87-.23.41.41,0,0,1-.2-.06.89.89,0,0,1-.34-.43c-.11-.28,0-.51.15-.53a2,2,0,0,1,.93.18l.38.19,1.76,1v-2.43h0a1.93,1.93,0,0,1,.32-.91C5053.05,1139.28,5053.18,1139.27,5053.32,1139.35Z" transform="translate(-5015.76 -1112.96)"/><path class="cls-55" d="M5048.91,1141.88a.78.78,0,0,1,.35.87,2.69,2.69,0,0,0,.3,2.63,3.63,3.63,0,0,0,1.27,1.33,1.62,1.62,0,0,0,.86.25.36.36,0,0,1,.19,0,.86.86,0,0,1,.34.44c.11.28,0,.51-.15.52a2.24,2.24,0,0,1-1.24-.35,4.27,4.27,0,0,1-.92-.72l-.82.47-.53-.91.67-.39-.24-.37c-.1-.18-.19-.37-.27-.55l-.69.39-.53-.92.87-.49a2.9,2.9,0,0,1,.2-2.22C5048.64,1141.8,5048.77,1141.8,5048.91,1141.88Z" transform="translate(-5015.76 -1112.96)"/><path class="cls-55" d="M5053.13,1133.77c4.77,2.75,8.64,9.45,8.62,14.93s-3.91,7.7-8.68,5-8.63-9.46-8.62-14.94S5048.36,1131,5053.13,1133.77Zm-.05,19c4.33,2.5,7.87.49,7.88-4.5s-3.5-11.06-7.83-13.57-7.88-.48-7.89,4.5,3.5,11.07,7.84,13.57" transform="translate(-5015.76 -1112.96)"/></svg>