<svg id="Layer_1" data-name="Layer 1" xmlns="http://www.w3.org/2000/svg" xmlns:xlink="http://www.w3.org/1999/xlink" viewBox="0 0 168.05 209.53"><defs><style>.cls-1,.cls-173,.cls-5,.cls-58,.cls-59,.cls-6,.cls-60,.cls-61,.cls-7,.cls-8,.cls-9{fill:none;}.cls-100,.cls-103,.cls-110,.cls-113,.cls-118,.cls-121,.cls-128,.cls-131,.cls-136,.cls-139,.cls-146,.cls-2,.cls-24,.cls-77,.cls-82,.cls-85,.cls-92,.cls-95{opacity:0.3;}.cls-2{fill:url(#linear-gradient);}.cls-3{fill:url(#linear-gradient-2);}.cls-4{fill:url(#linear-gradient-3);}.cls-173,.cls-5,.cls-6,.cls-7,.cls-8,.cls-9{stroke-linecap:round;}.cls-173,.cls-5,.cls-58,.cls-59,.cls-6,.cls-60,.cls-61,.cls-7,.cls-8,.cls-9{stroke-miterlimit:10;}.cls-5{stroke:url(#linear-gradient-4);}.cls-6{stroke:url(#linear-gradient-5);}.cls-7{stroke:url(#linear-gradient-6);}.cls-8{stroke:url(#linear-gradient-7);}.cls-9{stroke:url(#linear-gradient-8);}.cls-10{fill:url(#linear-gradient-9);}.cls-11{fill:url(#linear-gradient-10);}.cls-12{fill:url(#linear-gradient-11);}.cls-13,.cls-170{opacity:0.5;}.cls-14{fill:#af5422;}.cls-15{fill:#432918;}.cls-16{fill:url(#linear-gradient-12);}.cls-17{fill:url(#linear-gradient-13);}.cls-18{fill:url(#linear-gradient-14);}.cls-19{fill:url(#linear-gradient-15);}.cls-20{fill:url(#linear-gradient-16);}.cls-21{fill:url(#linear-gradient-17);}.cls-22{clip-path:url(#clip-path);}.cls-165,.cls-23{opacity:0.7;}.cls-23,.cls-43{fill:url(#linear-gradient-18);}.cls-24,.cls-25{fill:#ffdcb6;}.cls-101,.cls-102,.cls-104,.cls-105,.cls-106,.cls-107,.cls-108,.cls-109,.cls-111,.cls-112,.cls-114,.cls-115,.cls-116,.cls-117,.cls-119,.cls-120,.cls-122,.cls-123,.cls-124,.cls-125,.cls-126,.cls-127,.cls-129,.cls-130,.cls-132,.cls-133,.cls-134,.cls-135,.cls-137,.cls-138,.cls-140,.cls-141,.cls-142,.cls-143,.cls-144,.cls-145,.cls-147,.cls-148,.cls-25,.cls-43,.cls-78,.cls-79,.cls-80,.cls-81,.cls-83,.cls-84,.cls-86,.cls-87,.cls-88,.cls-89,.cls-90,.cls-91,.cls-93,.cls-94,.cls-96,.cls-97,.cls-98,.cls-99{opacity:0.2;}.cls-149,.cls-150,.cls-153,.cls-154,.cls-157,.cls-158,.cls-161,.cls-162,.cls-26,.cls-27,.cls-28,.cls-31,.cls-32,.cls-35,.cls-36,.cls-39,.cls-40{opacity:0.9;}.cls-26{fill:url(#linear-gradient-19);}.cls-27{fill:url(#linear-gradient-20);}.cls-29{fill:url(#linear-gradient-21);}.cls-30{fill:url(#linear-gradient-22);}.cls-31{fill:url(#linear-gradient-23);}.cls-32{fill:url(#linear-gradient-24);}.cls-33{fill:url(#linear-gradient-25);}.cls-34{fill:url(#linear-gradient-26);}.cls-35{fill:url(#linear-gradient-27);}.cls-36{fill:url(#linear-gradient-28);}.cls-37{fill:url(#linear-gradient-29);}.cls-38{fill:url(#linear-gradient-30);}.cls-39{fill:url(#linear-gradient-31);}.cls-40{fill:url(#linear-gradient-32);}.cls-41{fill:url(#linear-gradient-33);}.cls-42{fill:url(#linear-gradient-34);}.cls-44{fill:url(#linear-gradient-36);}.cls-45{fill:url(#linear-gradient-37);}.cls-46{fill:url(#linear-gradient-38);}.cls-47{fill:url(#linear-gradient-39);}.cls-48{fill:url(#linear-gradient-40);}.cls-49{fill:url(#linear-gradient-41);}.cls-50{fill:url(#linear-gradient-42);}.cls-51{fill:url(#linear-gradient-43);}.cls-52{fill:url(#linear-gradient-44);}.cls-53{fill:url(#linear-gradient-45);}.cls-54{fill:url(#linear-gradient-46);}.cls-55{fill:url(#linear-gradient-47);}.cls-56{clip-path:url(#clip-path-2);}.cls-57{fill:url(#linear-gradient-48);}.cls-58{stroke:url(#linear-gradient-49);}.cls-59{stroke:url(#linear-gradient-50);}.cls-60{stroke:url(#linear-gradient-51);}.cls-61{stroke:url(#linear-gradient-52);}.cls-62{fill:url(#linear-gradient-53);}.cls-63{fill:url(#linear-gradient-54);}.cls-64{fill:url(#linear-gradient-55);}.cls-65{fill:url(#linear-gradient-56);}.cls-66{fill:url(#linear-gradient-57);}.cls-67{opacity:0.4;fill:url(#linear-gradient-58);}.cls-68{fill:url(#linear-gradient-59);}.cls-69{fill:url(#linear-gradient-60);}.cls-70{fill:url(#linear-gradient-61);}.cls-71{fill:url(#linear-gradient-62);}.cls-72{fill:url(#linear-gradient-63);}.cls-73{fill:url(#linear-gradient-64);}.cls-74{fill:url(#linear-gradient-65);}.cls-75{fill:url(#linear-gradient-66);}.cls-76{clip-path:url(#clip-path-3);}.cls-77{fill:url(#linear-gradient-67);}.cls-78{fill:url(#linear-gradient-68);}.cls-79{fill:url(#linear-gradient-69);}.cls-80{fill:url(#linear-gradient-70);}.cls-81{fill:url(#linear-gradient-71);}.cls-82{fill:url(#linear-gradient-72);}.cls-83{fill:url(#linear-gradient-73);}.cls-84{fill:url(#linear-gradient-74);}.cls-85{fill:url(#linear-gradient-75);}.cls-86{fill:url(#linear-gradient-76);}.cls-87{fill:url(#linear-gradient-77);}.cls-88{fill:url(#linear-gradient-78);}.cls-89{fill:url(#linear-gradient-79);}.cls-90{fill:url(#linear-gradient-80);}.cls-91{fill:url(#linear-gradient-81);}.cls-92{fill:url(#linear-gradient-82);}.cls-93{fill:url(#linear-gradient-83);}.cls-94{fill:url(#linear-gradient-84);}.cls-95{fill:url(#linear-gradient-85);}.cls-96{fill:url(#linear-gradient-86);}.cls-97{fill:url(#linear-gradient-87);}.cls-98{fill:url(#linear-gradient-88);}.cls-99{fill:url(#linear-gradient-89);}.cls-100{fill:url(#linear-gradient-90);}.cls-101{fill:url(#linear-gradient-91);}.cls-102{fill:url(#linear-gradient-92);}.cls-103{fill:url(#linear-gradient-93);}.cls-104{fill:url(#linear-gradient-94);}.cls-105{fill:url(#linear-gradient-95);}.cls-106{fill:url(#linear-gradient-96);}.cls-107{fill:url(#linear-gradient-97);}.cls-108{fill:url(#linear-gradient-98);}.cls-109{fill:url(#linear-gradient-99);}.cls-110{fill:url(#linear-gradient-100);}.cls-111{fill:url(#linear-gradient-101);}.cls-112{fill:url(#linear-gradient-102);}.cls-113{fill:url(#linear-gradient-103);}.cls-114{fill:url(#linear-gradient-104);}.cls-115{fill:url(#linear-gradient-105);}.cls-116{fill:url(#linear-gradient-106);}.cls-117{fill:url(#linear-gradient-107);}.cls-118{fill:url(#linear-gradient-108);}.cls-119{fill:url(#linear-gradient-109);}.cls-120{fill:url(#linear-gradient-110);}.cls-121{fill:url(#linear-gradient-111);}.cls-122{fill:url(#linear-gradient-112);}.cls-123{fill:url(#linear-gradient-113);}.cls-124{fill:url(#linear-gradient-114);}.cls-125{fill:url(#linear-gradient-115);}.cls-126{fill:url(#linear-gradient-116);}.cls-127{fill:url(#linear-gradient-117);}.cls-128{fill:url(#linear-gradient-118);}.cls-129{fill:url(#linear-gradient-119);}.cls-130{fill:url(#linear-gradient-120);}.cls-131{fill:url(#linear-gradient-121);}.cls-132{fill:url(#linear-gradient-122);}.cls-133{fill:url(#linear-gradient-123);}.cls-134{fill:url(#linear-gradient-124);}.cls-135{fill:url(#linear-gradient-125);}.cls-136{fill:url(#linear-gradient-126);}.cls-137{fill:url(#linear-gradient-127);}.cls-138{fill:url(#linear-gradient-128);}.cls-139{fill:url(#linear-gradient-129);}.cls-140{fill:url(#linear-gradient-130);}.cls-141{fill:url(#linear-gradient-131);}.cls-142{fill:url(#linear-gradient-132);}.cls-143{fill:url(#linear-gradient-133);}.cls-144{fill:url(#linear-gradient-134);}.cls-145{fill:url(#linear-gradient-135);}.cls-146{fill:url(#linear-gradient-136);}.cls-147{fill:url(#linear-gradient-137);}.cls-148{fill:url(#linear-gradient-138);}.cls-149{fill:url(#linear-gradient-139);}.cls-150{fill:url(#linear-gradient-140);}.cls-151{fill:url(#linear-gradient-141);}.cls-152{fill:url(#linear-gradient-142);}.cls-153{fill:url(#linear-gradient-143);}.cls-154{fill:url(#linear-gradient-144);}.cls-155{fill:url(#linear-gradient-145);}.cls-156{fill:url(#linear-gradient-146);}.cls-157{fill:url(#linear-gradient-147);}.cls-158{fill:url(#linear-gradient-148);}.cls-159{fill:url(#linear-gradient-149);}.cls-160{fill:url(#linear-gradient-150);}.cls-161{fill:url(#linear-gradient-151);}.cls-162{fill:url(#linear-gradient-152);}.cls-163{fill:url(#linear-gradient-153);}.cls-164{fill:url(#linear-gradient-154);}.cls-165{fill:url(#linear-gradient-155);}.cls-166{fill:url(#linear-gradient-156);}.cls-167{fill:url(#linear-gradient-157);}.cls-168,.cls-170{fill:#f9f9f9;}.cls-169{fill:url(#linear-gradient-158);}.cls-171{fill:url(#linear-gradient-159);}.cls-172{fill:url(#linear-gradient-160);}.cls-173{stroke:url(#linear-gradient-161);}.cls-174{fill:#848484;}.cls-175{isolation:isolate;}.cls-176{fill:url(#linear-gradient-162);}</style><linearGradient id="linear-gradient" x1="4825.85" y1="1288.77" x2="4990.44" y2="1288.77" gradientUnits="userSpaceOnUse"><stop offset="0" stop-color="#c27201"/><stop offset="1" stop-color="#f2aa43"/></linearGradient><linearGradient id="linear-gradient-2" x1="4825.73" y1="1257.86" x2="4990.66" y2="1257.86" gradientUnits="userSpaceOnUse"><stop offset="0" stop-color="#222427"/><stop offset="1" stop-color="#392b1a"/></linearGradient><linearGradient id="linear-gradient-3" x1="4825.85" y1="1253.48" x2="4990.44" y2="1253.48" gradientUnits="userSpaceOnUse"><stop offset="0" stop-color="#505255"/><stop offset="1" stop-color="#70665a"/></linearGradient><linearGradient id="linear-gradient-4" x1="21.81" y1="138.27" x2="76.53" y2="138.27" xlink:href="#linear-gradient"/><linearGradient id="linear-gradient-5" x1="79.33" y1="166.8" x2="95.54" y2="166.8" xlink:href="#linear-gradient"/><linearGradient id="linear-gradient-6" x1="90.24" y1="99.85" x2="141.16" y2="99.85" xlink:href="#linear-gradient"/><linearGradient id="linear-gradient-7" x1="71.4" y1="144.85" x2="95.54" y2="144.85" xlink:href="#linear-gradient"/><linearGradient id="linear-gradient-8" x1="67.93" y1="148.14" x2="141.15" y2="148.14" xlink:href="#linear-gradient"/><linearGradient id="linear-gradient-9" x1="4932.85" y1="1218.52" x2="4943.11" y2="1218.52" gradientUnits="userSpaceOnUse"><stop offset="0" stop-color="#2d2f33"/><stop offset="1" stop-color="#4f4334"/></linearGradient><linearGradient id="linear-gradient-10" x1="4931.16" y1="1205.13" x2="4948.07" y2="1205.13" gradientUnits="userSpaceOnUse"><stop offset="0" stop-color="#f2aa43"/><stop offset="1" stop-color="#fcc659"/></linearGradient><linearGradient id="linear-gradient-11" x1="4929.04" y1="1206.48" x2="4944.25" y2="1206.48" xlink:href="#linear-gradient"/><linearGradient id="linear-gradient-12" x1="60.83" y1="124" x2="117.85" y2="124" xlink:href="#linear-gradient"/><linearGradient id="linear-gradient-13" x1="53.22" y1="138.27" x2="60.83" y2="138.27" xlink:href="#linear-gradient"/><linearGradient id="linear-gradient-14" x1="53.22" y1="117.41" x2="117.85" y2="117.41" xlink:href="#linear-gradient-10"/><linearGradient id="linear-gradient-15" x1="133.06" y1="122.9" x2="148.26" y2="122.9" xlink:href="#linear-gradient-9"/><linearGradient id="linear-gradient-16" x1="148.26" y1="122.72" x2="163.47" y2="122.72" xlink:href="#linear-gradient-9"/><linearGradient id="linear-gradient-17" x1="133.06" y1="116.31" x2="163.47" y2="116.31" xlink:href="#linear-gradient-9"/><clipPath id="clip-path" transform="translate(-4822.61 -1127.45)"><path class="cls-1" d="M4926.74,1218.32a11.89,11.89,0,0,0-5.29-9.32,3.71,3.71,0,0,0-3.76-.39h0l-.14.08-35,20.22,7.68,13.12,34.92-20.22h0A3.8,3.8,0,0,0,4926.74,1218.32Z"/></clipPath><linearGradient id="linear-gradient-18" x1="4882.56" y1="1225.14" x2="4926.74" y2="1225.14" gradientUnits="userSpaceOnUse"><stop offset="0" stop-color="#e8610f"/><stop offset="0" stop-color="#e96512"/><stop offset="1" stop-color="#fcc659"/></linearGradient><linearGradient id="linear-gradient-19" x1="4887.87" y1="1235.23" x2="4888.67" y2="1235.23" xlink:href="#linear-gradient-10"/><linearGradient id="linear-gradient-20" x1="4891.14" y1="1232.69" x2="4891.85" y2="1232.69" xlink:href="#linear-gradient-10"/><linearGradient id="linear-gradient-21" x1="4883.72" y1="1235.9" x2="4884.43" y2="1235.9" xlink:href="#linear-gradient-10"/><linearGradient id="linear-gradient-22" x1="4885.92" y1="1235.74" x2="4886.43" y2="1235.74" xlink:href="#linear-gradient-10"/><linearGradient id="linear-gradient-23" x1="4891.79" y1="1232.94" x2="4892.59" y2="1232.94" xlink:href="#linear-gradient-10"/><linearGradient id="linear-gradient-24" x1="4895.07" y1="1230.4" x2="4895.78" y2="1230.4" xlink:href="#linear-gradient-10"/><linearGradient id="linear-gradient-25" x1="4887.64" y1="1233.61" x2="4888.35" y2="1233.61" xlink:href="#linear-gradient-10"/><linearGradient id="linear-gradient-26" x1="4889.85" y1="1233.46" x2="4890.35" y2="1233.46" xlink:href="#linear-gradient-10"/><linearGradient id="linear-gradient-27" x1="4895.72" y1="1230.65" x2="4896.52" y2="1230.65" xlink:href="#linear-gradient-10"/><linearGradient id="linear-gradient-28" x1="4898.99" y1="1228.11" x2="4899.7" y2="1228.11" xlink:href="#linear-gradient-10"/><linearGradient id="linear-gradient-29" x1="4891.57" y1="1231.32" x2="4892.28" y2="1231.32" xlink:href="#linear-gradient-10"/><linearGradient id="linear-gradient-30" x1="4893.77" y1="1231.17" x2="4894.27" y2="1231.17" xlink:href="#linear-gradient-10"/><linearGradient id="linear-gradient-31" x1="4903.98" y1="1225.84" x2="4904.78" y2="1225.84" xlink:href="#linear-gradient-10"/><linearGradient id="linear-gradient-32" x1="4907.26" y1="1223.3" x2="4907.97" y2="1223.3" xlink:href="#linear-gradient-10"/><linearGradient id="linear-gradient-33" x1="4899.83" y1="1226.51" x2="4900.54" y2="1226.51" xlink:href="#linear-gradient-10"/><linearGradient id="linear-gradient-34" x1="4902.04" y1="1226.36" x2="4902.54" y2="1226.36" xlink:href="#linear-gradient-10"/><linearGradient id="linear-gradient-36" x1="4971.6" y1="1241.85" x2="4971.82" y2="1239.98" xlink:href="#linear-gradient"/><linearGradient id="linear-gradient-37" x1="4970.92" y1="1245.16" x2="4971.32" y2="1241.91" xlink:href="#linear-gradient"/><linearGradient id="linear-gradient-38" x1="4970.41" y1="1247.04" x2="4970.64" y2="1245.22" xlink:href="#linear-gradient"/><linearGradient id="linear-gradient-39" x1="4970.3" y1="1248.3" x2="4971.44" y2="1239" xlink:href="#linear-gradient"/><linearGradient id="linear-gradient-40" x1="4874.14" y1="1238.08" x2="4891.06" y2="1238.08" xlink:href="#linear-gradient-10"/><linearGradient id="linear-gradient-41" x1="4872.03" y1="1239.43" x2="4887.23" y2="1239.43" xlink:href="#linear-gradient"/><linearGradient id="linear-gradient-42" x1="4871.27" y1="1253.73" x2="4881.53" y2="1253.73" xlink:href="#linear-gradient-9"/><linearGradient id="linear-gradient-43" x1="22.81" y1="100.95" x2="22.81" y2="57.05" xlink:href="#linear-gradient-10"/><linearGradient id="linear-gradient-44" x1="0" y1="76.25" x2="5.7" y2="76.25" xlink:href="#linear-gradient-10"/><linearGradient id="linear-gradient-45" x1="9.5" y1="81.74" x2="15.21" y2="81.74" xlink:href="#linear-gradient-10"/><linearGradient id="linear-gradient-46" x1="5.7" y1="76.8" x2="13.31" y2="76.8" xlink:href="#linear-gradient"/><linearGradient id="linear-gradient-47" y1="57.05" x2="30.41" y2="57.05" gradientUnits="userSpaceOnUse"><stop offset="0" stop-color="#f5bb69"/><stop offset="1" stop-color="#fdd17a"/></linearGradient><clipPath id="clip-path-2" transform="translate(-4822.61 -1127.45)"><polygon class="cls-1" points="4853.02 1184.5 4853.02 1175.72 4875.83 1162.55 4875.83 1206.45 4853.02 1219.62 4853.02 1184.5"/></clipPath><linearGradient id="linear-gradient-48" x1="41.82" y1="92.17" x2="41.82" y2="35.1" xlink:href="#linear-gradient-10"/><linearGradient id="linear-gradient-49" x1="29.35" y1="50.52" x2="54.09" y2="50.52" gradientUnits="userSpaceOnUse"><stop offset="0" stop-color="#e5e6e6"/><stop offset="1" stop-color="#f4f3f2"/></linearGradient><linearGradient id="linear-gradient-50" x1="29.57" y1="59.19" x2="54.33" y2="59.19" xlink:href="#linear-gradient-49"/><linearGradient id="linear-gradient-51" x1="29.42" y1="67.98" x2="54.38" y2="67.98" xlink:href="#linear-gradient-49"/><linearGradient id="linear-gradient-52" x1="29.36" y1="76.7" x2="54.65" y2="76.7" xlink:href="#linear-gradient-49"/><linearGradient id="linear-gradient-53" x1="15.21" y1="48.27" x2="30.41" y2="48.27" xlink:href="#linear-gradient-10"/><linearGradient id="linear-gradient-54" x1="15.21" y1="37.29" x2="53.22" y2="37.29" xlink:href="#linear-gradient-47"/><linearGradient id="linear-gradient-55" x1="38.02" y1="8.77" x2="68.43" y2="8.77" xlink:href="#linear-gradient-47"/><linearGradient id="linear-gradient-56" x1="60.83" y1="79" x2="60.83" y2="8.76" xlink:href="#linear-gradient-10"/><linearGradient id="linear-gradient-57" x1="38.02" y1="21.93" x2="53.22" y2="21.93" xlink:href="#linear-gradient-10"/><linearGradient id="linear-gradient-58" x1="4930.1" y1="1178.56" x2="4983.33" y2="1178.56" xlink:href="#linear-gradient"/><linearGradient id="linear-gradient-59" x1="4921.45" y1="1177.92" x2="4974.67" y2="1177.92" xlink:href="#linear-gradient"/><linearGradient id="linear-gradient-60" x1="16.77" y1="81.94" x2="17.77" y2="81.94" gradientUnits="userSpaceOnUse"><stop offset="0" stop-color="#d0d1d2"/><stop offset="1" stop-color="#e9e7e6"/></linearGradient><linearGradient id="linear-gradient-61" x1="18.64" y1="80.82" x2="19.64" y2="80.82" xlink:href="#linear-gradient-60"/><linearGradient id="linear-gradient-62" x1="20.52" y1="79.71" x2="21.52" y2="79.71" xlink:href="#linear-gradient-60"/><linearGradient id="linear-gradient-63" x1="22.39" y1="78.59" x2="23.39" y2="78.59" xlink:href="#linear-gradient-60"/><linearGradient id="linear-gradient-64" x1="24.27" y1="77.47" x2="25.27" y2="77.47" xlink:href="#linear-gradient-60"/><linearGradient id="linear-gradient-65" x1="26.14" y1="76.35" x2="27.14" y2="76.35" xlink:href="#linear-gradient-60"/><linearGradient id="linear-gradient-66" x1="28.01" y1="75.23" x2="29.01" y2="75.23" xlink:href="#linear-gradient-60"/><clipPath id="clip-path-3" transform="translate(-4822.61 -1127.45)"><path class="cls-1" d="M4932.87,1199.84l-15.12,8.73h0c-1,.54-1.62,1.75-1.62,3.5a11.89,11.89,0,0,0,5.29,9.32,3.68,3.68,0,0,0,3.79.36v0l15.26-8.84C4944.86,1209.68,4938.19,1197.46,4932.87,1199.84Z"/></clipPath><linearGradient id="linear-gradient-67" x1="108.14" y1="77.04" x2="108.63" y2="77.04" gradientUnits="userSpaceOnUse"><stop offset="0" stop-color="#fff" stop-opacity="0.6"/><stop offset="1" stop-color="#fff"/></linearGradient><linearGradient id="linear-gradient-68" x1="111.42" y1="77.12" x2="111.92" y2="77.12" xlink:href="#linear-gradient-67"/><linearGradient id="linear-gradient-69" x1="4938.62" y1="1210.49" x2="4938.94" y2="1210.49" xlink:href="#linear-gradient-67"/><linearGradient id="linear-gradient-70" x1="116.27" y1="82.11" x2="116.93" y2="82.11" xlink:href="#linear-gradient-67"/><linearGradient id="linear-gradient-71" x1="111.6" y1="76.28" x2="111.92" y2="76.28" xlink:href="#linear-gradient-67"/><linearGradient id="linear-gradient-72" x1="4927.23" y1="1207.42" x2="4927.72" y2="1207.42" xlink:href="#linear-gradient-67"/><linearGradient id="linear-gradient-73" x1="4930.51" y1="1207.5" x2="4931.01" y2="1207.5" xlink:href="#linear-gradient-67"/><linearGradient id="linear-gradient-74" x1="108.08" y1="79.2" x2="108.4" y2="79.2" xlink:href="#linear-gradient-67"/><linearGradient id="linear-gradient-75" x1="4938.95" y1="1209.12" x2="4939.39" y2="1209.12" xlink:href="#linear-gradient-67"/><linearGradient id="linear-gradient-76" x1="4939.64" y1="1206.29" x2="4940.09" y2="1206.29" xlink:href="#linear-gradient-67"/><linearGradient id="linear-gradient-77" x1="4935.7" y1="1201.05" x2="4935.99" y2="1201.05" xlink:href="#linear-gradient-67"/><linearGradient id="linear-gradient-78" x1="4936.44" y1="1200.9" x2="4937.03" y2="1200.9" xlink:href="#linear-gradient-67"/><linearGradient id="linear-gradient-79" x1="4940.46" y1="1206.41" x2="4940.75" y2="1206.41" xlink:href="#linear-gradient-67"/><linearGradient id="linear-gradient-80" x1="4930.92" y1="1213.67" x2="4931.24" y2="1213.67" xlink:href="#linear-gradient-67"/><linearGradient id="linear-gradient-81" x1="4931.73" y1="1213.39" x2="4932.39" y2="1213.39" xlink:href="#linear-gradient-67"/><linearGradient id="linear-gradient-82" x1="4932.16" y1="1213.08" x2="4932.6" y2="1213.08" xlink:href="#linear-gradient-67"/><linearGradient id="linear-gradient-83" x1="4934.76" y1="1211.77" x2="4935.21" y2="1211.77" xlink:href="#linear-gradient-67"/><linearGradient id="linear-gradient-84" x1="4935.23" y1="1212.42" x2="4935.52" y2="1212.42" xlink:href="#linear-gradient-67"/><linearGradient id="linear-gradient-85" x1="112.06" y1="74.75" x2="112.56" y2="74.75" xlink:href="#linear-gradient-67"/><linearGradient id="linear-gradient-86" x1="115.34" y1="74.84" x2="115.84" y2="74.84" xlink:href="#linear-gradient-67"/><linearGradient id="linear-gradient-87" x1="4942.55" y1="1208.21" x2="4942.87" y2="1208.21" xlink:href="#linear-gradient-67"/><linearGradient id="linear-gradient-88" x1="120.19" y1="79.83" x2="120.86" y2="79.83" xlink:href="#linear-gradient-67"/><linearGradient id="linear-gradient-89" x1="4938.13" y1="1201.44" x2="4938.45" y2="1201.44" xlink:href="#linear-gradient-67"/><linearGradient id="linear-gradient-90" x1="108.55" y1="77.68" x2="109.04" y2="77.68" xlink:href="#linear-gradient-67"/><linearGradient id="linear-gradient-91" x1="4934.43" y1="1205.21" x2="4934.93" y2="1205.21" xlink:href="#linear-gradient-67"/><linearGradient id="linear-gradient-92" x1="112" y1="76.92" x2="112.33" y2="76.92" xlink:href="#linear-gradient-67"/><linearGradient id="linear-gradient-93" x1="4942.87" y1="1206.83" x2="4943.31" y2="1206.83" xlink:href="#linear-gradient-67"/><linearGradient id="linear-gradient-94" x1="4943.56" y1="1204" x2="4944.01" y2="1204" xlink:href="#linear-gradient-67"/><linearGradient id="linear-gradient-95" x1="4939.63" y1="1198.76" x2="4939.91" y2="1198.76" xlink:href="#linear-gradient-67"/><linearGradient id="linear-gradient-96" x1="4940.36" y1="1198.61" x2="4940.96" y2="1198.61" xlink:href="#linear-gradient-67"/><linearGradient id="linear-gradient-97" x1="4944.39" y1="1204.12" x2="4944.68" y2="1204.12" xlink:href="#linear-gradient-67"/><linearGradient id="linear-gradient-98" x1="4934.85" y1="1211.38" x2="4935.16" y2="1211.38" xlink:href="#linear-gradient-67"/><linearGradient id="linear-gradient-99" x1="4935.65" y1="1211.11" x2="4936.32" y2="1211.11" xlink:href="#linear-gradient-67"/><linearGradient id="linear-gradient-100" x1="4936.08" y1="1210.79" x2="4936.52" y2="1210.79" xlink:href="#linear-gradient-67"/><linearGradient id="linear-gradient-101" x1="4938.69" y1="1209.49" x2="4939.13" y2="1209.49" xlink:href="#linear-gradient-67"/><linearGradient id="linear-gradient-102" x1="4939.16" y1="1210.13" x2="4939.44" y2="1210.13" xlink:href="#linear-gradient-67"/><linearGradient id="linear-gradient-103" x1="115.99" y1="72.47" x2="116.48" y2="72.47" xlink:href="#linear-gradient-67"/><linearGradient id="linear-gradient-104" x1="119.27" y1="72.55" x2="119.77" y2="72.55" xlink:href="#linear-gradient-67"/><linearGradient id="linear-gradient-105" x1="4946.47" y1="1205.92" x2="4946.79" y2="1205.92" xlink:href="#linear-gradient-67"/><linearGradient id="linear-gradient-106" x1="124.11" y1="77.54" x2="124.78" y2="77.54" xlink:href="#linear-gradient-67"/><linearGradient id="linear-gradient-107" x1="4942.05" y1="1199.16" x2="4942.38" y2="1199.16" xlink:href="#linear-gradient-67"/><linearGradient id="linear-gradient-108" x1="112.47" y1="75.39" x2="112.96" y2="75.39" xlink:href="#linear-gradient-67"/><linearGradient id="linear-gradient-109" x1="4938.35" y1="1202.93" x2="4938.86" y2="1202.93" xlink:href="#linear-gradient-67"/><linearGradient id="linear-gradient-110" x1="4938.53" y1="1202.08" x2="4938.86" y2="1202.08" xlink:href="#linear-gradient-67"/><linearGradient id="linear-gradient-111" x1="4946.8" y1="1204.55" x2="4947.24" y2="1204.55" xlink:href="#linear-gradient-67"/><linearGradient id="linear-gradient-112" x1="4947.49" y1="1201.72" x2="4947.93" y2="1201.72" xlink:href="#linear-gradient-67"/><linearGradient id="linear-gradient-113" x1="4943.55" y1="1196.47" x2="4943.83" y2="1196.47" xlink:href="#linear-gradient-67"/><linearGradient id="linear-gradient-114" x1="4944.29" y1="1196.33" x2="4944.88" y2="1196.33" xlink:href="#linear-gradient-67"/><linearGradient id="linear-gradient-115" x1="4948.31" y1="1201.84" x2="4948.6" y2="1201.84" xlink:href="#linear-gradient-67"/><linearGradient id="linear-gradient-116" x1="4938.77" y1="1209.1" x2="4939.09" y2="1209.1" xlink:href="#linear-gradient-67"/><linearGradient id="linear-gradient-117" x1="4939.57" y1="1208.82" x2="4940.24" y2="1208.82" xlink:href="#linear-gradient-67"/><linearGradient id="linear-gradient-118" x1="4940.01" y1="1208.5" x2="4940.44" y2="1208.5" gradientTransform="translate(5482.92 -3848.35) rotate(82.38)" xlink:href="#linear-gradient-67"/><linearGradient id="linear-gradient-119" x1="4942.61" y1="1207.2" x2="4943.06" y2="1207.2" xlink:href="#linear-gradient-67"/><linearGradient id="linear-gradient-120" x1="4943.08" y1="1207.85" x2="4943.37" y2="1207.85" xlink:href="#linear-gradient-67"/><linearGradient id="linear-gradient-121" x1="124.25" y1="67.65" x2="124.75" y2="67.65" xlink:href="#linear-gradient-67"/><linearGradient id="linear-gradient-122" x1="127.53" y1="67.74" x2="128.03" y2="67.74" xlink:href="#linear-gradient-67"/><linearGradient id="linear-gradient-123" x1="4954.74" y1="1201.11" x2="4955.05" y2="1201.11" xlink:href="#linear-gradient-67"/><linearGradient id="linear-gradient-124" x1="132.38" y1="72.73" x2="133.04" y2="72.73" xlink:href="#linear-gradient-67"/><linearGradient id="linear-gradient-125" x1="4950.32" y1="1194.34" x2="4950.64" y2="1194.34" xlink:href="#linear-gradient-67"/><linearGradient id="linear-gradient-126" x1="120.73" y1="70.58" x2="121.23" y2="70.58" xlink:href="#linear-gradient-67"/><linearGradient id="linear-gradient-127" x1="4946.62" y1="1198.11" x2="4947.12" y2="1198.11" xlink:href="#linear-gradient-67"/><linearGradient id="linear-gradient-128" x1="4946.8" y1="1197.27" x2="4947.12" y2="1197.27" xlink:href="#linear-gradient-67"/><linearGradient id="linear-gradient-129" x1="4955.06" y1="1199.73" x2="4955.5" y2="1199.73" xlink:href="#linear-gradient-67"/><linearGradient id="linear-gradient-130" x1="4955.75" y1="1196.9" x2="4956.2" y2="1196.9" xlink:href="#linear-gradient-67"/><linearGradient id="linear-gradient-131" x1="4951.81" y1="1191.66" x2="4952.1" y2="1191.66" xlink:href="#linear-gradient-67"/><linearGradient id="linear-gradient-132" x1="4952.55" y1="1191.51" x2="4953.14" y2="1191.51" xlink:href="#linear-gradient-67"/><linearGradient id="linear-gradient-133" x1="4956.58" y1="1197.02" x2="4956.86" y2="1197.02" xlink:href="#linear-gradient-67"/><linearGradient id="linear-gradient-134" x1="4947.03" y1="1204.28" x2="4947.35" y2="1204.28" xlink:href="#linear-gradient-67"/><linearGradient id="linear-gradient-135" x1="4947.84" y1="1204.01" x2="4948.5" y2="1204.01" xlink:href="#linear-gradient-67"/><linearGradient id="linear-gradient-136" x1="4948.27" y1="1203.69" x2="4948.71" y2="1203.69" gradientTransform="translate(5485.32 -3860.72) rotate(82.38)" xlink:href="#linear-gradient-67"/><linearGradient id="linear-gradient-137" x1="4950.87" y1="1202.39" x2="4951.32" y2="1202.39" xlink:href="#linear-gradient-67"/><linearGradient id="linear-gradient-138" x1="4951.34" y1="1203.03" x2="4951.63" y2="1203.03" xlink:href="#linear-gradient-67"/><linearGradient id="linear-gradient-139" x1="4930.39" y1="1210.44" x2="4931.19" y2="1210.44" xlink:href="#linear-gradient-67"/><linearGradient id="linear-gradient-140" x1="4933.67" y1="1207.9" x2="4934.38" y2="1207.9" xlink:href="#linear-gradient-67"/><linearGradient id="linear-gradient-141" x1="4926.24" y1="1211.11" x2="4926.95" y2="1211.11" xlink:href="#linear-gradient-67"/><linearGradient id="linear-gradient-142" x1="4928.45" y1="1210.96" x2="4928.95" y2="1210.96" xlink:href="#linear-gradient-67"/><linearGradient id="linear-gradient-143" x1="4934.32" y1="1208.16" x2="4935.11" y2="1208.16" xlink:href="#linear-gradient-67"/><linearGradient id="linear-gradient-144" x1="4937.59" y1="1205.62" x2="4938.3" y2="1205.62" xlink:href="#linear-gradient-67"/><linearGradient id="linear-gradient-145" x1="4930.17" y1="1208.83" x2="4930.87" y2="1208.83" xlink:href="#linear-gradient-67"/><linearGradient id="linear-gradient-146" x1="4932.37" y1="1208.67" x2="4932.87" y2="1208.67" xlink:href="#linear-gradient-67"/><linearGradient id="linear-gradient-147" x1="4938.24" y1="1205.87" x2="4939.04" y2="1205.87" xlink:href="#linear-gradient-67"/><linearGradient id="linear-gradient-148" x1="4941.52" y1="1203.33" x2="4942.23" y2="1203.33" xlink:href="#linear-gradient-67"/><linearGradient id="linear-gradient-149" x1="4934.09" y1="1206.54" x2="4934.8" y2="1206.54" xlink:href="#linear-gradient-67"/><linearGradient id="linear-gradient-150" x1="4936.3" y1="1206.39" x2="4936.8" y2="1206.39" xlink:href="#linear-gradient-67"/><linearGradient id="linear-gradient-151" x1="4946.5" y1="1201.06" x2="4947.3" y2="1201.06" xlink:href="#linear-gradient-67"/><linearGradient id="linear-gradient-152" x1="4949.78" y1="1198.52" x2="4950.49" y2="1198.52" xlink:href="#linear-gradient-67"/><linearGradient id="linear-gradient-153" x1="4942.35" y1="1201.73" x2="4943.06" y2="1201.73" xlink:href="#linear-gradient-67"/><linearGradient id="linear-gradient-154" x1="4944.56" y1="1201.57" x2="4945.06" y2="1201.57" xlink:href="#linear-gradient-67"/><linearGradient id="linear-gradient-155" x1="4916.13" y1="1210.83" x2="4941.89" y2="1210.83" gradientUnits="userSpaceOnUse"><stop offset="0" stop-color="#6abae1"/><stop offset="1" stop-color="#9191c2"/></linearGradient><linearGradient id="linear-gradient-156" x1="18.88" y1="37.2" x2="49.91" y2="37.2" xlink:href="#linear-gradient"/><linearGradient id="linear-gradient-157" x1="20.29" y1="37.97" x2="48.65" y2="37.97" xlink:href="#linear-gradient-47"/><linearGradient id="linear-gradient-158" x1="4877.73" y1="1151.6" x2="4879.5" y2="1151.6" xlink:href="#linear-gradient"/><linearGradient id="linear-gradient-159" x1="4887.36" y1="1153.33" x2="4889.14" y2="1153.33" xlink:href="#linear-gradient"/><linearGradient id="linear-gradient-160" x1="4877.73" y1="1186.47" x2="4879.5" y2="1186.47" xlink:href="#linear-gradient"/><linearGradient id="linear-gradient-161" x1="102.34" y1="50.44" x2="144.4" y2="50.44" xlink:href="#linear-gradient-10"/><linearGradient id="linear-gradient-162" x1="4926.81" y1="1160.95" x2="4933.09" y2="1160.95" xlink:href="#linear-gradient-10"/></defs><title>basic-learn-icon-01</title><path class="cls-2" d="M4827.47,1287.22l78.77-45.48a6.7,6.7,0,0,1,7.61,0l75,43.29a3.24,3.24,0,0,1,0,5.61l-78.21,45.16c-3.22,1.43-5,1.62-8.34.23l-74.8-43.19A3.25,3.25,0,0,1,4827.47,1287.22Z" transform="translate(-4822.61 -1127.45)"/><path class="cls-3" d="M4826.1,1253.48l82.32-43.65a3.25,3.25,0,0,1,3.25,0l78.21,40.9c1.23,1.34,1.1,8-1.06,9.26l-78.21,45.16c-3.22,1.42-5,1.62-8.34.23l-74.8-43.19C4825.31,1260.94,4825.57,1253.89,4826.1,1253.48Z" transform="translate(-4822.61 -1127.45)"/><path class="cls-4" d="M4827.47,1251.94l78.77-45.49a6.7,6.7,0,0,1,7.61,0l75,43.29a3.25,3.25,0,0,1,0,5.62l-78.21,45.16c-3.22,1.42-5,1.61-8.34.22l-74.8-43.19A3.24,3.24,0,0,1,4827.47,1251.94Z" transform="translate(-4822.61 -1127.45)"/><polyline class="cls-5" points="76.03 162.41 22.81 131.68 38.02 122.9 22.81 114.12"/><polyline class="cls-6" points="79.83 160.22 95.04 169 95.04 173.39"/><polyline class="cls-7" points="140.66 116.31 91.24 87.78 98.84 83.39"/><line class="cls-8" x1="95.04" y1="151.43" x2="71.9" y2="138.27"/><polyline class="cls-9" points="140.65 125.09 68.43 166.8 68.43 171.19"/><path class="cls-10" d="M4934.75,1228.33a1.35,1.35,0,0,1,1.32-.15h0l1.94,1.23,0-18.09h0v-.19a4.19,4.19,0,0,0-2.85-3.69l-1.68-.87h0a1.27,1.27,0,0,1-.69-1.27,4.17,4.17,0,0,1,1.9-3.28,1.37,1.37,0,0,1,1.3-.16h0l1.94,1s5,2.28,5.11,7.44V1231h0c-.15,5.57-5.23,4.5-6.94,3.57-.72-.39-2.7-1.66-2.74-1.69h0a1.36,1.36,0,0,1-.56-1.22A4.17,4.17,0,0,1,4934.75,1228.33Z" transform="translate(-4822.61 -1127.45)"/><path class="cls-11" d="M4948.07,1208.62a16.68,16.68,0,0,0-7.57-13.12c-2.12-1.23-4-1.34-5.43-.52l-3.91,2.3,1.72,3a16.87,16.87,0,0,0,7.26,12.52l1.76,3,3.76-2.22C4947.13,1212.85,4948.07,1211.13,4948.07,1208.62Z" transform="translate(-4822.61 -1127.45)"/><path class="cls-12" d="M4936.67,1197.74a16.7,16.7,0,0,1,7.58,13.12c0,4.83-3.43,6.78-7.63,4.35a16.73,16.73,0,0,1-7.58-13.13C4929.05,1197.26,4932.48,1195.32,4936.67,1197.74Z" transform="translate(-4822.61 -1127.45)"/><g class="cls-13"><path class="cls-14" d="M4936.57,1200.28a11.89,11.89,0,0,1,5.29,9.31c0,3.42-2.39,4.8-5.32,3.08a11.88,11.88,0,0,1-5.29-9.31C4931.26,1199.94,4933.65,1198.56,4936.57,1200.28Z" transform="translate(-4822.61 -1127.45)"/></g><path class="cls-15" d="M4936.65,1204.29a4.17,4.17,0,0,1,1.89,3.28c0,1.21-.85,1.7-1.9,1.09a4.2,4.2,0,0,1-1.9-3.28C4934.75,1204.17,4935.6,1203.69,4936.65,1204.29Z" transform="translate(-4822.61 -1127.45)"/><polygon class="cls-16" points="60.83 136.07 117.85 103.14 117.85 111.92 60.83 144.85 60.83 136.07"/><polygon class="cls-17" points="60.83 136.07 53.22 131.68 53.22 140.46 60.83 144.85 60.83 136.07"/><polygon class="cls-18" points="117.85 103.14 110.25 98.75 53.22 131.68 60.83 136.07 117.85 103.14"/><polygon class="cls-19" points="133.06 120.7 133.06 116.31 148.26 125.09 148.26 129.49 133.06 120.7"/><polygon class="cls-20" points="163.47 116.31 163.33 120.62 148.26 129.49 148.26 125.09 162.86 115.96 163.47 116.31"/><polygon class="cls-21" points="148.26 107.53 133.06 116.31 148.26 125.09 163.47 116.31 148.26 107.53"/><g class="cls-22"><path class="cls-23" d="M4926.74,1218.32a11.89,11.89,0,0,0-5.29-9.32,3.71,3.71,0,0,0-3.76-.39h0l-.14.08-35,20.22,7.68,13.12,34.92-20.22h0A3.8,3.8,0,0,0,4926.74,1218.32Z" transform="translate(-4822.61 -1127.45)"/><circle class="cls-24" cx="65.86" cy="101.82" r="0.25"/><circle class="cls-25" cx="69.15" cy="101.9" r="0.25"/><path class="cls-25" d="M4896.34,1235.41a.15.15,0,0,1-.22-.06.15.15,0,0,1,.06-.21.16.16,0,1,1,.16.27Z" transform="translate(-4822.61 -1127.45)"/><circle class="cls-25" cx="74.08" cy="106.9" r="0.33"/><circle class="cls-25" cx="69.24" cy="101.06" r="0.16"/><path class="cls-24" d="M4885.08,1232.41a.25.25,0,0,1-.34-.09.24.24,0,0,1,.09-.33.25.25,0,0,1,.34.09A.26.26,0,0,1,4885.08,1232.41Z" transform="translate(-4822.61 -1127.45)"/><path class="cls-25" d="M4888.36,1232.5a.25.25,0,0,1-.34-.09.26.26,0,0,1,.09-.35.25.25,0,0,1,.34.1A.25.25,0,0,1,4888.36,1232.5Z" transform="translate(-4822.61 -1127.45)"/><circle class="cls-25" cx="65.72" cy="103.98" r="0.16"/><path class="cls-24" d="M4896.49,1233.75a.22.22,0,0,0,0,.31.23.23,0,0,0,.31,0,.22.22,0,1,0-.31-.31Z" transform="translate(-4822.61 -1127.45)"/><path class="cls-25" d="M4897.18,1230.91a.23.23,0,1,0,.32,0A.23.23,0,0,0,4897.18,1230.91Z" transform="translate(-4822.61 -1127.45)"/><path class="cls-25" d="M4893.22,1225.73a.14.14,0,1,0,.2.2.14.14,0,0,0-.2-.2Z" transform="translate(-4822.61 -1127.45)"/><path class="cls-25" d="M4894,1225.47a.31.31,0,0,0,0,.42.3.3,0,0,0,.42-.42A.31.31,0,0,0,4894,1225.47Z" transform="translate(-4822.61 -1127.45)"/><path class="cls-25" d="M4898,1231.09a.15.15,0,0,0,0,.2.15.15,0,0,0,.21,0,.15.15,0,0,0,0-.2A.15.15,0,0,0,4898,1231.09Z" transform="translate(-4822.61 -1127.45)"/><path class="cls-25" d="M4888.5,1238.6a.16.16,0,0,1-.09-.2.16.16,0,1,1,.09.2Z" transform="translate(-4822.61 -1127.45)"/><path class="cls-25" d="M4889.42,1238.49a.34.34,0,1,1,.43-.2A.34.34,0,0,1,4889.42,1238.49Z" transform="translate(-4822.61 -1127.45)"/><path class="cls-24" d="M4889.87,1237.64a.22.22,0,0,0,0,.44.22.22,0,1,0,0-.44Z" transform="translate(-4822.61 -1127.45)"/><path class="cls-25" d="M4892.48,1236.33a.23.23,0,1,0,.2.25A.22.22,0,0,0,4892.48,1236.33Z" transform="translate(-4822.61 -1127.45)"/><path class="cls-25" d="M4892.87,1237.06a.15.15,0,0,0-.16.13.13.13,0,0,0,.13.15.14.14,0,1,0,0-.28Z" transform="translate(-4822.61 -1127.45)"/><circle class="cls-24" cx="69.79" cy="99.54" r="0.25"/><circle class="cls-25" cx="73.07" cy="99.62" r="0.25"/><path class="cls-25" d="M4900.26,1233.13a.16.16,0,0,1-.21-.06.16.16,0,0,1,.05-.22.16.16,0,0,1,.22.06A.16.16,0,0,1,4900.26,1233.13Z" transform="translate(-4822.61 -1127.45)"/><circle class="cls-25" cx="78" cy="104.61" r="0.33"/><path class="cls-25" d="M4895.85,1226.37a.17.17,0,0,1-.22-.06.15.15,0,0,1,.06-.22.16.16,0,0,1,.22.06A.17.17,0,0,1,4895.85,1226.37Z" transform="translate(-4822.61 -1127.45)"/><circle class="cls-24" cx="66.27" cy="102.46" r="0.25"/><path class="cls-25" d="M4892.29,1230.21a.26.26,0,0,1-.35-.09.25.25,0,0,1,.09-.34.26.26,0,0,1,.35.09A.25.25,0,0,1,4892.29,1230.21Z" transform="translate(-4822.61 -1127.45)"/><circle class="cls-25" cx="69.64" cy="101.7" r="0.16"/><path class="cls-24" d="M4900.42,1231.46a.22.22,0,0,0,0,.31.21.21,0,0,0,.31,0,.22.22,0,1,0-.3-.31Z" transform="translate(-4822.61 -1127.45)"/><path class="cls-25" d="M4901.11,1228.62a.23.23,0,0,0,0,.32.22.22,0,0,0,.32,0,.21.21,0,0,0,0-.31A.22.22,0,0,0,4901.11,1228.62Z" transform="translate(-4822.61 -1127.45)"/><path class="cls-25" d="M4897.15,1223.44a.14.14,0,0,0,0,.2.13.13,0,0,0,.2,0,.14.14,0,0,0,0-.2A.15.15,0,0,0,4897.15,1223.44Z" transform="translate(-4822.61 -1127.45)"/><path class="cls-25" d="M4897.93,1223.18a.29.29,0,0,0,0,.42.29.29,0,0,0,.41,0,.3.3,0,0,0-.41-.43Z" transform="translate(-4822.61 -1127.45)"/><path class="cls-25" d="M4901.91,1228.8a.13.13,0,0,0,0,.2.14.14,0,0,0,.2,0,.14.14,0,0,0,0-.21A.15.15,0,0,0,4901.91,1228.8Z" transform="translate(-4822.61 -1127.45)"/><path class="cls-25" d="M4892.43,1236.31a.16.16,0,0,1-.1-.2.17.17,0,0,1,.2-.1.16.16,0,0,1,.1.21A.16.16,0,0,1,4892.43,1236.31Z" transform="translate(-4822.61 -1127.45)"/><path class="cls-25" d="M4893.35,1236.2a.32.32,0,0,1-.2-.42.33.33,0,1,1,.2.42Z" transform="translate(-4822.61 -1127.45)"/><path class="cls-24" d="M4893.8,1235.35a.22.22,0,1,0,.2.24A.22.22,0,0,0,4893.8,1235.35Z" transform="translate(-4822.61 -1127.45)"/><path class="cls-25" d="M4896.41,1234.05a.23.23,0,0,0-.25.2.23.23,0,1,0,.25-.2Z" transform="translate(-4822.61 -1127.45)"/><path class="cls-25" d="M4896.79,1234.77a.15.15,0,0,0-.16.13.16.16,0,0,0,.13.16.15.15,0,0,0,.16-.13A.15.15,0,0,0,4896.79,1234.77Z" transform="translate(-4822.61 -1127.45)"/><circle class="cls-24" cx="73.71" cy="97.25" r="0.25"/><circle class="cls-25" cx="76.99" cy="97.33" r="0.25"/><path class="cls-25" d="M4904.19,1230.84a.16.16,0,0,1-.22-.06.17.17,0,0,1,.06-.22.18.18,0,0,1,.22.06A.17.17,0,0,1,4904.19,1230.84Z" transform="translate(-4822.61 -1127.45)"/><circle class="cls-25" cx="81.92" cy="102.32" r="0.33"/><path class="cls-25" d="M4899.77,1224.08a.17.17,0,0,1-.22-.06.16.16,0,0,1,.06-.22.16.16,0,0,1,.22.06A.15.15,0,0,1,4899.77,1224.08Z" transform="translate(-4822.61 -1127.45)"/><circle class="cls-24" cx="70.19" cy="100.17" r="0.25"/><path class="cls-25" d="M4896.21,1227.93a.25.25,0,0,1-.34-.09.26.26,0,0,1,.09-.35.25.25,0,0,1,.34.09A.26.26,0,0,1,4896.21,1227.93Z" transform="translate(-4822.61 -1127.45)"/><path class="cls-25" d="M4896.25,1227a.16.16,0,0,1-.22,0,.17.17,0,0,1,.06-.22.16.16,0,0,1,.22,0A.15.15,0,0,1,4896.25,1227Z" transform="translate(-4822.61 -1127.45)"/><path class="cls-24" d="M4904.34,1229.17a.21.21,0,0,0,0,.31.22.22,0,0,0,.31,0,.23.23,0,0,0,0-.31A.22.22,0,0,0,4904.34,1229.17Z" transform="translate(-4822.61 -1127.45)"/><path class="cls-25" d="M4905,1226.34a.21.21,0,0,0,0,.31.23.23,0,0,0,.32,0,.24.24,0,0,0,0-.32A.22.22,0,0,0,4905,1226.34Z" transform="translate(-4822.61 -1127.45)"/><path class="cls-25" d="M4901.07,1221.16a.13.13,0,0,0,0,.19.14.14,0,1,0,.2-.19A.13.13,0,0,0,4901.07,1221.16Z" transform="translate(-4822.61 -1127.45)"/><path class="cls-25" d="M4901.85,1220.9a.3.3,0,0,0,0,.42.31.31,0,0,0,.42,0,.3.3,0,0,0,0-.42A.29.29,0,0,0,4901.85,1220.9Z" transform="translate(-4822.61 -1127.45)"/><path class="cls-25" d="M4905.83,1226.52a.14.14,0,0,0,.2.2.14.14,0,0,0,0-.2A.14.14,0,0,0,4905.83,1226.52Z" transform="translate(-4822.61 -1127.45)"/><path class="cls-25" d="M4896.35,1234a.16.16,0,0,1-.09-.2.15.15,0,0,1,.2-.1.16.16,0,0,1,.1.2A.17.17,0,0,1,4896.35,1234Z" transform="translate(-4822.61 -1127.45)"/><path class="cls-25" d="M4897.27,1233.92a.34.34,0,1,1,.23-.63.33.33,0,0,1,.2.42A.33.33,0,0,1,4897.27,1233.92Z" transform="translate(-4822.61 -1127.45)"/><circle class="cls-24" cx="4897.7" cy="1233.28" r="0.22" transform="translate(-1796.79 4796.73) rotate(-82.38)"/><path class="cls-25" d="M4900.33,1231.76a.22.22,0,0,0-.24.2.23.23,0,0,0,.2.25.23.23,0,0,0,0-.45Z" transform="translate(-4822.61 -1127.45)"/><path class="cls-25" d="M4900.71,1232.49a.14.14,0,0,0,0,.28.14.14,0,1,0,0-.28Z" transform="translate(-4822.61 -1127.45)"/><circle class="cls-24" cx="81.98" cy="92.44" r="0.25"/><circle class="cls-25" cx="85.26" cy="92.52" r="0.25"/><path class="cls-25" d="M4912.45,1226a.18.18,0,0,1-.22-.06.17.17,0,0,1,.06-.22.16.16,0,0,1,.22.06A.17.17,0,0,1,4912.45,1226Z" transform="translate(-4822.61 -1127.45)"/><circle class="cls-25" cx="90.19" cy="97.51" r="0.33"/><path class="cls-25" d="M4908,1219.27a.17.17,0,0,1-.22-.06.16.16,0,0,1,.05-.22.15.15,0,0,1,.22.06A.16.16,0,0,1,4908,1219.27Z" transform="translate(-4822.61 -1127.45)"/><circle class="cls-24" cx="78.46" cy="95.36" r="0.25"/><path class="cls-25" d="M4904.47,1223.11a.25.25,0,1,1,.09-.34A.25.25,0,0,1,4904.47,1223.11Z" transform="translate(-4822.61 -1127.45)"/><path class="cls-25" d="M4904.52,1222.19a.15.15,0,0,1-.22-.06.16.16,0,0,1,.06-.22.17.17,0,0,1,.22.06A.16.16,0,0,1,4904.52,1222.19Z" transform="translate(-4822.61 -1127.45)"/><path class="cls-24" d="M4912.6,1224.36a.23.23,0,0,0,0,.31.22.22,0,1,0,0-.31Z" transform="translate(-4822.61 -1127.45)"/><path class="cls-25" d="M4913.3,1221.52a.23.23,0,0,0,0,.32.22.22,0,0,0,.32,0,.21.21,0,0,0,0-.31A.22.22,0,0,0,4913.3,1221.52Z" transform="translate(-4822.61 -1127.45)"/><path class="cls-25" d="M4909.33,1216.34a.15.15,0,0,0,0,.2.14.14,0,1,0,.2-.2A.15.15,0,0,0,4909.33,1216.34Z" transform="translate(-4822.61 -1127.45)"/><path class="cls-25" d="M4910.12,1216.08a.3.3,0,1,0,.42,0A.3.3,0,0,0,4910.12,1216.08Z" transform="translate(-4822.61 -1127.45)"/><path class="cls-25" d="M4914.1,1221.7a.14.14,0,0,0,0,.2.15.15,0,0,0,.21,0,.17.17,0,0,0,0-.21A.15.15,0,0,0,4914.1,1221.7Z" transform="translate(-4822.61 -1127.45)"/><path class="cls-25" d="M4904.62,1229.21a.15.15,0,0,1-.1-.2.17.17,0,0,1,.2-.1.16.16,0,0,1,.1.21A.16.16,0,0,1,4904.62,1229.21Z" transform="translate(-4822.61 -1127.45)"/><path class="cls-25" d="M4905.54,1229.1a.33.33,0,0,1-.21-.42.34.34,0,0,1,.43-.21.35.35,0,0,1,.2.43A.33.33,0,0,1,4905.54,1229.1Z" transform="translate(-4822.61 -1127.45)"/><circle class="cls-24" cx="4905.97" cy="1228.47" r="0.22" transform="translate(-1784.85 4800.74) rotate(-82.38)"/><path class="cls-25" d="M4908.59,1227a.22.22,0,0,0,0,.44.23.23,0,0,0,.25-.2A.22.22,0,0,0,4908.59,1227Z" transform="translate(-4822.61 -1127.45)"/><path class="cls-25" d="M4909,1227.67a.15.15,0,0,0,0,.29.15.15,0,0,0,0-.29Z" transform="translate(-4822.61 -1127.45)"/><path class="cls-26" d="M4888.47,1235.57a.4.4,0,1,1-.4-.69.39.39,0,0,1,.54.14A.4.4,0,0,1,4888.47,1235.57Z" transform="translate(-4822.61 -1127.45)"/><path class="cls-27" d="M4891.25,1232.43a.36.36,0,0,0,0,.51.35.35,0,0,0,.5-.5A.36.36,0,0,0,4891.25,1232.43Z" transform="translate(-4822.61 -1127.45)"/><g class="cls-28"><path class="cls-29" d="M4883.82,1235.64a.36.36,0,0,0,.5.51.36.36,0,0,0,0-.5A.37.37,0,0,0,4883.82,1235.64Z" transform="translate(-4822.61 -1127.45)"/><path class="cls-30" d="M4886,1235.56a.25.25,0,0,0,0,.36.25.25,0,0,0,.35-.35A.25.25,0,0,0,4886,1235.56Z" transform="translate(-4822.61 -1127.45)"/></g><path class="cls-31" d="M4892.39,1233.28a.38.38,0,0,1-.54-.14.4.4,0,1,1,.69-.4A.4.4,0,0,1,4892.39,1233.28Z" transform="translate(-4822.61 -1127.45)"/><path class="cls-32" d="M4895.17,1230.15a.36.36,0,0,0,0,.5.35.35,0,0,0,.5,0,.35.35,0,1,0-.5-.5Z" transform="translate(-4822.61 -1127.45)"/><g class="cls-28"><path class="cls-33" d="M4887.75,1233.36a.35.35,0,1,0,.5.5.35.35,0,0,0-.5-.5Z" transform="translate(-4822.61 -1127.45)"/><path class="cls-34" d="M4889.92,1233.28a.24.24,0,0,0,0,.35.25.25,0,1,0,.36-.35A.25.25,0,0,0,4889.92,1233.28Z" transform="translate(-4822.61 -1127.45)"/></g><path class="cls-35" d="M4896.32,1231a.4.4,0,1,1-.4-.69.39.39,0,0,1,.54.14A.4.4,0,0,1,4896.32,1231Z" transform="translate(-4822.61 -1127.45)"/><path class="cls-36" d="M4899.1,1227.86a.35.35,0,0,0,0,.5.36.36,0,0,0,.5,0,.36.36,0,0,0-.5-.51Z" transform="translate(-4822.61 -1127.45)"/><g class="cls-28"><path class="cls-37" d="M4891.67,1231.07a.35.35,0,0,0,0,.5.35.35,0,1,0,0-.5Z" transform="translate(-4822.61 -1127.45)"/><path class="cls-38" d="M4893.85,1231a.25.25,0,1,0,.35.36.25.25,0,0,0,0-.36A.25.25,0,0,0,4893.85,1231Z" transform="translate(-4822.61 -1127.45)"/></g><path class="cls-39" d="M4904.58,1226.18a.38.38,0,0,1-.54-.14.4.4,0,0,1,.14-.55.41.41,0,0,1,.55.15A.4.4,0,0,1,4904.58,1226.18Z" transform="translate(-4822.61 -1127.45)"/><path class="cls-40" d="M4907.36,1223.05a.35.35,0,1,0,.5,0A.35.35,0,0,0,4907.36,1223.05Z" transform="translate(-4822.61 -1127.45)"/><path class="cls-41" d="M4899.94,1226.26a.35.35,0,1,0,.5,0A.35.35,0,0,0,4899.94,1226.26Z" transform="translate(-4822.61 -1127.45)"/><path class="cls-42" d="M4902.11,1226.18a.25.25,0,0,0,.35.35.25.25,0,0,0,0-.35A.25.25,0,0,0,4902.11,1226.18Z" transform="translate(-4822.61 -1127.45)"/><path class="cls-43" d="M4926.74,1218.32a11.89,11.89,0,0,0-5.29-9.32,3.71,3.71,0,0,0-3.76-.39h0l-.14.08-35,20.22,7.68,13.12,34.92-20.22h0A3.8,3.8,0,0,0,4926.74,1218.32Z" transform="translate(-4822.61 -1127.45)"/></g><path class="cls-44" d="M4973.11,1240.14l-.17.64a1.83,1.83,0,0,1,.28.14,1.32,1.32,0,0,1,.69.8c0,.12-.11.22-.31.24a.71.71,0,0,1-.31-.06.24.24,0,0,1-.1-.13,1,1,0,0,0-.48-.55,2.22,2.22,0,0,0-.92-.27,2.11,2.11,0,0,0-1.75.54.48.48,0,0,1-.48.1l-.11,0c-.1-.06-.14-.15-.07-.24a1.86,1.86,0,0,1,.75-.52,3,3,0,0,1,.77-.22l.16-.61.68.06-.13.5h.29a2.28,2.28,0,0,1,.39.06l.13-.51Z" transform="translate(-4822.61 -1127.45)"/><path class="cls-45" d="M4973.65,1242.23c.1.06.14.15.07.23a1.5,1.5,0,0,1-.52.43h0l-.27.12-1.31.56,1.16.92h0a1.09,1.09,0,0,1,.28.5c0,.11-.12.22-.32.23a.46.46,0,0,1-.3-.06.18.18,0,0,1-.11-.12.79.79,0,0,0-.32-.47l-.2-.15-.77-.61-1.35.57a1.37,1.37,0,0,0-.51.37.49.49,0,0,1-.48.11l-.11,0c-.11-.06-.14-.16-.08-.24a2,2,0,0,1,.75-.54h0l1.32-.56-1-.79a1.26,1.26,0,0,1-.43-.66c0-.08.05-.15.15-.19a.48.48,0,0,1,.18,0,.52.52,0,0,1,.29.06.2.2,0,0,1,.11.13.78.78,0,0,0,.3.45l1,.79,1-.44.29-.12a1.3,1.3,0,0,0,.55-.39.48.48,0,0,1,.48-.1Z" transform="translate(-4822.61 -1127.45)"/><path class="cls-46" d="M4972.78,1245.52c.1.06.14.16.07.24a2.4,2.4,0,0,1-1.4.72l-.15.6-.69-.06.12-.47a2.75,2.75,0,0,1-.4,0,2.4,2.4,0,0,1-.28,0l-.12.46-.69-.06.15-.58a2.22,2.22,0,0,1-.38-.18,1.32,1.32,0,0,1-.68-.79c0-.08,0-.15.14-.2l.17,0a.56.56,0,0,1,.3.06.22.22,0,0,1,.11.13.94.94,0,0,0,.47.55,2.31,2.31,0,0,0,.92.27,2.15,2.15,0,0,0,1.75-.54.5.5,0,0,1,.49-.1Z" transform="translate(-4822.61 -1127.45)"/><path class="cls-47" d="M4977.3,1240.92c2.61,2,1.85,4.95-1.69,6.46a12.67,12.67,0,0,1-10.36-.46,8.14,8.14,0,0,1-.81-.54c-2.61-2.06-1.85-5,1.69-6.46a12.61,12.61,0,0,1,10.37.46A6.23,6.23,0,0,1,4977.3,1240.92Zm-2.12,6.12c3.22-1.37,3.91-4,1.53-5.88a6.63,6.63,0,0,0-.73-.49,11.47,11.47,0,0,0-9.41-.41c-3.22,1.36-3.91,4-1.54,5.87a5.47,5.47,0,0,0,.73.49,11.49,11.49,0,0,0,9.42.42" transform="translate(-4822.61 -1127.45)"/><path class="cls-48" d="M4891.06,1241.57a16.7,16.7,0,0,0-7.57-13.12c-2.12-1.23-4-1.33-5.43-.52l-3.92,2.3,1.73,3a16.87,16.87,0,0,0,7.25,12.51l1.76,3,3.76-2.22C4890.12,1245.8,4891.05,1244.08,4891.06,1241.57Z" transform="translate(-4822.61 -1127.45)"/><path class="cls-49" d="M4879.66,1230.69a16.66,16.66,0,0,1,7.57,13.12c0,4.83-3.42,6.78-7.62,4.35A16.68,16.68,0,0,1,4872,1235C4872,1230.21,4875.46,1228.27,4879.66,1230.69Z" transform="translate(-4822.61 -1127.45)"/><path class="cls-15" d="M4879.64,1237.24a4.17,4.17,0,0,1,1.89,3.28c0,1.21-.85,1.7-1.9,1.09a4.17,4.17,0,0,1-1.9-3.28C4877.73,1237.12,4878.59,1236.64,4879.64,1237.24Z" transform="translate(-4822.61 -1127.45)"/><path class="cls-15" d="M4879.64,1263.53a4.17,4.17,0,0,1,1.89,3.28c0,1.21-.85,1.7-1.9,1.09a4.17,4.17,0,0,1-1.9-3.28C4877.73,1263.41,4878.59,1262.93,4879.64,1263.53Z" transform="translate(-4822.61 -1127.45)"/><path class="cls-50" d="M4879.64,1263.53a1.39,1.39,0,0,0-1.33-.14h0l0,0-1.95,1.23v-18.09h0v-.19a4.19,4.19,0,0,1,2.85-3.69l1.68-.87h0a1.24,1.24,0,0,0,.68-1.27,4.17,4.17,0,0,0-1.89-3.28,1.37,1.37,0,0,0-1.3-.15h0l-1.95,1s-5,2.28-5.1,7.44l0,0v20.61h0c.15,5.56,5.23,4.5,6.94,3.57.71-.39,2.7-1.66,2.74-1.69h0a1.32,1.32,0,0,0,.55-1.22A4.17,4.17,0,0,0,4879.64,1263.53Z" transform="translate(-4822.61 -1127.45)"/><polygon class="cls-51" points="15.21 100.95 30.41 92.17 30.41 57.05 15.21 65.83 15.21 100.95"/><polygon class="cls-52" points="0 57.05 5.7 60.34 5.7 95.46 0 92.17 0 57.05"/><polygon class="cls-53" points="9.5 62.53 15.21 65.83 15.21 100.95 9.5 97.66 9.5 62.53"/><polygon class="cls-54" points="5.7 60.34 9.5 58.15 13.31 60.34 9.5 62.53 9.5 93.27 5.7 95.46 5.7 60.34"/><polygon class="cls-55" points="0 57.05 15.21 48.27 30.41 57.05 15.21 65.83 9.5 62.53 13.31 60.34 9.5 58.15 5.7 60.34 0 57.05"/><g class="cls-56"><polygon class="cls-57" points="30.41 57.05 30.41 48.27 53.22 35.1 53.22 79 30.41 92.17 30.41 57.05"/><line class="cls-58" x1="29.6" y1="57.51" x2="53.84" y2="43.52"/><line class="cls-59" x1="54.08" y1="52.22" x2="29.82" y2="66.17"/><line class="cls-60" x1="54.13" y1="60.91" x2="29.67" y2="75.04"/><line class="cls-61" x1="29.61" y1="83.85" x2="54.4" y2="69.54"/></g><polygon class="cls-62" points="15.21 39.49 30.41 48.27 30.41 57.05 15.21 48.27 15.21 39.49"/><polygon class="cls-63" points="38.02 26.32 15.21 39.49 30.41 48.27 53.22 35.1 38.02 26.32"/><polygon class="cls-64" points="68.43 8.76 53.22 17.54 38.02 8.76 53.27 0 68.43 8.76"/><polygon class="cls-65" points="68.43 70.22 53.22 79 53.22 17.54 68.43 8.76 68.43 70.22"/><polygon class="cls-66" points="38.02 8.76 38.02 26.32 53.22 35.1 53.22 17.54 38.02 8.76"/><path class="cls-67" d="M4932,1181.84l49.1,28.35a2.17,2.17,0,0,0,2.23-.23v-31.68c0-1.6-.47-2.2-1.9-3l-49.1-28.35a1.49,1.49,0,0,0-2.23,1.29v30.35A3.27,3.27,0,0,0,4932,1181.84Z" transform="translate(-4822.61 -1127.45)"/><path class="cls-68" d="M4923.35,1181.21l49.09,28.34a2.18,2.18,0,0,0,2.23-.22v-31.69c0-1.59-.47-2.19-1.9-3l-49.09-28.34a1.48,1.48,0,0,0-2.23,1.28v30.36A3.27,3.27,0,0,0,4923.35,1181.21Z" transform="translate(-4822.61 -1127.45)"/><polygon class="cls-69" points="16.77 66.92 16.77 97.46 17.77 97 17.77 66.42 16.77 66.92"/><polygon class="cls-70" points="18.64 65.81 18.64 96.34 19.64 95.89 19.64 65.3 18.64 65.81"/><polygon class="cls-71" points="20.52 64.69 20.52 95.23 21.52 94.77 21.52 64.18 20.52 64.69"/><polygon class="cls-72" points="22.39 63.57 22.39 94.11 23.39 93.65 23.39 63.07 22.39 63.57"/><polygon class="cls-73" points="24.27 62.45 24.27 92.99 25.27 92.53 25.27 61.95 24.27 62.45"/><polygon class="cls-74" points="26.14 61.34 26.14 91.87 27.14 91.41 27.14 60.83 26.14 61.34"/><polygon class="cls-75" points="28.01 60.22 28.01 90.75 29.01 90.3 29.01 59.71 28.01 60.22"/><g class="cls-76"><circle class="cls-77" cx="108.39" cy="77.04" r="0.25"/><circle class="cls-78" cx="111.67" cy="77.12" r="0.25"/><path class="cls-79" d="M4938.86,1210.63a.15.15,0,0,1-.21-.06.16.16,0,0,1,.05-.22.17.17,0,0,1,.22.06A.16.16,0,0,1,4938.86,1210.63Z" transform="translate(-4822.61 -1127.45)"/><circle class="cls-80" cx="116.6" cy="82.11" r="0.33"/><circle class="cls-81" cx="111.76" cy="76.28" r="0.16"/><path class="cls-82" d="M4927.6,1207.63a.25.25,0,1,1-.25-.43.27.27,0,0,1,.34.09A.25.25,0,0,1,4927.6,1207.63Z" transform="translate(-4822.61 -1127.45)"/><path class="cls-83" d="M4930.88,1207.72a.25.25,0,0,1-.34-.09.26.26,0,0,1,.09-.35.25.25,0,0,1,.34.09A.26.26,0,0,1,4930.88,1207.72Z" transform="translate(-4822.61 -1127.45)"/><circle class="cls-84" cx="108.24" cy="79.2" r="0.16"/><path class="cls-85" d="M4939,1209a.23.23,0,0,0,0,.31.22.22,0,0,0,.31,0,.21.21,0,0,0,0-.31A.22.22,0,0,0,4939,1209Z" transform="translate(-4822.61 -1127.45)"/><path class="cls-86" d="M4939.71,1206.13a.22.22,0,0,0,0,.31.23.23,0,0,0,.32,0,.22.22,0,0,0,0-.32A.21.21,0,0,0,4939.71,1206.13Z" transform="translate(-4822.61 -1127.45)"/><path class="cls-87" d="M4935.74,1201a.14.14,0,0,0,.2.2.14.14,0,1,0-.2-.2Z" transform="translate(-4822.61 -1127.45)"/><path class="cls-88" d="M4936.53,1200.69a.29.29,0,1,0,.42,0A.3.3,0,0,0,4936.53,1200.69Z" transform="translate(-4822.61 -1127.45)"/><path class="cls-89" d="M4940.51,1206.31a.13.13,0,0,0,0,.2.14.14,0,1,0,.2-.2A.13.13,0,0,0,4940.51,1206.31Z" transform="translate(-4822.61 -1127.45)"/><path class="cls-90" d="M4931,1213.82a.16.16,0,1,1,.2-.1A.15.15,0,0,1,4931,1213.82Z" transform="translate(-4822.61 -1127.45)"/><path class="cls-91" d="M4932,1213.71a.33.33,0,0,1-.21-.43.35.35,0,0,1,.43-.2.33.33,0,0,1-.22.63Z" transform="translate(-4822.61 -1127.45)"/><path class="cls-92" d="M4932.4,1212.86a.22.22,0,0,0-.24.2.21.21,0,0,0,.2.23.21.21,0,0,0,.23-.2A.2.2,0,0,0,4932.4,1212.86Z" transform="translate(-4822.61 -1127.45)"/><path class="cls-93" d="M4935,1211.55a.22.22,0,0,0-.24.2.23.23,0,0,0,.2.25.23.23,0,0,0,.25-.21A.22.22,0,0,0,4935,1211.55Z" transform="translate(-4822.61 -1127.45)"/><path class="cls-94" d="M4935.39,1212.28a.15.15,0,0,0-.16.13.15.15,0,0,0,.13.15.15.15,0,0,0,.16-.13A.13.13,0,0,0,4935.39,1212.28Z" transform="translate(-4822.61 -1127.45)"/><circle class="cls-95" cx="112.31" cy="74.75" r="0.25"/><circle class="cls-96" cx="115.59" cy="74.84" r="0.25"/><path class="cls-97" d="M4942.79,1208.34a.16.16,0,0,1-.22,0,.16.16,0,0,1,.06-.22.14.14,0,0,1,.21.06A.15.15,0,0,1,4942.79,1208.34Z" transform="translate(-4822.61 -1127.45)"/><circle class="cls-98" cx="120.52" cy="79.83" r="0.33"/><path class="cls-99" d="M4938.37,1201.58a.16.16,0,1,1,.06-.22A.16.16,0,0,1,4938.37,1201.58Z" transform="translate(-4822.61 -1127.45)"/><circle class="cls-100" cx="108.79" cy="77.68" r="0.25"/><path class="cls-101" d="M4934.81,1205.43a.26.26,0,0,1-.35-.09.25.25,0,0,1,.09-.34.26.26,0,0,1,.35.09A.25.25,0,0,1,4934.81,1205.43Z" transform="translate(-4822.61 -1127.45)"/><circle class="cls-102" cx="112.17" cy="76.92" r="0.16"/><path class="cls-103" d="M4942.94,1206.68a.21.21,0,0,0,0,.31.22.22,0,0,0,.31-.31A.21.21,0,0,0,4942.94,1206.68Z" transform="translate(-4822.61 -1127.45)"/><path class="cls-104" d="M4943.63,1203.84a.22.22,0,0,0,0,.32.21.21,0,0,0,.31,0,.22.22,0,0,0,0-.31A.23.23,0,0,0,4943.63,1203.84Z" transform="translate(-4822.61 -1127.45)"/><path class="cls-105" d="M4939.67,1198.66a.13.13,0,0,0,0,.2.14.14,0,0,0,.2,0,.15.15,0,0,0,0-.2A.14.14,0,0,0,4939.67,1198.66Z" transform="translate(-4822.61 -1127.45)"/><path class="cls-106" d="M4940.45,1198.4a.3.3,0,1,0,.42.42.3.3,0,0,0-.42-.42Z" transform="translate(-4822.61 -1127.45)"/><path class="cls-107" d="M4944.43,1204a.14.14,0,1,0,.2,0A.13.13,0,0,0,4944.43,1204Z" transform="translate(-4822.61 -1127.45)"/><path class="cls-108" d="M4935,1211.53a.16.16,0,0,1-.1-.2.17.17,0,0,1,.21-.1.16.16,0,0,1,.09.21A.16.16,0,0,1,4935,1211.53Z" transform="translate(-4822.61 -1127.45)"/><path class="cls-109" d="M4935.87,1211.42a.33.33,0,0,1,.22-.63.33.33,0,1,1-.22.63Z" transform="translate(-4822.61 -1127.45)"/><path class="cls-110" d="M4936.32,1210.57a.22.22,0,1,0,.2.24A.22.22,0,0,0,4936.32,1210.57Z" transform="translate(-4822.61 -1127.45)"/><path class="cls-111" d="M4938.93,1209.26a.23.23,0,1,0,.2.25A.23.23,0,0,0,4938.93,1209.26Z" transform="translate(-4822.61 -1127.45)"/><path class="cls-112" d="M4939.31,1210a.13.13,0,0,0-.15.13.14.14,0,1,0,.15-.13Z" transform="translate(-4822.61 -1127.45)"/><circle class="cls-113" cx="116.23" cy="72.47" r="0.25"/><circle class="cls-114" cx="119.52" cy="72.55" r="0.25"/><path class="cls-115" d="M4946.71,1206.06a.17.17,0,0,1-.22-.06.17.17,0,0,1,.06-.22.16.16,0,0,1,.16.28Z" transform="translate(-4822.61 -1127.45)"/><circle class="cls-116" cx="124.45" cy="77.54" r="0.33"/><path class="cls-117" d="M4942.3,1199.3a.18.18,0,0,1-.23-.06.17.17,0,0,1,.06-.22.15.15,0,0,1,.22.06A.16.16,0,0,1,4942.3,1199.3Z" transform="translate(-4822.61 -1127.45)"/><circle class="cls-118" cx="112.72" cy="75.39" r="0.25"/><path class="cls-119" d="M4938.73,1203.15a.25.25,0,0,1-.34-.1.25.25,0,0,1,.43-.25A.26.26,0,0,1,4938.73,1203.15Z" transform="translate(-4822.61 -1127.45)"/><path class="cls-120" d="M4938.78,1202.22a.15.15,0,0,1-.22-.06.16.16,0,0,1,0-.22.19.19,0,0,1,.23.06A.17.17,0,0,1,4938.78,1202.22Z" transform="translate(-4822.61 -1127.45)"/><path class="cls-121" d="M4946.86,1204.39a.23.23,0,0,0,0,.31.22.22,0,0,0,.31-.31A.23.23,0,0,0,4946.86,1204.39Z" transform="translate(-4822.61 -1127.45)"/><path class="cls-122" d="M4947.55,1201.56a.23.23,0,0,0,0,.31.23.23,0,0,0,.32,0,.23.23,0,0,0-.32-.32Z" transform="translate(-4822.61 -1127.45)"/><path class="cls-123" d="M4943.59,1196.37a.15.15,0,0,0,0,.2.14.14,0,1,0,.2-.2A.15.15,0,0,0,4943.59,1196.37Z" transform="translate(-4822.61 -1127.45)"/><path class="cls-124" d="M4944.38,1196.12a.3.3,0,0,0,0,.42.31.31,0,0,0,.42,0,.29.29,0,0,0,0-.42A.28.28,0,0,0,4944.38,1196.12Z" transform="translate(-4822.61 -1127.45)"/><path class="cls-125" d="M4948.36,1201.73a.15.15,0,0,0,0,.21.15.15,0,0,0,.21-.21A.15.15,0,0,0,4948.36,1201.73Z" transform="translate(-4822.61 -1127.45)"/><path class="cls-126" d="M4938.88,1209.25a.16.16,0,0,1-.1-.21.16.16,0,0,1,.2-.09.16.16,0,0,1-.1.3Z" transform="translate(-4822.61 -1127.45)"/><path class="cls-127" d="M4939.8,1209.14a.34.34,0,0,1-.21-.43.34.34,0,0,1,.43-.2.33.33,0,0,1-.22.63Z" transform="translate(-4822.61 -1127.45)"/><circle class="cls-128" cx="4940.22" cy="1208.5" r="0.22" transform="matrix(0.13, -0.99, 0.99, 0.13, -1735.34, 4817.38)"/><path class="cls-129" d="M4942.85,1207a.22.22,0,1,0,0,.44.23.23,0,0,0,.25-.2A.22.22,0,0,0,4942.85,1207Z" transform="translate(-4822.61 -1127.45)"/><path class="cls-130" d="M4943.24,1207.7a.15.15,0,0,0-.16.13.15.15,0,1,0,.29,0A.15.15,0,0,0,4943.24,1207.7Z" transform="translate(-4822.61 -1127.45)"/><circle class="cls-131" cx="124.5" cy="67.65" r="0.25"/><circle class="cls-132" cx="127.78" cy="67.74" r="0.25"/><path class="cls-133" d="M4955,1201.24a.15.15,0,0,1-.21,0,.16.16,0,0,1,.05-.22.15.15,0,0,1,.22.06A.14.14,0,0,1,4955,1201.24Z" transform="translate(-4822.61 -1127.45)"/><circle class="cls-134" cx="132.71" cy="72.73" r="0.33"/><path class="cls-135" d="M4950.56,1194.48a.16.16,0,0,1-.22,0,.15.15,0,0,1,.06-.22.16.16,0,1,1,.16.27Z" transform="translate(-4822.61 -1127.45)"/><circle class="cls-136" cx="120.98" cy="70.58" r="0.25"/><path class="cls-137" d="M4947,1198.33a.26.26,0,0,1-.35-.09.25.25,0,0,1,.09-.34.26.26,0,0,1,.35.09A.25.25,0,0,1,4947,1198.33Z" transform="translate(-4822.61 -1127.45)"/><path class="cls-138" d="M4947,1197.41a.16.16,0,1,1-.16-.28.16.16,0,0,1,.16.28Z" transform="translate(-4822.61 -1127.45)"/><path class="cls-139" d="M4955.13,1199.58a.22.22,0,0,0,0,.31.23.23,0,0,0,.31,0,.22.22,0,0,0,0-.31A.21.21,0,0,0,4955.13,1199.58Z" transform="translate(-4822.61 -1127.45)"/><path class="cls-140" d="M4955.82,1196.74a.22.22,0,0,0,0,.32.22.22,0,1,0,.31-.31A.22.22,0,0,0,4955.82,1196.74Z" transform="translate(-4822.61 -1127.45)"/><path class="cls-141" d="M4951.86,1191.56a.13.13,0,0,0,0,.2.13.13,0,0,0,.19,0,.14.14,0,1,0-.19-.2Z" transform="translate(-4822.61 -1127.45)"/><path class="cls-142" d="M4952.64,1191.3a.29.29,0,0,0,0,.42.28.28,0,0,0,.41,0,.29.29,0,0,0,0-.41A.3.3,0,0,0,4952.64,1191.3Z" transform="translate(-4822.61 -1127.45)"/><path class="cls-143" d="M4956.62,1196.92a.14.14,0,1,0,.2,0A.13.13,0,0,0,4956.62,1196.92Z" transform="translate(-4822.61 -1127.45)"/><path class="cls-144" d="M4947.14,1204.43a.16.16,0,1,1,.2-.09A.16.16,0,0,1,4947.14,1204.43Z" transform="translate(-4822.61 -1127.45)"/><path class="cls-145" d="M4948.06,1204.32a.32.32,0,0,1-.2-.42.33.33,0,0,1,.42-.21.32.32,0,0,1,.2.43A.33.33,0,0,1,4948.06,1204.32Z" transform="translate(-4822.61 -1127.45)"/><circle class="cls-146" cx="4948.49" cy="1203.69" r="0.22" transform="translate(-1723.41 4821.39) rotate(-82.38)"/><path class="cls-147" d="M4951.12,1202.16a.23.23,0,0,0-.25.21.23.23,0,0,0,.45,0A.23.23,0,0,0,4951.12,1202.16Z" transform="translate(-4822.61 -1127.45)"/><path class="cls-148" d="M4951.5,1202.89a.15.15,0,0,0-.16.13.15.15,0,1,0,.29,0A.15.15,0,0,0,4951.5,1202.89Z" transform="translate(-4822.61 -1127.45)"/><path class="cls-149" d="M4931,1210.79a.39.39,0,0,1-.54-.15.39.39,0,0,1,.14-.54.4.4,0,1,1,.4.69Z" transform="translate(-4822.61 -1127.45)"/><path class="cls-150" d="M4933.77,1207.65a.36.36,0,1,0,.5,0A.35.35,0,0,0,4933.77,1207.65Z" transform="translate(-4822.61 -1127.45)"/><g class="cls-28"><path class="cls-151" d="M4926.35,1210.86a.35.35,0,1,0,.49.51.35.35,0,0,0-.49-.51Z" transform="translate(-4822.61 -1127.45)"/><path class="cls-152" d="M4928.52,1210.78a.25.25,0,0,0,0,.36.24.24,0,0,0,.35,0,.25.25,0,1,0-.35-.36Z" transform="translate(-4822.61 -1127.45)"/></g><path class="cls-153" d="M4934.92,1208.5a.4.4,0,1,1,.14-.54A.39.39,0,0,1,4934.92,1208.5Z" transform="translate(-4822.61 -1127.45)"/><path class="cls-154" d="M4937.7,1205.37a.35.35,0,1,0,.5,0A.35.35,0,0,0,4937.7,1205.37Z" transform="translate(-4822.61 -1127.45)"/><g class="cls-28"><path class="cls-155" d="M4930.27,1208.58a.35.35,0,1,0,.5,0A.35.35,0,0,0,4930.27,1208.58Z" transform="translate(-4822.61 -1127.45)"/><path class="cls-156" d="M4932.45,1208.5a.25.25,0,0,0,0,.35.25.25,0,0,0,.36,0,.25.25,0,0,0-.35-.35Z" transform="translate(-4822.61 -1127.45)"/></g><path class="cls-157" d="M4938.84,1206.22a.41.41,0,0,1-.55-.15.4.4,0,1,1,.55.15Z" transform="translate(-4822.61 -1127.45)"/><path class="cls-158" d="M4941.62,1203.08a.35.35,0,0,0,0,.5.35.35,0,1,0,.5-.5A.35.35,0,0,0,4941.62,1203.08Z" transform="translate(-4822.61 -1127.45)"/><g class="cls-28"><path class="cls-159" d="M4934.2,1206.29a.35.35,0,1,0,.49.5.36.36,0,0,0,0-.5A.35.35,0,0,0,4934.2,1206.29Z" transform="translate(-4822.61 -1127.45)"/><path class="cls-160" d="M4936.37,1206.21a.24.24,0,0,0,0,.35.25.25,0,0,0,.35,0,.25.25,0,0,0,0-.36A.24.24,0,0,0,4936.37,1206.21Z" transform="translate(-4822.61 -1127.45)"/></g><path class="cls-161" d="M4947.1,1201.4a.39.39,0,0,1-.54-.14.4.4,0,1,1,.69-.4A.4.4,0,0,1,4947.1,1201.4Z" transform="translate(-4822.61 -1127.45)"/><path class="cls-162" d="M4949.88,1198.27a.36.36,0,0,0,0,.5.35.35,0,0,0,.5,0,.35.35,0,1,0-.5-.5Z" transform="translate(-4822.61 -1127.45)"/><path class="cls-163" d="M4942.46,1201.47a.37.37,0,0,0,0,.51.36.36,0,0,0,.51,0,.35.35,0,0,0,0-.5A.36.36,0,0,0,4942.46,1201.47Z" transform="translate(-4822.61 -1127.45)"/><path class="cls-164" d="M4944.63,1201.4a.24.24,0,0,0,0,.35.25.25,0,0,0,.36,0,.25.25,0,0,0,0-.35A.25.25,0,0,0,4944.63,1201.4Z" transform="translate(-4822.61 -1127.45)"/><path class="cls-165" d="M4932.87,1199.84l-15.12,8.73h0c-1,.54-1.62,1.75-1.62,3.5a11.89,11.89,0,0,0,5.29,9.32,3.68,3.68,0,0,0,3.79.36v0l15.26-8.84C4944.86,1209.68,4938.19,1197.46,4932.87,1199.84Z" transform="translate(-4822.61 -1127.45)"/></g><polygon class="cls-166" points="18.88 39.49 38.02 28.34 49.91 35.1 30.41 46.07 18.88 39.49"/><polygon class="cls-167" points="20.29 40.29 38.02 29.87 48.65 35.79 30.41 46.07 20.29 40.29"/><path class="cls-168" d="M4877.87,1147.5l1.21-.69a.28.28,0,0,1,.42.24v1.4a.27.27,0,0,1-.14.24l-1.21.7a.28.28,0,0,1-.42-.25v-1.39A.3.3,0,0,1,4877.87,1147.5Z" transform="translate(-4822.61 -1127.45)"/><path class="cls-169" d="M4877.87,1151l1.21-.7a.28.28,0,0,1,.42.25V1152a.29.29,0,0,1-.14.25l-1.21.69a.28.28,0,0,1-.42-.24v-1.39A.27.27,0,0,1,4877.87,1151Z" transform="translate(-4822.61 -1127.45)"/><path class="cls-168" d="M4877.87,1154.52l1.21-.7a.28.28,0,0,1,.42.24v1.4a.27.27,0,0,1-.14.24l-1.21.7a.28.28,0,0,1-.42-.24v-1.4A.27.27,0,0,1,4877.87,1154.52Z" transform="translate(-4822.61 -1127.45)"/><path class="cls-170" d="M4877.87,1158l1.21-.69a.28.28,0,0,1,.42.24v1.4a.27.27,0,0,1-.14.24l-1.21.7a.29.29,0,0,1-.42-.25v-1.39A.29.29,0,0,1,4877.87,1158Z" transform="translate(-4822.61 -1127.45)"/><path class="cls-170" d="M4877.87,1161.53l1.21-.7a.28.28,0,0,1,.42.25v1.39a.3.3,0,0,1-.14.25l-1.21.69a.28.28,0,0,1-.42-.24v-1.4A.27.27,0,0,1,4877.87,1161.53Z" transform="translate(-4822.61 -1127.45)"/><path class="cls-168" d="M4877.87,1165l1.21-.7a.28.28,0,0,1,.42.24v1.4a.27.27,0,0,1-.14.24l-1.21.7a.28.28,0,0,1-.42-.24v-1.4A.27.27,0,0,1,4877.87,1165Z" transform="translate(-4822.61 -1127.45)"/><path class="cls-168" d="M4877.87,1168.54l1.21-.7a.28.28,0,0,1,.42.25v1.39a.29.29,0,0,1-.14.25l-1.21.7a.29.29,0,0,1-.42-.25v-1.39A.29.29,0,0,1,4877.87,1168.54Z" transform="translate(-4822.61 -1127.45)"/><path class="cls-168" d="M4880.72,1145.93l1.06-.61a.36.36,0,0,1,.53.31v1.22a.34.34,0,0,1-.18.31l-1.05.61a.36.36,0,0,1-.54-.31v-1.22A.35.35,0,0,1,4880.72,1145.93Z" transform="translate(-4822.61 -1127.45)"/><path class="cls-168" d="M4880.72,1149.43l1.06-.6a.35.35,0,0,1,.53.31v1.21a.33.33,0,0,1-.18.31l-1.05.61a.36.36,0,0,1-.54-.31v-1.21A.38.38,0,0,1,4880.72,1149.43Z" transform="translate(-4822.61 -1127.45)"/><path class="cls-170" d="M4880.72,1152.94l1.06-.61a.36.36,0,0,1,.53.31v1.22a.33.33,0,0,1-.18.31l-1.05.61a.36.36,0,0,1-.54-.31v-1.22A.37.37,0,0,1,4880.72,1152.94Z" transform="translate(-4822.61 -1127.45)"/><path class="cls-170" d="M4880.72,1156.45l1.06-.61a.35.35,0,0,1,.53.31v1.22a.36.36,0,0,1-.18.31l-1.05.61a.37.37,0,0,1-.54-.32v-1.21A.35.35,0,0,1,4880.72,1156.45Z" transform="translate(-4822.61 -1127.45)"/><path class="cls-168" d="M4880.72,1160l1.06-.6a.35.35,0,0,1,.53.31v1.21a.33.33,0,0,1-.18.31l-1.05.61a.36.36,0,0,1-.54-.31v-1.22A.38.38,0,0,1,4880.72,1160Z" transform="translate(-4822.61 -1127.45)"/><path class="cls-168" d="M4880.72,1163.46l1.06-.61a.36.36,0,0,1,.53.31v1.22a.33.33,0,0,1-.18.31l-1.05.61a.36.36,0,0,1-.54-.31v-1.22A.35.35,0,0,1,4880.72,1163.46Z" transform="translate(-4822.61 -1127.45)"/><path class="cls-168" d="M4880.72,1167l1.06-.61a.35.35,0,0,1,.53.31v1.21a.36.36,0,0,1-.18.32l-1.05.6a.36.36,0,0,1-.54-.31v-1.21A.35.35,0,0,1,4880.72,1167Z" transform="translate(-4822.61 -1127.45)"/><path class="cls-170" d="M4884.74,1143.75l1-.59a.38.38,0,0,1,.56.33v1.17a.37.37,0,0,1-.19.33l-1,.59a.38.38,0,0,1-.57-.33v-1.17A.37.37,0,0,1,4884.74,1143.75Z" transform="translate(-4822.61 -1127.45)"/><path class="cls-168" d="M4884.74,1147.25l1-.58a.37.37,0,0,1,.56.32v1.18a.39.39,0,0,1-.19.33l-1,.58a.38.38,0,0,1-.57-.33v-1.17A.39.39,0,0,1,4884.74,1147.25Z" transform="translate(-4822.61 -1127.45)"/><path class="cls-168" d="M4884.74,1150.76l1-.59a.38.38,0,0,1,.56.33v1.17a.37.37,0,0,1-.19.33l-1,.59a.38.38,0,0,1-.57-.33v-1.17A.37.37,0,0,1,4884.74,1150.76Z" transform="translate(-4822.61 -1127.45)"/><path class="cls-168" d="M4884.74,1154.27l1-.59a.37.37,0,0,1,.56.33v1.17a.37.37,0,0,1-.19.33l-1,.58a.38.38,0,0,1-.57-.32v-1.18A.36.36,0,0,1,4884.74,1154.27Z" transform="translate(-4822.61 -1127.45)"/><path class="cls-170" d="M4884.74,1157.77l1-.58a.37.37,0,0,1,.56.32v1.18a.36.36,0,0,1-.19.32l-1,.59a.38.38,0,0,1-.57-.33v-1.17A.39.39,0,0,1,4884.74,1157.77Z" transform="translate(-4822.61 -1127.45)"/><path class="cls-168" d="M4884.74,1161.28l1-.59a.38.38,0,0,1,.56.33v1.17a.37.37,0,0,1-.19.33l-1,.59a.38.38,0,0,1-.57-.33v-1.17A.37.37,0,0,1,4884.74,1161.28Z" transform="translate(-4822.61 -1127.45)"/><path class="cls-168" d="M4884.74,1164.79l1-.59a.37.37,0,0,1,.56.33v1.17a.39.39,0,0,1-.19.33l-1,.58a.38.38,0,0,1-.57-.32v-1.18A.36.36,0,0,1,4884.74,1164.79Z" transform="translate(-4822.61 -1127.45)"/><path class="cls-168" d="M4887.54,1142.2l1.06-.61a.36.36,0,0,1,.54.31v1.22a.35.35,0,0,1-.18.31l-1.06.61a.37.37,0,0,1-.54-.32v-1.21A.35.35,0,0,1,4887.54,1142.2Z" transform="translate(-4822.61 -1127.45)"/><path class="cls-168" d="M4887.54,1145.71l1.06-.61a.36.36,0,0,1,.54.31v1.21a.38.38,0,0,1-.18.32l-1.06.6a.36.36,0,0,1-.54-.31V1146A.35.35,0,0,1,4887.54,1145.71Z" transform="translate(-4822.61 -1127.45)"/><path class="cls-170" d="M4887.54,1149.21l1.06-.61a.37.37,0,0,1,.54.32v1.21a.35.35,0,0,1-.18.31l-1.06.61a.36.36,0,0,1-.54-.31v-1.22A.37.37,0,0,1,4887.54,1149.21Z" transform="translate(-4822.61 -1127.45)"/><path class="cls-171" d="M4887.54,1152.72l1.06-.61a.36.36,0,0,1,.54.31v1.22a.37.37,0,0,1-.18.31l-1.06.61a.37.37,0,0,1-.54-.32V1153A.35.35,0,0,1,4887.54,1152.72Z" transform="translate(-4822.61 -1127.45)"/><path class="cls-168" d="M4887.54,1156.22l1.06-.6a.36.36,0,0,1,.54.31v1.21a.35.35,0,0,1-.18.31l-1.06.61a.36.36,0,0,1-.54-.31v-1.21A.38.38,0,0,1,4887.54,1156.22Z" transform="translate(-4822.61 -1127.45)"/><path class="cls-168" d="M4887.54,1159.73l1.06-.61a.36.36,0,0,1,.54.32v1.21a.35.35,0,0,1-.18.31l-1.06.61a.36.36,0,0,1-.54-.31V1160A.35.35,0,0,1,4887.54,1159.73Z" transform="translate(-4822.61 -1127.45)"/><path class="cls-168" d="M4887.54,1163.24l1.06-.61a.36.36,0,0,1,.54.31v1.22a.38.38,0,0,1-.18.31l-1.06.6a.36.36,0,0,1-.54-.31v-1.21A.35.35,0,0,1,4887.54,1163.24Z" transform="translate(-4822.61 -1127.45)"/><path class="cls-168" d="M4877.93,1175.32l1-.55a.4.4,0,0,1,.6.35v1.11a.38.38,0,0,1-.2.35l-1,.56a.41.41,0,0,1-.61-.35v-1.12A.43.43,0,0,1,4877.93,1175.32Z" transform="translate(-4822.61 -1127.45)"/><path class="cls-170" d="M4877.93,1178.83l1-.56a.4.4,0,0,1,.6.35v1.12a.41.41,0,0,1-.2.35l-1,.55a.4.4,0,0,1-.61-.35v-1.11A.42.42,0,0,1,4877.93,1178.83Z" transform="translate(-4822.61 -1127.45)"/><path class="cls-168" d="M4877.93,1182.34l1-.56a.4.4,0,0,1,.6.35v1.11a.38.38,0,0,1-.2.35l-1,.56a.41.41,0,0,1-.61-.35v-1.11A.4.4,0,0,1,4877.93,1182.34Z" transform="translate(-4822.61 -1127.45)"/><path class="cls-172" d="M4877.93,1185.84l1-.55a.4.4,0,0,1,.6.35v1.11a.39.39,0,0,1-.2.35l-1,.56a.41.41,0,0,1-.61-.35v-1.12A.43.43,0,0,1,4877.93,1185.84Z" transform="translate(-4822.61 -1127.45)"/><path class="cls-168" d="M4877.93,1189.35l1-.56a.4.4,0,0,1,.6.35v1.12a.41.41,0,0,1-.2.35l-1,.55a.41.41,0,0,1-.61-.35v-1.11A.4.4,0,0,1,4877.93,1189.35Z" transform="translate(-4822.61 -1127.45)"/><path class="cls-168" d="M4877.93,1192.86l1-.56a.4.4,0,0,1,.6.35v1.11a.38.38,0,0,1-.2.35l-1,.56a.41.41,0,0,1-.61-.35v-1.11A.4.4,0,0,1,4877.93,1192.86Z" transform="translate(-4822.61 -1127.45)"/><path class="cls-168" d="M4877.93,1196.36l1-.56a.4.4,0,0,1,.6.35v1.12a.39.39,0,0,1-.2.35l-1,.56a.41.41,0,0,1-.61-.35v-1.12A.42.42,0,0,1,4877.93,1196.36Z" transform="translate(-4822.61 -1127.45)"/><path class="cls-170" d="M4880.74,1173.77l1-.56a.4.4,0,0,1,.6.35v1.12a.41.41,0,0,1-.2.35l-1,.55a.41.41,0,0,1-.61-.35v-1.11A.42.42,0,0,1,4880.74,1173.77Z" transform="translate(-4822.61 -1127.45)"/><path class="cls-168" d="M4880.74,1177.28l1-.56a.4.4,0,0,1,.6.35v1.11a.38.38,0,0,1-.2.35l-1,.56a.41.41,0,0,1-.61-.35v-1.11A.4.4,0,0,1,4880.74,1177.28Z" transform="translate(-4822.61 -1127.45)"/><path class="cls-168" d="M4880.74,1180.78l1-.55a.39.39,0,0,1,.6.34v1.12a.39.39,0,0,1-.2.35l-1,.56a.41.41,0,0,1-.61-.35v-1.12A.43.43,0,0,1,4880.74,1180.78Z" transform="translate(-4822.61 -1127.45)"/><path class="cls-170" d="M4880.74,1184.29l1-.56a.4.4,0,0,1,.6.35v1.12a.38.38,0,0,1-.2.34l-1,.56a.41.41,0,0,1-.61-.35v-1.11A.4.4,0,0,1,4880.74,1184.29Z" transform="translate(-4822.61 -1127.45)"/><path class="cls-168" d="M4880.74,1187.8l1-.56a.4.4,0,0,1,.6.35v1.11a.38.38,0,0,1-.2.35l-1,.56a.41.41,0,0,1-.61-.35v-1.12A.4.4,0,0,1,4880.74,1187.8Z" transform="translate(-4822.61 -1127.45)"/><path class="cls-170" d="M4880.74,1191.3l1-.56a.4.4,0,0,1,.6.35v1.12a.39.39,0,0,1-.2.35l-1,.55a.4.4,0,0,1-.61-.34v-1.12A.42.42,0,0,1,4880.74,1191.3Z" transform="translate(-4822.61 -1127.45)"/><path class="cls-168" d="M4880.74,1194.81l1-.56a.4.4,0,0,1,.6.35v1.11a.38.38,0,0,1-.2.35l-1,.56a.41.41,0,0,1-.61-.35v-1.11A.4.4,0,0,1,4880.74,1194.81Z" transform="translate(-4822.61 -1127.45)"/><path class="cls-170" d="M4884.75,1171.6l1-.57a.38.38,0,0,1,.58.33v1.15a.39.39,0,0,1-.19.34l-1,.57a.39.39,0,0,1-.58-.34v-1.14A.4.4,0,0,1,4884.75,1171.6Z" transform="translate(-4822.61 -1127.45)"/><path class="cls-168" d="M4884.75,1175.11l1-.58a.39.39,0,0,1,.58.34V1176a.37.37,0,0,1-.19.33l-1,.58a.39.39,0,0,1-.58-.34v-1.15A.38.38,0,0,1,4884.75,1175.11Z" transform="translate(-4822.61 -1127.45)"/><path class="cls-170" d="M4884.75,1178.61l1-.57a.39.39,0,0,1,.58.33v1.15a.39.39,0,0,1-.19.34l-1,.57a.38.38,0,0,1-.58-.33V1179A.4.4,0,0,1,4884.75,1178.61Z" transform="translate(-4822.61 -1127.45)"/><path class="cls-170" d="M4884.75,1182.12l1-.58a.39.39,0,0,1,.58.34V1183a.39.39,0,0,1-.19.34l-1,.57a.39.39,0,0,1-.58-.34v-1.15A.4.4,0,0,1,4884.75,1182.12Z" transform="translate(-4822.61 -1127.45)"/><path class="cls-168" d="M4884.75,1185.62l1-.57a.39.39,0,0,1,.58.34v1.15a.39.39,0,0,1-.19.33l-1,.58a.39.39,0,0,1-.58-.34V1186A.4.4,0,0,1,4884.75,1185.62Z" transform="translate(-4822.61 -1127.45)"/><path class="cls-168" d="M4884.75,1189.13l1-.57a.38.38,0,0,1,.58.33V1190a.39.39,0,0,1-.19.34l-1,.57a.38.38,0,0,1-.58-.33v-1.15A.4.4,0,0,1,4884.75,1189.13Z" transform="translate(-4822.61 -1127.45)"/><path class="cls-168" d="M4884.75,1192.64l1-.58a.39.39,0,0,1,.58.34v1.15a.37.37,0,0,1-.19.33l-1,.58a.39.39,0,0,1-.58-.34V1193A.38.38,0,0,1,4884.75,1192.64Z" transform="translate(-4822.61 -1127.45)"/><path class="cls-170" d="M4887.56,1170.05l1-.58a.39.39,0,0,1,.59.34V1171a.38.38,0,0,1-.2.33l-1,.58a.39.39,0,0,1-.59-.34v-1.15A.38.38,0,0,1,4887.56,1170.05Z" transform="translate(-4822.61 -1127.45)"/><path class="cls-168" d="M4887.56,1173.55l1-.57a.39.39,0,0,1,.59.33v1.15a.4.4,0,0,1-.2.34l-1,.57a.39.39,0,0,1-.59-.33v-1.15A.4.4,0,0,1,4887.56,1173.55Z" transform="translate(-4822.61 -1127.45)"/><path class="cls-168" d="M4887.56,1177.06l1-.58a.39.39,0,0,1,.59.34V1178a.4.4,0,0,1-.2.34l-1,.57a.39.39,0,0,1-.59-.34v-1.15A.4.4,0,0,1,4887.56,1177.06Z" transform="translate(-4822.61 -1127.45)"/><path class="cls-168" d="M4887.56,1180.56l1-.57a.39.39,0,0,1,.59.34v1.15a.4.4,0,0,1-.2.33l-1,.58a.39.39,0,0,1-.59-.34v-1.15A.4.4,0,0,1,4887.56,1180.56Z" transform="translate(-4822.61 -1127.45)"/><path class="cls-170" d="M4887.56,1184.07l1-.57a.39.39,0,0,1,.59.33V1185a.4.4,0,0,1-.2.34l-1,.57a.39.39,0,0,1-.59-.33v-1.15A.4.4,0,0,1,4887.56,1184.07Z" transform="translate(-4822.61 -1127.45)"/><path class="cls-168" d="M4887.56,1187.58l1-.58a.39.39,0,0,1,.59.34v1.15a.38.38,0,0,1-.2.33l-1,.58a.39.39,0,0,1-.59-.34v-1.15A.38.38,0,0,1,4887.56,1187.58Z" transform="translate(-4822.61 -1127.45)"/><path class="cls-168" d="M4887.56,1191.08l1-.57a.39.39,0,0,1,.59.34V1192a.4.4,0,0,1-.2.34l-1,.57a.39.39,0,0,1-.59-.33v-1.15A.4.4,0,0,1,4887.56,1191.08Z" transform="translate(-4822.61 -1127.45)"/><polyline class="cls-173" points="102.84 49.37 112.14 46.07 114.56 53.73 126.71 49.74 129.26 54.85 143.9 50.77"/><path class="cls-174" d="M4931.81,1162.46a4,4,0,0,1,1.27,2.9c-.08,1.1-1,1.48-2,.87l-.81-.47v.64l-.92-.53v-.64l-.44-.25v.64l-.92-.53v-.64l-.69-.4a1,1,0,0,1-.45-.79c0-.29.2-.41.46-.27l.69.4V1161l-.69-.4a1,1,0,0,1-.45-.8c0-.29.2-.4.46-.26l.69.4v-2.48l-.69-.4a1,1,0,0,1-.45-.79c0-.29.2-.41.46-.26l.69.39v-1l.92.53v1l.44.26v-1l.92.53v1l.17.1a4.81,4.81,0,0,1,1.93,2.94A1.58,1.58,0,0,1,4931.81,1162.46Zm.36,2.28c.05-.62-.49-1.43-1.44-2.16l-1.85-1.07v2.41l2.16,1.25c.66.38,1.1.07,1.14-.43m-3.28-6.77v2.48l1.78,1c.47,0,.94-.25.8-1a2.8,2.8,0,0,0-1-1.63l-1.53-.88" transform="translate(-4822.61 -1127.45)"/><g class="cls-175"><path class="cls-176" d="M4931.81,1162.46a4,4,0,0,1,1.27,2.9c-.08,1.1-1,1.48-2,.87l-.81-.47v.64l-.92-.53v-.64l-.44-.25v.64l-.92-.53v-.64l-.69-.4a1,1,0,0,1-.45-.79c0-.29.2-.41.46-.27l.69.4V1161l-.69-.4a1,1,0,0,1-.45-.8c0-.29.2-.4.46-.26l.69.4v-2.48l-.69-.4a1,1,0,0,1-.45-.79c0-.29.2-.41.46-.26l.69.39v-1l.92.53v1l.44.26v-1l.92.53v1l.17.1a4.81,4.81,0,0,1,1.93,2.94A1.58,1.58,0,0,1,4931.81,1162.46Zm.36,2.28c.05-.62-.49-1.43-1.44-2.16l-1.85-1.07v2.41l2.16,1.25c.66.38,1.1.07,1.14-.43m-3.28-6.77v2.48l1.78,1c.47,0,.94-.25.8-1a2.8,2.8,0,0,0-1-1.63l-1.53-.88" transform="translate(-4822.61 -1127.45)"/></g></svg>