<svg id="Layer_1" data-name="Layer 1" xmlns="http://www.w3.org/2000/svg" viewBox="0 0 568.83 315.01"><defs><style>.cls-1{opacity:0.5;}.cls-2{fill:#f9b233;}.cls-3{fill:#c27200;}</style></defs><title>elasticbitcoin-Adaptive Supply</title><g class="cls-1"><path class="cls-2" d="M493.61,312.74a2,2,0,0,1-2-2L491.49,228a2,2,0,0,1,2-2H504.9l-30.17-30.06L444.24,226h11.12a2,2,0,0,1,1.42.59,1.92,1.92,0,0,1,.58,1.42l-.18,42.46a2,2,0,0,1-2,2h0a2,2,0,0,1-2-2l.18-40.45h-14a2,2,0,0,1-1.4-3.43l35.37-34.87a2,2,0,0,1,2.82,0l35,34.87a2,2,0,0,1-1.41,3.42H495.49l.12,80.74a2,2,0,0,1-2,2Z" transform="translate(-0.78 0.3)"/><path class="cls-2" d="M523.24,312.74a2,2,0,0,1-2-2L521,279.34a2,2,0,0,1,.58-1.43,2,2,0,0,1,1.42-.59h7.45l-22.58-22.23-5.43,5a2,2,0,0,1-2.72-2.93l6.84-6.34a2,2,0,0,1,2.76.05l27.42,27a2,2,0,0,1-1.41,3.42H525l.23,29.4a2,2,0,0,1-2,2Z" transform="translate(-0.78 0.3)"/></g><g class="cls-1"><path class="cls-2" d="M68.24,285.12a1.91,1.91,0,0,1-.62-.1,50.24,50.24,0,1,1,50.76-83.57,2,2,0,0,1-2.81,2.85,46.24,46.24,0,1,0-46.72,76.91,2,2,0,0,1-.61,3.91Z" transform="translate(-0.78 0.3)"/><path class="cls-2" d="M134.4,203.39h-7.75v4h2.94L94.46,241.84,78.32,226.7l-27,27a35.84,35.84,0,0,1,61.31-36.86,2,2,0,1,0,3.29-2.27,39.84,39.84,0,0,0-66.83,43.32,1.85,1.85,0,0,0,.21.33A39.86,39.86,0,0,0,81.12,277v5.23H76.74v31.91H89.07V303.56L86,293.76l3.11-5.95v-5.57H85.12V277a39.86,39.86,0,0,0,37-47.95,2,2,0,1,0-3.91.82,35.84,35.84,0,0,1-64.77,27.41l25-25,16.11,15.11,37.88-37.14v2.43h4v-9.28ZM85.07,310.15H80.74V286.24h4.33v23.91Z" transform="translate(-0.78 0.3)"/></g><path class="cls-3" d="M278.65,161.28a43.84,43.84,0,1,1,43.83-43.84A43.89,43.89,0,0,1,278.65,161.28Zm0-83.67a39.84,39.84,0,1,0,39.83,39.83A39.88,39.88,0,0,0,278.65,77.61Z" transform="translate(-0.78 0.3)"/><path class="cls-3" d="M306.21,98.18l-2.69-2.69-3.11,3.12a15.17,15.17,0,0,0-1.06-1.22A12.51,12.51,0,0,0,297.66,96l3.18-3.18-2.69-2.69-4.08,4.08a13.15,13.15,0,0,0-10.24,1,2,2,0,0,0,1.91,3.51A9.1,9.1,0,0,1,298.07,111a2,2,0,0,0,3.51,1.92,13.14,13.14,0,0,0,.75-10.88Z" transform="translate(-0.78 0.3)"/><path class="cls-3" d="M272.28,136.81a9.09,9.09,0,0,1-12.35-12.35,2,2,0,0,0-3.51-1.93,13.15,13.15,0,0,0-1,10.29l-4.36,4.36,2.69,2.69,3.45-3.45a12.51,12.51,0,0,0,1.42,1.68,12.08,12.08,0,0,0,1.21,1.06l-3.39,3.39,2.69,2.69,4.16-4.16a13.26,13.26,0,0,0,4.62.85,13,13,0,0,0,6.28-1.61,2,2,0,0,0-1.93-3.51Z" transform="translate(-0.78 0.3)"/><path class="cls-3" d="M294.56,114.57a9.12,9.12,0,0,1-4.39,1.17H281v-7.18h0l0-1.8a9,9,0,0,1,1.17-4.58,2,2,0,1,0-3.48-2,12.85,12.85,0,0,0-1.59,4.79H277v10.74h-8.92l-1.87,0v.11a13,13,0,0,0-4.74,1.58,2,2,0,1,0,2,3.48,8.87,8.87,0,0,1,4.61-1.17l9,0V129a9.16,9.16,0,0,1-1.22,4.41,2,2,0,0,0,.72,2.74,2,2,0,0,0,1,.27,2,2,0,0,0,1.73-1,13.07,13.07,0,0,0,1.77-6.38v-9.31h9.21a13.15,13.15,0,0,0,6.34-1.69,2,2,0,1,0-2-3.48Z" transform="translate(-0.78 0.3)"/><path class="cls-3" d="M250.49,76.78a6.63,6.63,0,1,1,6.63-6.63A6.63,6.63,0,0,1,250.49,76.78Zm0-9.25a2.63,2.63,0,1,0,2.63,2.62A2.63,2.63,0,0,0,250.49,67.53Z" transform="translate(-0.78 0.3)"/><path class="cls-3" d="M278.65,69.19a6.63,6.63,0,1,1,6.62-6.62A6.64,6.64,0,0,1,278.65,69.19Zm0-9.25a2.63,2.63,0,1,0,2.62,2.63A2.63,2.63,0,0,0,278.65,59.94Z" transform="translate(-0.78 0.3)"/><path class="cls-3" d="M305.91,76.78a6.63,6.63,0,1,1,6.63-6.63A6.63,6.63,0,0,1,305.91,76.78Zm0-9.25a2.63,2.63,0,1,0,2.63,2.62A2.62,2.62,0,0,0,305.91,67.53Z" transform="translate(-0.78 0.3)"/><path class="cls-3" d="M326,96.5a6.63,6.63,0,1,1,6.62-6.62A6.63,6.63,0,0,1,326,96.5Zm0-9.25a2.63,2.63,0,1,0,2.62,2.63A2.63,2.63,0,0,0,326,87.25Z" transform="translate(-0.78 0.3)"/><path class="cls-3" d="M333,124.24a6.63,6.63,0,1,1,6.63-6.62A6.63,6.63,0,0,1,333,124.24Zm0-9.25a2.63,2.63,0,1,0,2.63,2.63A2.62,2.62,0,0,0,333,115Z" transform="translate(-0.78 0.3)"/><path class="cls-3" d="M325.92,151.22a6.63,6.63,0,1,1,6.63-6.62A6.63,6.63,0,0,1,325.92,151.22Zm0-9.25a2.63,2.63,0,1,0,2.63,2.63A2.63,2.63,0,0,0,325.92,142Z" transform="translate(-0.78 0.3)"/><path class="cls-3" d="M306.17,171.68a6.63,6.63,0,1,1,6.62-6.62A6.63,6.63,0,0,1,306.17,171.68Zm0-9.25a2.63,2.63,0,1,0,2.62,2.63A2.63,2.63,0,0,0,306.17,162.43Z" transform="translate(-0.78 0.3)"/><path class="cls-3" d="M251.68,171.68a6.63,6.63,0,1,1,6.62-6.62A6.64,6.64,0,0,1,251.68,171.68Zm0-9.25a2.63,2.63,0,1,0,2.62,2.63A2.63,2.63,0,0,0,251.68,162.43Z" transform="translate(-0.78 0.3)"/><path class="cls-3" d="M231.55,152a6.63,6.63,0,1,1,6.62-6.62A6.64,6.64,0,0,1,231.55,152Zm0-9.25a2.63,2.63,0,1,0,2.62,2.63A2.63,2.63,0,0,0,231.55,142.73Z" transform="translate(-0.78 0.3)"/><path class="cls-3" d="M224.26,124.72a6.63,6.63,0,1,1,6.62-6.63A6.64,6.64,0,0,1,224.26,124.72Zm0-9.25a2.63,2.63,0,1,0,2.62,2.62A2.62,2.62,0,0,0,224.26,115.47Z" transform="translate(-0.78 0.3)"/><path class="cls-3" d="M230.84,97.1a6.63,6.63,0,1,1,6.63-6.62A6.63,6.63,0,0,1,230.84,97.1Zm0-9.25a2.63,2.63,0,1,0,2.63,2.63A2.62,2.62,0,0,0,230.84,87.85Z" transform="translate(-0.78 0.3)"/><path class="cls-3" d="M183.11,272.78H183a2,2,0,0,1-1.91-2.09q0-.69.12-1.38a17.24,17.24,0,0,1,28.28-11,2,2,0,1,1-2.6,3,13.24,13.24,0,0,0-21.71,8.46,9.65,9.65,0,0,0-.09,1.07A2,2,0,0,1,183.11,272.78Z" transform="translate(-0.78 0.3)"/><path class="cls-3" d="M288.24,277.17a17.17,17.17,0,0,0-18.31,11.22,17.23,17.23,0,0,0-17.28,15.11c-.05.46-.09.92-.11,1.38a2,2,0,0,0,1.91,2.09h.09a2,2,0,0,0,2-1.91c0-.35.05-.71.09-1.07a13.25,13.25,0,0,1,21.72-8.45,2,2,0,0,0,2.59-3.05,17.24,17.24,0,0,0-6.91-3.57,13.18,13.18,0,0,1,13.73-7.78,2,2,0,1,0,.49-4Z" transform="translate(-0.78 0.3)"/><path class="cls-3" d="M319.89,312.08a2,2,0,0,1-.72-.14,16.86,16.86,0,0,1-9.7-21.68,2,2,0,0,1,2.58-1.16,2,2,0,0,1,1.16,2.58,12.85,12.85,0,0,0,7.4,16.53,2,2,0,0,1-.72,3.87Z" transform="translate(-0.78 0.3)"/><path class="cls-3" d="M367.41,296.9h-.09a2,2,0,0,1-1.9-2.09c.27-6.23,3.36-11.33,8.26-13.65a14,14,0,0,1,9.37-.84,2,2,0,1,1-.95,3.88,9.93,9.93,0,0,0-6.7.58c-3.54,1.67-5.78,5.49-6,10.21A2,2,0,0,1,367.41,296.9Z" transform="translate(-0.78 0.3)"/><path class="cls-3" d="M480.5,289.94a20.92,20.92,0,0,0-8.94-13.24,21.27,21.27,0,0,0-11.88-3.55l-.34,0A29.62,29.62,0,0,0,439.5,258.5a30.24,30.24,0,0,0-7.14-.69A31.32,31.32,0,0,0,403,222.86,18.05,18.05,0,0,0,383.24,215a32.54,32.54,0,0,0-34.88-15.7,33.35,33.35,0,0,0-26.54,33.83,19.24,19.24,0,0,0-4.94,2.53,20.16,20.16,0,0,0-7.69,21,12.09,12.09,0,0,0-2.16.77,12.55,12.55,0,0,0-6,6.26,10,10,0,0,1-5.84-1.18c-2.27-1.38-2.65-5.41-2.6-6.92V165.74a2,2,0,0,0-4,0v89.79c0,.31-.24,7.54,4.52,10.42a13.27,13.27,0,0,0,6.72,1.8,2,2,0,0,0,1.63,1.95l.37,0a2,2,0,0,0,2-1.64,9.29,9.29,0,0,1,4.92-7,8,8,0,0,1,1.71-.57,21.72,21.72,0,0,0,2.25,4,21.42,21.42,0,0,0,15.29,9h.2a2,2,0,0,0,.19-4A17.4,17.4,0,0,1,316,262.17c-5.47-7.67-4-18.11,3.24-23.27a14.86,14.86,0,0,1,3-1.67,32.51,32.51,0,0,0,9.07,17.87,2,2,0,1,0,2.83-2.82,29.28,29.28,0,0,1,15.05-49.08,28.57,28.57,0,0,1,34.37,29.13,2,2,0,1,0,4,.14,33,33,0,0,0-2.48-13.8,14.16,14.16,0,0,1,13,4.32q-1.53.16-3.06.48a2,2,0,0,0,.81,3.92A27.32,27.32,0,0,1,428,248.58a26.54,26.54,0,0,1-14.22,29.2,2,2,0,0,0-.91,2.68,2,2,0,0,0,2.67.91,30.58,30.58,0,0,0,16-19.53,26.79,26.79,0,0,1,7.07.57c13.45,2.92,22.17,15.5,19.44,28a22.09,22.09,0,0,1-5.55,10.46,2,2,0,0,0,2.91,2.75,25.87,25.87,0,0,0,5.66-26.46,17.09,17.09,0,0,1,15.47,13.55,16.58,16.58,0,0,1-16.91,19.95,2,2,0,0,0-.14,4h.74a20.58,20.58,0,0,0,20.23-24.77Z" transform="translate(-0.78 0.3)"/><path class="cls-3" d="M171.57,237.31a22.13,22.13,0,0,0-35.1,25.2,23.91,23.91,0,0,0-8.88,9.22,22,22,0,0,0-24.49,4.65c-.13.13-.24.27-.36.4a18.18,18.18,0,0,0-12.56,4.54,19.17,19.17,0,0,0-6.45,12.94,18.72,18.72,0,0,0,16.2,20.37l.71.07h.16a2,2,0,0,0,.16-4,5.14,5.14,0,0,1-.55-.06,14.73,14.73,0,0,1-12.7-16.06,15.22,15.22,0,0,1,5.11-10.26A14.44,14.44,0,0,1,99.57,281a22.06,22.06,0,0,0-2.95,10.7,2,2,0,0,0,2,2h0a2,2,0,0,0,2-2A18.14,18.14,0,0,1,126,275.4a24.65,24.65,0,0,0-1.27,10,2,2,0,0,0,2,1.85h.16a2,2,0,0,0,1.84-2.15,20.37,20.37,0,0,1,5.82-16,19.66,19.66,0,0,1,3.86-3,22.29,22.29,0,0,0,2.18,2.81c.19.21.39.41.59.61a2,2,0,0,0,2.83-2.83c-.17-.16-.33-.33-.48-.5a18.13,18.13,0,0,1,25.39-25.83,2,2,0,0,0,2.83-.16A2,2,0,0,0,171.57,237.31Z" transform="translate(-0.78 0.3)"/><path class="cls-3" d="M266.16,163.74a2,2,0,0,0-2,2v88.89a11,11,0,0,1-1.82,4.82,5.23,5.23,0,0,1-3.79,2H250.7a13.85,13.85,0,0,0-4-10.62,13.63,13.63,0,0,0-6.15-3.56,35.81,35.81,0,1,0-67.31-24.11,13.84,13.84,0,0,0-13,3.67,2,2,0,0,0,1.42,3.41,2,2,0,0,0,1.41-.58,9.8,9.8,0,0,1,9.25-2.58,35.36,35.36,0,0,0-.5,4.76c0,.46,0,.91,0,1.37a2,2,0,0,0,4,0c0-.41,0-.81,0-1.22a31.81,31.81,0,1,1,47.25,29,2,2,0,0,0,1,3.75,2,2,0,0,0,1-.25,35.81,35.81,0,0,0,13.68-13.57A9.86,9.86,0,0,1,237,270.46a2,2,0,0,0,0,4h0a13.8,13.8,0,0,0,9.58-4.06,13.61,13.61,0,0,0,3.18-5h8.69a9.33,9.33,0,0,0,7-3.54,14.93,14.93,0,0,0,2.64-7V165.74A2,2,0,0,0,266.16,163.74Z" transform="translate(-0.78 0.3)"/><path class="cls-2" d="M550.86,314.7H23.74a2,2,0,0,1,0-4H550.86a2,2,0,0,1,0,4Z" transform="translate(-0.78 0.3)"/><path class="cls-2" d="M567.61,314.71h-8a2,2,0,0,1,0-4h8a2,2,0,0,1,0,4Z" transform="translate(-0.78 0.3)"/><path class="cls-2" d="M16,314.7H2.78a2,2,0,1,1,0-4H16a2,2,0,1,1,0,4Z" transform="translate(-0.78 0.3)"/><g class="cls-1"><path class="cls-2" d="M224.26,37h-95.6a2,2,0,0,1,0-4h95.6a2,2,0,0,1,0,4Z" transform="translate(-0.78 0.3)"/><path class="cls-2" d="M153,69.19H24.32a2,2,0,1,1,0-4H153a2,2,0,0,1,0,4Z" transform="translate(-0.78 0.3)"/><path class="cls-2" d="M446.05,69.19H354a2,2,0,0,1,0-4h92.1a2,2,0,0,1,0,4Z" transform="translate(-0.78 0.3)"/><path class="cls-2" d="M425.32,177.65H345.45a2,2,0,0,1,0-4h79.87a2,2,0,0,1,0,4Z" transform="translate(-0.78 0.3)"/><path class="cls-2" d="M516.82,105.53H428a2,2,0,0,1,0-4h88.87a2,2,0,0,1,0,4Z" transform="translate(-0.78 0.3)"/><path class="cls-2" d="M419.82,105.53h-6.37a2,2,0,0,1,0-4h6.37a2,2,0,0,1,0,4Z" transform="translate(-0.78 0.3)"/><path class="cls-2" d="M175.24,125.74H93.57a2,2,0,0,1,0-4h81.67a2,2,0,0,1,0,4Z" transform="translate(-0.78 0.3)"/><path class="cls-2" d="M253.32,37H240.16a2,2,0,1,1,0-4h13.16a2,2,0,0,1,0,4Z" transform="translate(-0.78 0.3)"/><path class="cls-2" d="M276.57,33h-4.1V28.88a2,2,0,1,0-4,0V33h-4.11a2,2,0,0,0,0,4h4.11v4.1a2,2,0,1,0,4,0V37h4.1a2,2,0,0,0,0-4Z" transform="translate(-0.78 0.3)"/><path class="cls-2" d="M177,73.51a2,2,0,0,1-1.41-.59l-8.64-8.63a2,2,0,1,1,2.83-2.83l8.64,8.64a2,2,0,0,1,0,2.82A2,2,0,0,1,177,73.51Z" transform="translate(-0.78 0.3)"/><path class="cls-2" d="M168.32,73.51a2,2,0,0,1-1.42-.59,2,2,0,0,1,0-2.82l8.64-8.64a2,2,0,0,1,2.83,2.83l-8.64,8.63A2,2,0,0,1,168.32,73.51Z" transform="translate(-0.78 0.3)"/><path class="cls-2" d="M342.82,67.19l2.9-2.9a2,2,0,1,0-2.83-2.83L340,64.37l-2.9-2.91a2,2,0,1,0-2.83,2.83l2.9,2.9-2.9,2.91a2,2,0,0,0,1.41,3.41,2,2,0,0,0,1.42-.59L340,70l2.9,2.9a2,2,0,0,0,2.83-2.82Z" transform="translate(-0.78 0.3)"/><path class="cls-2" d="M139.22,156.26a2,2,0,0,1-2-2V142.05a2,2,0,0,1,4,0v12.21A2,2,0,0,1,139.22,156.26Z" transform="translate(-0.78 0.3)"/><path class="cls-2" d="M145.33,150.15H133.12a2,2,0,0,1,0-4h12.21a2,2,0,0,1,0,4Z" transform="translate(-0.78 0.3)"/><path class="cls-2" d="M31.14,188.75a2,2,0,0,1-2-2V174.54a2,2,0,0,1,4,0v12.21A2,2,0,0,1,31.14,188.75Z" transform="translate(-0.78 0.3)"/><path class="cls-2" d="M37.24,182.64H25a2,2,0,0,1,0-4H37.24a2,2,0,1,1,0,4Z" transform="translate(-0.78 0.3)"/><path class="cls-2" d="M402,101.53h-4.1v-4.1a2,2,0,0,0-4,0v4.1H389.8a2,2,0,0,0,0,4h4.11v4.11a2,2,0,0,0,4,0v-4.11H402a2,2,0,0,0,0-4Z" transform="translate(-0.78 0.3)"/><path class="cls-2" d="M430.82,43.09a2,2,0,0,1-2-2V28.88a2,2,0,1,1,4,0V41.09A2,2,0,0,1,430.82,43.09Z" transform="translate(-0.78 0.3)"/><path class="cls-2" d="M436.93,37H424.72a2,2,0,0,1,0-4h12.21a2,2,0,0,1,0,4Z" transform="translate(-0.78 0.3)"/><path class="cls-2" d="M405.28,145l2.9-2.9a2,2,0,0,0-2.83-2.83l-2.9,2.91-2.9-2.91a2,2,0,1,0-2.83,2.83l2.9,2.9-2.9,2.91a2,2,0,0,0,0,2.82,2,2,0,0,0,1.41.59,2,2,0,0,0,1.42-.59l2.9-2.9,2.9,2.9a2,2,0,0,0,2.83,0,2,2,0,0,0,0-2.82Z" transform="translate(-0.78 0.3)"/><polygon class="cls-2" points="305.9 12.09 305.9 4.03 298.92 0 291.94 4.03 291.94 12.09 298.92 16.12 305.9 12.09"/><polygon class="cls-2" points="536.83 146.07 536.83 140.15 531.7 137.19 526.58 140.15 526.58 146.07 531.7 149.04 536.83 146.07"/><polygon class="cls-2" points="438.58 203.32 438.58 197.4 433.45 194.44 428.32 197.4 428.32 203.32 433.45 206.29 438.58 203.32"/><polygon class="cls-2" points="70.71 28.52 70.71 22.49 65.48 19.47 60.25 22.49 60.25 28.52 65.48 31.54 70.71 28.52"/><polygon class="cls-2" points="177.02 187.88 177.02 183.26 173.02 180.95 169.02 183.26 169.02 187.88 173.02 190.18 177.02 187.88"/><polygon class="cls-2" points="66.71 134.81 66.71 129.13 61.78 126.28 56.85 129.13 56.85 134.81 61.78 137.66 66.71 134.81"/></g><path class="cls-3" d="M364.29,266.24a2,2,0,0,1-1.54-3.28,10.34,10.34,0,0,0,1.75-3,10.6,10.6,0,0,0-.49-8.43,12.15,12.15,0,0,0-16.49-5.29,2,2,0,1,1-1.92-3.51,16.15,16.15,0,0,1,22,7,14.53,14.53,0,0,1,.65,11.58,14.38,14.38,0,0,1-2.42,4.21A2,2,0,0,1,364.29,266.24Z" transform="translate(-0.78 0.3)"/></svg>