<svg xmlns="http://www.w3.org/2000/svg" width="167.225" height="159.813" viewBox="0 0 167.225 159.813">
  <g id="coin" transform="translate(-8.137)">
    <g id="Group_8" data-name="Group 8" transform="translate(8.137 0)">
      <g id="Group_1" data-name="Group 1" transform="translate(0 75.02)">
        <path id="Path_1" data-name="Path 1" d="M63.657,398.907a25.891,25.891,0,0,1,3.933-11.594V350.305a33.191,33.191,0,0,0-13.146-2.717c-24.716,0-34.392,10.9-40.128,18.829a32.27,32.27,0,0,0-6.179,18.939v8.7a5.059,5.059,0,0,0,5.243,4.851Z" transform="translate(-8.137 -314.114)" fill="#ffccb7"/>
        <path id="Path_2" data-name="Path 2" d="M232.634,240.427c-4.731-.622-9.138,2.355-9.939,6.715l-1.629,8.867L197.46,270.964l-12.176,2.611,4.332,18.826,17.476-3.443a6.609,6.609,0,0,0,2.867-1.323l26.763-21.539a5.786,5.786,0,0,0,2.172-3.924l1.285-12.911c.432-4.335-2.888-8.22-7.545-8.832Z" transform="translate(-125.527 -240.345)" fill="#f2886b"/>
        <path id="Path_3" data-name="Path 3" d="M271.3,277.812a8.918,8.918,0,0,0-11.057,4.579l-3.533,8.228-26.041,9.921-26.4.437v18.714h31.687a6.7,6.7,0,0,0,3.053-.731L269.553,303.3a5.947,5.947,0,0,0,2.961-3.366l4.1-12.187a7.905,7.905,0,0,0-5.308-9.935Z" transform="translate(-138.111 -265.779)" fill="#f79a7c"/>
        <path id="Path_4" data-name="Path 4" d="M284.452,277.859c-4.844-1.641-10.22.586-12.124,5.022l-3.874,9.023L239.9,302.782l-39.962.662v20.338H245.7a7.351,7.351,0,0,0,3.348-.8l33.488-17.173a6.524,6.524,0,0,0,3.247-3.691l4.494-13.364c1.508-4.487-1.053-9.279-5.821-10.894Z" transform="translate(-135.236 -265.779)" fill="#fcad97"/>
        <path id="Path_5" data-name="Path 5" d="M123.708,321.435v19.718h83.23a7.349,7.349,0,0,0,3.348-.8l33.488-17.173a6.524,6.524,0,0,0,3.247-3.691l4.494-13.364c1.509-4.486-1.052-9.279-5.821-10.894-4.844-1.641-10.219.586-12.124,5.022l-3.875,9.022L201.14,320.152Z" transform="translate(-84.722 -277.727)" fill="#ffccb7"/>
        <path id="Path_6" data-name="Path 6" d="M186.769,356.054c-2.915-5.249-9.757-7.471-15.578-5.061l-15.506,6.421h-8.351a65.5,65.5,0,0,1-32.454-8.639,39.474,39.474,0,0,0-19.72-5.332c-28.968,0-40.309,12.771-47.032,22.068a37.821,37.821,0,0,0-7.243,22.2V391.2a5.059,5.059,0,0,0,5.243,4.852H98.639a5.236,5.236,0,0,0,4.758-2.92c3.547-7.48,10.214-12.416,20.392-12.416h34.239a11.618,11.618,0,0,0,4.875-1.065l18.561-8.591C187.438,368.3,189.823,361.552,186.769,356.054Z" transform="translate(-29.837 -311.263)" fill="#ffdbcf"/>
        <path id="Path_7" data-name="Path 7" d="M73.842,369.138a7.151,7.151,0,0,0,8.979-1.239c5.714-6.374,14.36-11.969,32.2-11.969a24.351,24.351,0,0,1,7.838,1.3,7,7,0,0,0,7.986-2.622c2.252-3.369.571-7.789-3.454-9.14a38.711,38.711,0,0,0-12.37-2.023c-23.457,0-35.356,8.374-42.6,16.5a5.973,5.973,0,0,0,1.428,9.2Z" transform="translate(-49.695 -311.264)" fill="#ffece6"/>
        <path id="Path_8" data-name="Path 8" d="M122.429,345.188c-9.46,1.132-16.583,3.832-22.093,7.193a5.948,5.948,0,0,0-.218,10.211l.112.074a7.142,7.142,0,0,0,7.6.129,39.863,39.863,0,0,1,16.293-5.227A6.432,6.432,0,0,0,130,351.38C130,347.63,126.449,344.707,122.429,345.188Z" transform="translate(-67.242 -312.427)" fill="#fff7f5"/>
      </g>
      <g id="Group_7" data-name="Group 7" transform="translate(39.026)">
        <g id="Group_6" data-name="Group 6">
          <g id="Group_5" data-name="Group 5">
            <g id="Group_4" data-name="Group 4">
              <ellipse id="Ellipse_1" data-name="Ellipse 1" cx="54.191" cy="50.143" rx="54.191" ry="50.143" fill="#ffe059"/>
              <path id="Path_9" data-name="Path 9" d="M273.306,50.164c0,27.648-24.311,50.143-54.191,50.143a56.738,56.738,0,0,1-33.27-10.589,54.959,54.959,0,0,0,24.019,5.456c28.63,0,51.923-21.553,51.923-48.048,0-23.234-17.916-42.667-41.635-47.1,29.4.512,53.154,22.806,53.154,50.134Z" transform="translate(-164.924 -0.021)" fill="#ffc751"/>
              <ellipse id="Ellipse_2" data-name="Ellipse 2" cx="37.829" cy="35.003" rx="37.829" ry="35.003" transform="translate(16.362 15.14)" fill="#ff993a"/>
              <path id="Path_10" data-name="Path 10" d="M263.973,83.612c0,19.332-16.935,35-37.828,35A38.93,38.93,0,0,1,196.454,105.3a36.656,36.656,0,0,0,21.215,6.636c19.319,0,34.979-14.49,34.979-32.366,0-14.529-10.348-26.825-24.6-30.914,20.007.916,35.923,16.214,35.923,34.956Z" transform="translate(-171.954 -33.469)" fill="#f97c15"/>
              <g id="Group_3" data-name="Group 3" transform="translate(38.377 27.767)">
                <path id="Path_11" data-name="Path 11" d="M258.325,108.3h-1.637v-8.021h7.627a3.045,3.045,0,1,0,0-6.072h-7.627V92a3.291,3.291,0,0,0-6.562,0v2.211H248.49c-6.008,0-10.9,4.523-10.9,10.083s4.889,10.082,10.9,10.082h1.636v8.02H242.5a3.045,3.045,0,1,0,0,6.072h7.627v2.211a3.291,3.291,0,0,0,6.562,0v-2.211h1.637c6.008,0,10.9-4.523,10.9-10.082S264.333,108.3,258.325,108.3Zm-9.835,0a4.022,4.022,0,1,1,0-8.02h1.636V108.3h-1.636Zm9.835,14.092h-1.637v-8.02h1.637a4.022,4.022,0,1,1,0,8.02Z" transform="translate(-237.593 -88.96)" fill="#ffe059"/>
                <path id="Path_12" data-name="Path 12" d="M274.746,215.522h6.562v2.211h-6.562Z" transform="translate(-262.213 -176.018)" fill="#ffc751"/>
                <g id="Group_2" data-name="Group 2" transform="translate(12.533 11.319)">
                  <path id="Path_13" data-name="Path 13" d="M274.746,170.373h6.562v8.02h-6.562Z" transform="translate(-274.746 -156.28)" fill="#ffc751"/>
                  <path id="Path_14" data-name="Path 14" d="M274.746,170.373h6.562v3.734h-6.562Z" transform="translate(-274.746 -156.28)" fill="#ffaf40"/>
                  <path id="Path_15" data-name="Path 15" d="M274.746,125.224h6.562v4.834h-6.562Z" transform="translate(-274.746 -125.224)" fill="#ffc751"/>
                </g>
                <path id="Path_16" data-name="Path 16" d="M250.22,142.713a4.388,4.388,0,0,1-3.826-2.135,3.3,3.3,0,0,0-2.879-1.589c-2.422,0-4.071,2.375-2.952,4.363a11.024,11.024,0,0,0,9.657,5.433h9.835a4.4,4.4,0,0,1,3.794,2.073,3.294,3.294,0,0,0,2.841,1.53,3.045,3.045,0,0,0,2.841-4.547,11.054,11.054,0,0,0-9.475-5.128Z" transform="translate(-239.324 -123.373)" fill="#fff370"/>
              </g>
              <path id="Path_17" data-name="Path 17" d="M274.746,98.687h6.562V100.9h-6.562Z" transform="translate(-223.836 -67.883)" fill="#ffc751"/>
              <path id="Path_18" data-name="Path 18" d="M182.6,102.863a5.563,5.563,0,0,0,3.32-6.815,21.671,21.671,0,0,1-1-6.509c0-9.362,5.985-17.45,14.6-21.17a5.6,5.6,0,0,0,3.3-6.69l-.031-.108a6.348,6.348,0,0,0-8.6-3.767c-12.908,5.572-21.853,17.686-21.853,31.735a32.592,32.592,0,0,0,1.458,9.656,6.463,6.463,0,0,0,8.693,3.716Z" transform="translate(-155.971 -39.396)" fill="#ffaf40"/>
              <path id="Path_19" data-name="Path 19" d="M187.762,95.029a23.091,23.091,0,0,1,7.154-11.1,5.458,5.458,0,0,0,.651-7.733l-.078-.093a6.554,6.554,0,0,0-9.141-.728,34.578,34.578,0,0,0-10.765,16.675c-.987,3.487,1.647,6.955,5.53,7.243l.125.009A6.205,6.205,0,0,0,187.762,95.029Z" transform="translate(-157.986 -50.802)" fill="#ffc751"/>
            </g>
          </g>
          <path id="Path_20" data-name="Path 20" d="M136.917,57.7c0-15.79,10.452-29.36,25.29-35.1a5.838,5.838,0,0,0,3.58-7.449l-.043-.115a6.651,6.651,0,0,0-8.666-3.575c-19.513,7.592-33.251,25.459-33.251,46.242A47.67,47.67,0,0,0,136.035,89.36a6.828,6.828,0,0,0,9.588.437l.092-.086a5.654,5.654,0,0,0,.454-8A36.161,36.161,0,0,1,136.917,57.7Z" transform="translate(-123.827 -7.552)" fill="#fff370"/>
          <path id="Path_21" data-name="Path 21" d="M132.357,78.128A6.019,6.019,0,0,0,137,72.034q-.081-1.189-.081-2.4c0-12.457,6.506-23.53,16.538-30.47a5.617,5.617,0,0,0,1.912-7.372l-.059-.108a6.855,6.855,0,0,0-9.806-2.131c-13.154,9.156-21.676,23.713-21.676,40.082q0,1.551.1,3.079c.256,3.866,4.285,6.532,8.3,5.447Z" transform="translate(-123.826 -19.493)" fill="#fff7c7"/>
        </g>
      </g>
    </g>
    <g id="Group_14" data-name="Group 14" transform="translate(29.55 57.619)">
      <g id="Group_13" data-name="Group 13">
        <g id="Group_10" data-name="Group 10">
          <g id="Group_9" data-name="Group 9">
            <path id="Path_22" data-name="Path 22" d="M84.525,191.223a.633.633,0,0,0,0-1.1,20.063,20.063,0,0,1-3.131-2.354,19.1,19.1,0,0,1-2.563-2.875.758.758,0,0,0-1.2,0,19.068,19.068,0,0,1-2.563,2.875,20.063,20.063,0,0,1-3.131,2.354.633.633,0,0,0,0,1.1,20.064,20.064,0,0,1,3.131,2.354,19.1,19.1,0,0,1,2.563,2.875.758.758,0,0,0,1.2,0,19.066,19.066,0,0,1,2.563-2.875A20.064,20.064,0,0,1,84.525,191.223Z" transform="translate(-71.615 -184.597)" fill="#ffe059"/>
          </g>
        </g>
        <g id="Group_12" data-name="Group 12" transform="translate(3.067 3.166)">
          <g id="Group_11" data-name="Group 11">
            <path id="Path_23" data-name="Path 23" d="M90.549,198.2a20.079,20.079,0,0,0-3.131,2.354,19.067,19.067,0,0,0-2.563,2.875.758.758,0,0,1-1.2,0,19.115,19.115,0,0,0-2.563-2.875q-.19-.175-.386-.345c.172.013.346.02.522.02a5.977,5.977,0,0,0,6.187-5.489l0,0a20.076,20.076,0,0,0,3.131,2.354A.634.634,0,0,1,90.549,198.2Z" transform="translate(-80.705 -194.741)" fill="#ffc751"/>
          </g>
        </g>
      </g>
      <path id="Path_24" data-name="Path 24" d="M124.249,215.074l-3.212-.921a14.224,14.224,0,0,1-9.707-8.982l-1-2.972a.769.769,0,0,0-1.431,0l-1,2.972a14.224,14.224,0,0,1-9.707,8.982l-3.212.921a.679.679,0,0,0,0,1.324l3.212.921a14.224,14.224,0,0,1,9.707,8.982l1,2.972a.769.769,0,0,0,1.431,0l1-2.972a14.224,14.224,0,0,1,9.707-8.982l3.212-.921a.679.679,0,0,0,0-1.324Z" transform="translate(-86.755 -196.369)" fill="#ffe059"/>
      <path id="Path_25" data-name="Path 25" d="M146.91,234.21a.7.7,0,0,1-.528.663l-3.209.922a14.216,14.216,0,0,0-9.707,8.982l-1,2.972a.77.77,0,0,1-1.433,0l-1-2.972a13.152,13.152,0,0,0-2.177-4,10.234,10.234,0,0,0,8.882-9.826,9.239,9.239,0,0,0-.308-2.377,14.877,14.877,0,0,0,6.735,4.059l3.209.922A.7.7,0,0,1,146.91,234.21Z" transform="translate(-108.889 -214.844)" fill="#ffc751"/>
    </g>
  </g>
</svg>
