<svg xmlns="http://www.w3.org/2000/svg" width="226.141" height="235.271" viewBox="0 0 226.141 235.271">
  <g id="Group_137" data-name="Group 137" transform="translate(-1014.113 -1249.96)">
    <g id="Group_97" data-name="Group 97" transform="translate(1086 1326)">
      <ellipse id="Ellipse_1" data-name="Ellipse 1" cx="42.203" cy="42.23" rx="42.203" ry="42.23" transform="translate(0 0)" fill="#ffe059"/>
      <path id="Path_9" data-name="Path 9" d="M253.958,42.252a42.176,42.176,0,0,1-68.113,33.312A40.456,40.456,0,1,0,212.563.03a42.267,42.267,0,0,1,41.395,42.222Z" transform="translate(-169.552 -0.022)" fill="#ffc751"/>
      <ellipse id="Ellipse_2" data-name="Ellipse 2" cx="29.46" cy="29.479" rx="29.46" ry="29.479" transform="translate(12.743 12.751)" fill="#ff993a"/>
      <path id="Path_10" data-name="Path 10" d="M249.036,78.095A29.456,29.456,0,0,1,196.454,96.36a27.253,27.253,0,1,0,24.607-47.7,29.467,29.467,0,0,1,27.976,29.439Z" transform="translate(-177.374 -35.866)" fill="#f97c15"/>
      <path id="Path_18" data-name="Path 18" d="M180.329,95.668a4.8,4.8,0,0,0,2.586-5.739,19.676,19.676,0,0,1,10.593-23.311,4.828,4.828,0,0,0,2.567-5.634l-.024-.091a4.845,4.845,0,0,0-6.7-3.173,29.531,29.531,0,0,0-15.883,34.858,4.925,4.925,0,0,0,6.77,3.13Z" transform="translate(-159.591 -42.218)" fill="#ffaf40"/>
      <path id="Path_19" data-name="Path 19" d="M185.022,91.687a19.674,19.674,0,0,1,5.571-9.347,4.858,4.858,0,0,0,.507-6.513l-.06-.078a4.84,4.84,0,0,0-7.119-.613,29.457,29.457,0,0,0-8.383,14.043,4.868,4.868,0,0,0,4.307,6.1l.1.008A4.848,4.848,0,0,0,185.022,91.687Z" transform="translate(-161.833 -54.44)" fill="#ffc751"/>
      <path id="Path_20" data-name="Path 20" d="M134.021,50.323a32.076,32.076,0,0,1,19.7-29.563,5.031,5.031,0,0,0,2.788-6.273l-.033-.1a5.052,5.052,0,0,0-6.749-3.01A42.2,42.2,0,0,0,133.334,76.99a5.04,5.04,0,0,0,7.467.368l.072-.072a5.037,5.037,0,0,0,.354-6.74A31.888,31.888,0,0,1,134.021,50.323Z" transform="translate(-123.827 -8.093)" fill="#fff370"/>
      <path id="Path_21" data-name="Path 21" d="M130.47,70.27a5.026,5.026,0,0,0,3.614-5.133q-.063-1-.063-2.019A32,32,0,0,1,146.9,37.458a4.96,4.96,0,0,0,1.489-6.209l-.046-.091a5.115,5.115,0,0,0-7.636-1.795,42.188,42.188,0,0,0-16.881,33.756q0,1.306.079,2.593a5.067,5.067,0,0,0,6.466,4.587Z" transform="translate(-123.826 -20.889)" fill="#fff7c7"/>
      <g id="Group_96" data-name="Group 96" transform="translate(22.588 22.558)">
        <path id="Path_96" data-name="Path 96" d="M263.9-310.713c-.183-.186-.277-.176-.455,0-1.125,1.141-2.253,2.282-3.4,3.4-.286.276-.247.41.013.666,1.207,1.188,2.39,2.4,3.583,3.6h.079c.086-.1.166-.2.257-.292,1.132-1.135,2.261-2.273,3.4-3.4.191-.188.212-.292.008-.492Q265.632-308.956,263.9-310.713Z" transform="translate(-244.042 342.431)" fill="#ffe059"/>
        <path id="Path_97" data-name="Path 97" d="M250.9-369.213c-1.341-1.332-2.668-2.678-4.006-4.013-.947-.946-1.9-1.882-2.853-2.822h0q-1.783-1.8-3.563-3.6c-.129-.131-.21-.094-.32.018q-1.768,1.789-3.542,3.571h0c-1.007,1-2.012,2-3.024,2.994-.148.146-.1.232.022.351.423.414.839.834,1.257,1.252.535.535.537.536,1.061.009q2.167-2.18,4.332-4.362l.136.014h0c.1.106.191.215.293.317q3.123,3.135,6.253,6.264c.209.208.219.327,0,.526-.319.29-.6.616-.9.926-.116.105-.238.205-.348.316q-2.559,2.565-5.109,5.137c-.211.214-.321.208-.521,0-.475-.507-.977-.991-1.47-1.481q-1.885-1.872-3.772-3.741c-.4-.412-.8-.83-1.2-1.235q-2.479-2.459-4.964-4.91a.965.965,0,0,0-.106-.158c-1.911-1.915-3.828-3.824-5.731-5.747-.214-.216-.311-.116-.464.038q-3.006,3.012-6.016,6.019c-.574.575-1.139,1.161-1.707,1.742-.9.893-1.8,1.788-2.714,2.675-.157.152-.079.235.034.348q1.967,1.952,3.931,3.908c.781.887,1.666,1.673,2.5,2.512,1.322,1.336,2.659,2.656,3.979,3.994.2.2.3.2.494,0,.487-.515,1-1.007,1.5-1.51q1.846-1.859,3.69-3.721c.432-.421.859-.847,1.3-1.261.146-.138.113-.226-.014-.35q-.83-.814-1.644-1.642c-.123-.125-.2-.114-.312.005q-1.517,1.544-3.043,3.079-.756.741-1.511,1.483c-.116.115-.2.23-.375.052-.6-.6-1.178-1.219-1.824-1.77-.032-.155-.168-.228-.267-.326q-2.192-2.2-4.394-4.39c-.19-.188-.211-.291-.008-.49.814-.8,1.607-1.615,2.409-2.425h0q2.009-2,4.014-4c.179-.179.279-.193.464,0,.7.712,1.412,1.406,2.121,2.107.875.886,1.746,1.776,2.627,2.656,1.2,1.2,2.4,2.382,3.606,3.572a.324.324,0,0,0,.041.065q4.454,4.459,8.9,8.92c.168.17.262.134.407-.016.494-.509,1-1.005,1.5-1.508l7.69-7.734c.393-.384.775-.779,1.182-1.148C251.121-368.908,251.09-369.025,250.9-369.213Z" transform="translate(-211.826 388.645)" fill="#ffe059"/>
        <path id="Path_98" data-name="Path 98" d="M263.389-399.153c.154.155.24.21.427.02q1.751-1.783,3.531-3.538c.147-.146.189-.236.018-.405-1.194-1.181-2.378-2.372-3.566-3.56-.055-.055-.115-.106-.184-.17-.073.064-.143.12-.206.183-1.179,1.177-2.354,2.359-3.541,3.529-.182.18-.152.273.012.436Q261.644-400.915,263.389-399.153Z" transform="translate(-243.973 406.806)" fill="#ffe059"/>
      </g>
    </g>
    <g id="Group_98" data-name="Group 98" transform="translate(1027.917 1288.083)">
      <path id="Path_99" data-name="Path 99" d="M218.093,29.286V7.977l6.383,4.786,3.189-4.254L217.028.532A2.651,2.651,0,0,0,215.437,0h-.006a2.652,2.652,0,0,0-1.592.532L203.2,8.509l3.189,4.254,6.383-4.786v21.31Z" transform="translate(-114.905)" fill="#b7b7b7"/>
      <path id="Path_100" data-name="Path 100" d="M58.132,119.61,39.677,108.955l7.337-3.135-2.089-4.889L32.7,106.154a2.654,2.654,0,0,0-1.256,1.113l0,.005a2.653,2.653,0,0,0-.335,1.644l1.591,13.2,5.278-.635-.953-7.921,18.455,10.655Z" transform="translate(0 -67.38)" fill="#b7b7b7"/>
      <path id="Path_101" data-name="Path 101" d="M55.472,309.017,37.018,319.672l.953-7.921-5.279-.635-1.59,13.2a2.651,2.651,0,0,0,.335,1.644l0,.005a2.655,2.655,0,0,0,1.256,1.113L44.924,332.3l2.09-4.889-7.337-3.135,18.455-10.655Z" transform="translate(0 -206.296)" fill="#b7b7b7"/>
      <path id="Path_102" data-name="Path 102" d="M212.774,391.893V413.2l-6.383-4.786L203.2,412.67l10.637,7.978a2.653,2.653,0,0,0,1.591.532h.006a2.654,2.654,0,0,0,1.592-.532l10.637-7.978-3.189-4.254-6.383,4.786v-21.31Z" transform="translate(-114.905 -261.623)" fill="#b7b7b7"/>
      <path id="Path_103" data-name="Path 103" d="M367.544,313.623,386,324.278l-7.337,3.135,2.089,4.889,12.228-5.223a2.654,2.654,0,0,0,1.256-1.113l0-.005a2.656,2.656,0,0,0,.335-1.644l-1.591-13.2-5.278.635.953,7.921L370.2,309.017Z" transform="translate(-224.617 -206.296)" fill="#b7b7b7"/>
      <path id="Path_104" data-name="Path 104" d="M370.2,124.216l18.455-10.655-.953,7.921,5.278.635,1.591-13.2a2.651,2.651,0,0,0-.335-1.644l0-.005a2.654,2.654,0,0,0-1.256-1.113l-12.228-5.223-2.089,4.889L386,108.955,367.544,119.61Z" transform="translate(-224.617 -67.38)" fill="#b7b7b7"/>
      <circle id="Ellipse_23" data-name="Ellipse 23" cx="50.383" cy="50.383" r="50.383" transform="translate(50.172 29.286)" fill="none" stroke="#b7b7b7" stroke-miterlimit="10" stroke-width="3"/>
    </g>
    <g id="smartphone" transform="translate(1002.548 1452.135)">
      <g id="Group_100" data-name="Group 100" transform="translate(116.772)">
        <g id="Group_99" data-name="Group 99" transform="translate(0)">
          <path id="Path_105" data-name="Path 105" d="M131.868,0H119.676a2.907,2.907,0,0,0-2.9,2.9v27.29a2.907,2.907,0,0,0,2.9,2.9h12.191a2.907,2.907,0,0,0,2.9-2.9V2.9A2.907,2.907,0,0,0,131.868,0Zm1.743,30.193a1.744,1.744,0,0,1-1.743,1.742H119.676a1.744,1.744,0,0,1-1.743-1.742V2.9a1.744,1.744,0,0,1,1.743-1.742h12.191A1.744,1.744,0,0,1,133.611,2.9v27.29Z" transform="translate(-116.772)" fill="#fff"/>
        </g>
      </g>
      <g id="Group_102" data-name="Group 102" transform="translate(123.034 4.694)">
        <g id="Group_101" data-name="Group 101" transform="translate(0)">
          <rect id="Rectangle_34" data-name="Rectangle 34" width="5.476" height="1.565" fill="#fff"/>
        </g>
      </g>
      <g id="Group_104" data-name="Group 104" transform="translate(124.598 2.347)">
        <g id="Group_103" data-name="Group 103" transform="translate(0)">
          <rect id="Rectangle_35" data-name="Rectangle 35" width="2.347" height="1.565" fill="#fff"/>
        </g>
      </g>
      <g id="Group_106" data-name="Group 106" transform="translate(123.034 25.273)">
        <g id="Group_105" data-name="Group 105" transform="translate(0)">
          <path id="Path_106" data-name="Path 106" d="M227.3,422.175a2.738,2.738,0,1,0,2.738,2.738A2.742,2.742,0,0,0,227.3,422.175Zm0,3.912a1.174,1.174,0,1,1,1.174-1.174A1.175,1.175,0,0,1,227.3,426.087Z" transform="translate(-224.561 -422.175)" fill="#fff"/>
        </g>
      </g>
    </g>
    <g id="smartphone-2" data-name="smartphone" transform="translate(910.228 1310.135)">
      <g id="Group_100-2" data-name="Group 100" transform="translate(116.772)">
        <g id="Group_99-2" data-name="Group 99" transform="translate(0)">
          <path id="Path_105-2" data-name="Path 105" d="M131.868,0H119.676a2.907,2.907,0,0,0-2.9,2.9v27.29a2.907,2.907,0,0,0,2.9,2.9h12.191a2.907,2.907,0,0,0,2.9-2.9V2.9A2.907,2.907,0,0,0,131.868,0Zm1.743,30.193a1.744,1.744,0,0,1-1.743,1.742H119.676a1.744,1.744,0,0,1-1.743-1.742V2.9a1.744,1.744,0,0,1,1.743-1.742h12.191A1.744,1.744,0,0,1,133.611,2.9v27.29Z" transform="translate(-116.772)" fill="#fff"/>
        </g>
      </g>
      <g id="Group_102-2" data-name="Group 102" transform="translate(123.034 4.694)">
        <g id="Group_101-2" data-name="Group 101" transform="translate(0)">
          <rect id="Rectangle_34-2" data-name="Rectangle 34" width="5.476" height="1.565" fill="#fff"/>
        </g>
      </g>
      <g id="Group_104-2" data-name="Group 104" transform="translate(124.598 2.347)">
        <g id="Group_103-2" data-name="Group 103" transform="translate(0)">
          <rect id="Rectangle_35-2" data-name="Rectangle 35" width="2.347" height="1.565" fill="#fff"/>
        </g>
      </g>
      <g id="Group_106-2" data-name="Group 106" transform="translate(123.034 25.273)">
        <g id="Group_105-2" data-name="Group 105" transform="translate(0)">
          <path id="Path_106-2" data-name="Path 106" d="M227.3,422.175a2.738,2.738,0,1,0,2.738,2.738A2.742,2.742,0,0,0,227.3,422.175Zm0,3.912a1.174,1.174,0,1,1,1.174-1.174A1.175,1.175,0,0,1,227.3,426.087Z" transform="translate(-224.561 -422.175)" fill="#fff"/>
        </g>
      </g>
    </g>
    <g id="smartphone-3" data-name="smartphone" transform="translate(1089.341 1310.135)">
      <g id="Group_100-3" data-name="Group 100" transform="translate(116.772)">
        <g id="Group_99-3" data-name="Group 99" transform="translate(0)">
          <path id="Path_105-3" data-name="Path 105" d="M131.868,0H119.676a2.907,2.907,0,0,0-2.9,2.9v27.29a2.907,2.907,0,0,0,2.9,2.9h12.191a2.907,2.907,0,0,0,2.9-2.9V2.9A2.907,2.907,0,0,0,131.868,0Zm1.743,30.193a1.744,1.744,0,0,1-1.743,1.742H119.676a1.744,1.744,0,0,1-1.743-1.742V2.9a1.744,1.744,0,0,1,1.743-1.742h12.191A1.744,1.744,0,0,1,133.611,2.9v27.29Z" transform="translate(-116.772)" fill="#fff"/>
        </g>
      </g>
      <g id="Group_102-3" data-name="Group 102" transform="translate(123.034 4.694)">
        <g id="Group_101-3" data-name="Group 101" transform="translate(0)">
          <rect id="Rectangle_34-3" data-name="Rectangle 34" width="5.476" height="1.565" fill="#fff"/>
        </g>
      </g>
      <g id="Group_104-3" data-name="Group 104" transform="translate(124.598 2.347)">
        <g id="Group_103-3" data-name="Group 103" transform="translate(0)">
          <rect id="Rectangle_35-3" data-name="Rectangle 35" width="2.347" height="1.565" fill="#fff"/>
        </g>
      </g>
      <g id="Group_106-3" data-name="Group 106" transform="translate(123.034 25.273)">
        <g id="Group_105-3" data-name="Group 105" transform="translate(0)">
          <path id="Path_106-3" data-name="Path 106" d="M227.3,422.175a2.738,2.738,0,1,0,2.738,2.738A2.742,2.742,0,0,0,227.3,422.175Zm0,3.912a1.174,1.174,0,1,1,1.174-1.174A1.175,1.175,0,0,1,227.3,426.087Z" transform="translate(-224.561 -422.175)" fill="#fff"/>
        </g>
      </g>
    </g>
    <path id="computer" d="M1.25,8.384A5.134,5.134,0,0,1,6.384,3.25H36.256a5.134,5.134,0,0,1,5.134,5.134v18.67a5.134,5.134,0,0,1-5.134,5.134h-10.8l1.4,2.8h3.8a1.4,1.4,0,0,1,0,2.8H11.985a1.4,1.4,0,0,1,0-2.8h3.8l1.4-2.8H6.384A5.134,5.134,0,0,1,1.25,27.054Zm35.006,21H6.384a2.334,2.334,0,0,1-2.334-2.334V8.384A2.334,2.334,0,0,1,6.384,6.051H36.256A2.334,2.334,0,0,1,38.59,8.384v18.67A2.334,2.334,0,0,1,36.256,29.388Z" transform="translate(1107.126 1246.71)" fill="#fff" fill-rule="evenodd"/>
    <path id="computer-2" data-name="computer" d="M1.25,8.384A5.134,5.134,0,0,1,6.384,3.25H36.256a5.134,5.134,0,0,1,5.134,5.134v18.67a5.134,5.134,0,0,1-5.134,5.134h-10.8l1.4,2.8h3.8a1.4,1.4,0,0,1,0,2.8H11.985a1.4,1.4,0,0,1,0-2.8h3.8l1.4-2.8H6.384A5.134,5.134,0,0,1,1.25,27.054Zm35.006,21H6.384a2.334,2.334,0,0,1-2.334-2.334V8.384A2.334,2.334,0,0,1,6.384,6.051H36.256A2.334,2.334,0,0,1,38.59,8.384v18.67A2.334,2.334,0,0,1,36.256,29.388Z" transform="translate(1012.863 1403.48)" fill="#fff" fill-rule="evenodd"/>
    <path id="computer-3" data-name="computer" d="M1.25,8.384A5.134,5.134,0,0,1,6.384,3.25H36.256a5.134,5.134,0,0,1,5.134,5.134v18.67a5.134,5.134,0,0,1-5.134,5.134h-10.8l1.4,2.8h3.8a1.4,1.4,0,0,1,0,2.8H11.985a1.4,1.4,0,0,1,0-2.8h3.8l1.4-2.8H6.384A5.134,5.134,0,0,1,1.25,27.054Zm35.006,21H6.384a2.334,2.334,0,0,1-2.334-2.334V8.384A2.334,2.334,0,0,1,6.384,6.051H36.256A2.334,2.334,0,0,1,38.59,8.384v18.67A2.334,2.334,0,0,1,36.256,29.388Z" transform="translate(1198.863 1403.48)" fill="#fff" fill-rule="evenodd"/>
  </g>
</svg>
