<svg xmlns="http://www.w3.org/2000/svg" width="176.025" height="195.492" viewBox="0 0 176.025 195.492">
  <g id="Group_30" data-name="Group 30" transform="translate(-604.975 -705.963)">
    <g id="Group_1" data-name="Group 1" transform="translate(604.975 816.662)">
      <path id="Path_1" data-name="Path 1" d="M63.657,398.907a25.891,25.891,0,0,1,3.933-11.594V350.305a33.191,33.191,0,0,0-13.146-2.717c-24.716,0-34.392,10.9-40.128,18.829a32.27,32.27,0,0,0-6.179,18.939v8.7a5.059,5.059,0,0,0,5.243,4.851Z" transform="translate(-8.137 -314.114)" fill="#ffccb7"/>
      <path id="Path_2" data-name="Path 2" d="M232.634,240.427c-4.731-.622-9.138,2.355-9.939,6.715l-1.629,8.867L197.46,270.964l-12.176,2.611,4.332,18.826,17.476-3.443a6.609,6.609,0,0,0,2.867-1.323l26.763-21.539a5.786,5.786,0,0,0,2.172-3.924l1.285-12.911c.432-4.335-2.888-8.22-7.545-8.832Z" transform="translate(-125.527 -240.345)" fill="#f2886b"/>
      <path id="Path_3" data-name="Path 3" d="M271.3,277.812a8.918,8.918,0,0,0-11.057,4.579l-3.533,8.228-26.041,9.921-26.4.437v18.714h31.687a6.7,6.7,0,0,0,3.053-.731L269.553,303.3a5.947,5.947,0,0,0,2.961-3.366l4.1-12.187a7.905,7.905,0,0,0-5.308-9.935Z" transform="translate(-138.111 -265.779)" fill="#f79a7c"/>
      <path id="Path_4" data-name="Path 4" d="M284.452,277.859c-4.844-1.641-10.22.586-12.124,5.022l-3.874,9.023L239.9,302.782l-39.962.662v20.338H245.7a7.351,7.351,0,0,0,3.348-.8l33.488-17.173a6.524,6.524,0,0,0,3.247-3.691l4.494-13.364c1.508-4.487-1.053-9.279-5.821-10.894Z" transform="translate(-135.236 -265.779)" fill="#fcad97"/>
      <path id="Path_5" data-name="Path 5" d="M123.708,321.435v19.718h83.23a7.349,7.349,0,0,0,3.348-.8l33.488-17.173a6.524,6.524,0,0,0,3.247-3.691l4.494-13.364c1.509-4.486-1.052-9.279-5.821-10.894-4.844-1.641-10.219.586-12.124,5.022l-3.875,9.022L201.14,320.152Z" transform="translate(-84.722 -277.727)" fill="#ffccb7"/>
      <path id="Path_6" data-name="Path 6" d="M186.769,356.054c-2.915-5.249-9.757-7.471-15.578-5.061l-15.506,6.421h-8.351a65.5,65.5,0,0,1-32.454-8.639,39.474,39.474,0,0,0-19.72-5.332c-28.968,0-40.309,12.771-47.032,22.068a37.821,37.821,0,0,0-7.243,22.2V391.2a5.059,5.059,0,0,0,5.243,4.852H98.639a5.236,5.236,0,0,0,4.758-2.92c3.547-7.48,10.214-12.416,20.392-12.416h34.239a11.618,11.618,0,0,0,4.875-1.065l18.561-8.591C187.438,368.3,189.823,361.552,186.769,356.054Z" transform="translate(-29.837 -311.263)" fill="#ffdbcf"/>
      <path id="Path_7" data-name="Path 7" d="M73.842,369.138a7.151,7.151,0,0,0,8.979-1.239c5.714-6.374,14.36-11.969,32.2-11.969a24.351,24.351,0,0,1,7.838,1.3,7,7,0,0,0,7.986-2.622c2.252-3.369.571-7.789-3.454-9.14a38.711,38.711,0,0,0-12.37-2.023c-23.457,0-35.356,8.374-42.6,16.5a5.973,5.973,0,0,0,1.428,9.2Z" transform="translate(-49.695 -311.264)" fill="#ffece6"/>
      <path id="Path_8" data-name="Path 8" d="M122.429,345.188c-9.46,1.132-16.583,3.832-22.093,7.193a5.948,5.948,0,0,0-.218,10.211l.112.074a7.142,7.142,0,0,0,7.6.129,39.863,39.863,0,0,1,16.293-5.227A6.432,6.432,0,0,0,130,351.38C130,347.63,126.449,344.707,122.429,345.188Z" transform="translate(-67.242 -312.427)" fill="#fff7f5"/>
    </g>
    <g id="Group_29" data-name="Group 29" transform="translate(10 12)">
      <g id="Group_27" data-name="Group 27" transform="translate(616.413 727.236)">
        <g id="Group_10" data-name="Group 10">
          <g id="Group_9" data-name="Group 9">
            <path id="Path_22" data-name="Path 22" d="M84.525,191.223a.633.633,0,0,0,0-1.1,20.063,20.063,0,0,1-3.131-2.354,19.1,19.1,0,0,1-2.563-2.875.758.758,0,0,0-1.2,0,19.068,19.068,0,0,1-2.563,2.875,20.063,20.063,0,0,1-3.131,2.354.633.633,0,0,0,0,1.1,20.064,20.064,0,0,1,3.131,2.354,19.1,19.1,0,0,1,2.563,2.875.758.758,0,0,0,1.2,0,19.066,19.066,0,0,1,2.563-2.875A20.064,20.064,0,0,1,84.525,191.223Z" transform="translate(-71.615 -184.597)" fill="#ffe059"/>
          </g>
        </g>
        <g id="Group_12" data-name="Group 12" transform="translate(3.067 3.166)">
          <g id="Group_11" data-name="Group 11">
            <path id="Path_23" data-name="Path 23" d="M90.549,198.2a20.079,20.079,0,0,0-3.131,2.354,19.067,19.067,0,0,0-2.563,2.875.758.758,0,0,1-1.2,0,19.115,19.115,0,0,0-2.563-2.875q-.19-.175-.386-.345c.172.013.346.02.522.02a5.977,5.977,0,0,0,6.187-5.489l0,0a20.076,20.076,0,0,0,3.131,2.354A.634.634,0,0,1,90.549,198.2Z" transform="translate(-80.705 -194.741)" fill="#ffc751"/>
          </g>
        </g>
      </g>
      <g id="Group_28" data-name="Group 28" transform="translate(191 -14.026)">
        <path id="Path_24" data-name="Path 24" d="M124.249,215.074l-3.212-.921a14.224,14.224,0,0,1-9.707-8.982l-1-2.972a.769.769,0,0,0-1.431,0l-1,2.972a14.224,14.224,0,0,1-9.707,8.982l-3.212.921a.679.679,0,0,0,0,1.324l3.212.921a14.224,14.224,0,0,1,9.707,8.982l1,2.972a.769.769,0,0,0,1.431,0l1-2.972a14.224,14.224,0,0,1,9.707-8.982l3.212-.921a.679.679,0,0,0,0-1.324Z" transform="translate(338.658 544.893)" fill="#ffe059"/>
        <path id="Path_25" data-name="Path 25" d="M146.91,234.21a.7.7,0,0,1-.528.663l-3.209.922a14.216,14.216,0,0,0-9.707,8.982l-1,2.972a.77.77,0,0,1-1.433,0l-1-2.972a13.152,13.152,0,0,0-2.177-4,10.234,10.234,0,0,0,8.882-9.826,9.239,9.239,0,0,0-.308-2.377,14.877,14.877,0,0,0,6.735,4.059l3.209.922A.7.7,0,0,1,146.91,234.21Z" transform="translate(316.524 526.418)" fill="#ffc751"/>
      </g>
      <path id="Path_45" data-name="Path 45" d="M286.068,4.339,269.017,27.074l17.051,22.735h62.52V4.339Zm2.842,28.418a5.684,5.684,0,1,1,5.684-5.684A5.682,5.682,0,0,1,288.91,32.757Z" transform="translate(422.412 689.624)" fill="#ffe059"/>
      <path id="Path_46" data-name="Path 46" d="M407.877,35.6l-50.7,35.233h50.7Z" transform="translate(363.123 668.602)" fill="#fec751"/>
      <rect id="Rectangle_3" data-name="Rectangle 3" width="79.571" height="71.045" transform="translate(648.802 762.166)" fill="#ffe059"/>
      <path id="Path_50" data-name="Path 50" d="M0,0H17.051V17.051H0Z" transform="translate(680.062 762.166)" fill="#fd993a"/>
      <path id="Path_47" data-name="Path 47" d="M422.887,38.9h10.7V33.215H427.9V30.373h-5.684v2.91a6.331,6.331,0,0,0-2.171,11.97l7.48,3.74a.671.671,0,0,1-.284,1.273H416.532v5.684h5.684v2.842H427.9v-2.91a6.331,6.331,0,0,0,2.171-11.97l-7.479-3.74a.671.671,0,0,1,.284-1.273Z" transform="translate(323.208 672.115)" fill="#fd993a"/>
      <path id="Path_48" data-name="Path 48" d="M254.551,130.446H241.762v-5.684h12.788a9.946,9.946,0,1,0,0-19.893h-61.1a19.893,19.893,0,0,1,0-39.786h25.576v5.684H193.452a14.209,14.209,0,0,0,0,28.418h61.1a15.63,15.63,0,0,1,0,31.26Z" transform="translate(486.61 648.771)" fill="#fd993a"/>
      <path id="Path_49" data-name="Path 49" d="M138.847,302.661v1.421h79.571v-61.1Z" transform="translate(509.955 529.13)" fill="#fec751"/>
    </g>
  </g>
</svg>
