<svg id="Layer_1" data-name="Layer 1" xmlns="http://www.w3.org/2000/svg" viewBox="0 0 568.83 313.77"><defs><style>.cls-1,.cls-3{fill:#f9b233;}.cls-2,.cls-3{opacity:0.5;}.cls-4{fill:#c27200;}</style></defs><title>elasticbitcoin-A-trading-instrument</title><path class="cls-1" d="M1584.53,1399H1057.41a2,2,0,0,1,0-4h527.12a2,2,0,0,1,0,4Z" transform="translate(-1034.45 -1085.38)"/><path class="cls-1" d="M1601.28,1399h-8a2,2,0,1,1,0-4h8a2,2,0,0,1,0,4Z" transform="translate(-1034.45 -1085.38)"/><path class="cls-1" d="M1049.66,1399h-13.21a2,2,0,0,1,0-4h13.21a2,2,0,0,1,0,4Z" transform="translate(-1034.45 -1085.38)"/><g class="cls-2"><path class="cls-1" d="M1410.63,1127h-123.5a2,2,0,0,1,0-4h123.5a2,2,0,0,1,0,4Z" transform="translate(-1034.45 -1085.38)"/></g><path class="cls-3" d="M1259.92,1123h-4.11v-4.11a2,2,0,0,0-4,0V1123h-4.1a2,2,0,0,0,0,4h4.1v4.1a2,2,0,0,0,4,0V1127h4.11a2,2,0,0,0,0-4Z" transform="translate(-1034.45 -1085.38)"/><path class="cls-3" d="M1067.42,1152.29h-4.11v-4.1a2,2,0,0,0-4,0v4.1h-4.1a2,2,0,0,0,0,4h4.1v4.1a2,2,0,0,0,4,0v-4.1h4.11a2,2,0,0,0,0-4Z" transform="translate(-1034.45 -1085.38)"/><path class="cls-3" d="M1104,1255.83h-4.11v-4.1a2,2,0,0,0-4,0v4.1h-4.1a2,2,0,0,0,0,4h4.1v4.11a2,2,0,0,0,4,0v-4.11H1104a2,2,0,1,0,0-4Z" transform="translate(-1034.45 -1085.38)"/><path class="cls-3" d="M1340,1155.29h-4.1v-4.1a2,2,0,0,0-4,0v4.1h-4.1a2,2,0,1,0,0,4h4.1v4.1a2,2,0,1,0,4,0v-4.1h4.1a2,2,0,0,0,0-4Z" transform="translate(-1034.45 -1085.38)"/><path class="cls-1" d="M1529.4,1256.78h-4.11v-4.1a2,2,0,0,0-4,0v4.1h-4.1a2,2,0,0,0,0,4h4.1v4.1a2,2,0,0,0,4,0v-4.1h4.11a2,2,0,0,0,0-4Z" transform="translate(-1034.45 -1085.38)"/><path class="cls-3" d="M1437.3,1178.43l2.91-2.91a2,2,0,0,0-2.83-2.83l-2.9,2.91-2.91-2.91a2,2,0,1,0-2.82,2.83l2.9,2.91-2.9,2.9a2,2,0,0,0,2.82,2.83l2.91-2.91,2.9,2.91a2,2,0,0,0,1.41.58,2,2,0,0,0,1.42-3.41Z" transform="translate(-1034.45 -1085.38)"/><path class="cls-3" d="M1162.53,1218.45l2.91-2.9a2,2,0,1,0-2.83-2.83l-2.9,2.9-2.91-2.9a2,2,0,1,0-2.82,2.83l2.9,2.9-2.9,2.9a2,2,0,1,0,2.82,2.83l2.91-2.9,2.9,2.9a2,2,0,0,0,1.41.59,2,2,0,0,0,1.42-3.42Z" transform="translate(-1034.45 -1085.38)"/><g class="cls-2"><path class="cls-1" d="M1278.12,1127h-6.92a2,2,0,1,1,0-4h6.92a2,2,0,0,1,0,4Z" transform="translate(-1034.45 -1085.38)"/></g><g class="cls-2"><path class="cls-1" d="M1317.38,1159.29H1302.7a2,2,0,1,1,0-4h14.68a2,2,0,0,1,0,4Z" transform="translate(-1034.45 -1085.38)"/></g><g class="cls-2"><path class="cls-1" d="M1287.8,1159.29h-148a2,2,0,0,1,0-4h148a2,2,0,1,1,0,4Z" transform="translate(-1034.45 -1085.38)"/></g><g class="cls-2"><path class="cls-1" d="M1139.8,1220.45h-74a2,2,0,0,1,0-4h74a2,2,0,0,1,0,4Z" transform="translate(-1034.45 -1085.38)"/></g><g class="cls-2"><path class="cls-1" d="M1564.74,1180.43H1447.05a2,2,0,0,1,0-4h117.69a2,2,0,0,1,0,4Z" transform="translate(-1034.45 -1085.38)"/></g><g class="cls-2"><polygon class="cls-1" points="290.98 12.59 290.98 4.2 283.71 0 276.44 4.2 276.44 12.59 283.71 16.79 290.98 12.59"/></g><polygon class="cls-1" points="544.3 240.15 544.3 233.83 538.82 230.67 533.34 233.83 533.34 240.15 538.82 243.32 544.3 240.15"/><g class="cls-2"><polygon class="cls-1" points="489.01 53.51 489.01 47.41 483.73 44.37 478.45 47.41 478.45 53.51 483.73 56.55 489.01 53.51"/></g><g class="cls-2"><polygon class="cls-1" points="155.22 32.55 155.22 26.32 149.83 23.2 144.44 26.32 144.44 32.55 149.83 35.66 155.22 32.55"/></g><g class="cls-2"><polygon class="cls-1" points="226.22 106.65 226.22 100.42 220.83 97.31 215.44 100.42 215.44 106.65 220.83 109.76 226.22 106.65"/></g><polygon class="cls-1" points="52.42 248.45 52.42 243.7 48.3 241.33 44.19 243.7 44.19 248.45 48.3 250.83 52.42 248.45"/><g class="cls-2"><polygon class="cls-1" points="506.98 265.39 504.6 262.99 507.64 259.93 510.02 262.33 506.98 265.39"/><polygon class="cls-1" points="511.76 270.18 509.37 267.79 512.41 264.73 514.8 267.12 511.76 270.18"/><polygon class="cls-1" points="476.28 296.15 473.8 293.66 477.42 290.01 479.9 292.5 476.28 296.15"/><polygon class="cls-1" points="481.24 301.13 478.76 298.64 482.38 294.99 484.86 297.48 481.24 301.13"/><path class="cls-1" d="M1528.2,1379.49a2.08,2.08,0,0,1-.9-.21,2,2,0,0,1-.88-2.69,6.16,6.16,0,0,0,.64-2.6v-6.11l-5.85,0a5.94,5.94,0,0,0-2.78.64,2,2,0,0,1-1.81-3.57,10.08,10.08,0,0,1,2.73-.91v-.16l1.88,0h9.82V1374a10.16,10.16,0,0,1-1.07,4.36A2,2,0,0,1,1528.2,1379.49Z" transform="translate(-1034.45 -1085.38)"/><path class="cls-1" d="M1521.14,1383.85a10,10,0,0,1-7.05-2.92,10.08,10.08,0,0,1-2-11.14,2,2,0,0,1,3.66,1.63,6,6,0,0,0,1.22,6.69,6,6,0,0,0,6.67,1.21,2,2,0,1,1,1.66,3.64A9.85,9.85,0,0,1,1521.14,1383.85Z" transform="translate(-1034.45 -1085.38)"/><path class="cls-1" d="M1544.29,1363.11a1.89,1.89,0,0,1-.8-.17,2,2,0,0,1-1-2.63,6,6,0,0,0-7.87-7.86,2,2,0,1,1-1.64-3.65,10,10,0,0,1,13.17,13.11A2,2,0,0,1,1544.29,1363.11Z" transform="translate(-1034.45 -1085.38)"/><path class="cls-1" d="M1537.09,1367.89h-10v-11.67l.16,0a10.39,10.39,0,0,1,.81-2.57,2,2,0,0,1,3.62,1.71,6,6,0,0,0-.58,2.65l0,1.81h0v4.08h6a5.92,5.92,0,0,0,2.5-.59,2,2,0,0,1,1.74,3.6A10,10,0,0,1,1537.09,1367.89Z" transform="translate(-1034.45 -1085.38)"/></g><g class="cls-2"><path class="cls-1" d="M1529.08,1399.15a33.38,33.38,0,1,1,33.37-33.37A33.41,33.41,0,0,1,1529.08,1399.15Zm0-62.75a29.38,29.38,0,1,0,29.37,29.38A29.41,29.41,0,0,0,1529.08,1336.4Z" transform="translate(-1034.45 -1085.38)"/></g><path class="cls-4" d="M1461.94,1300.47A2,2,0,0,1,1460,1299l-3.54-12h-10.3l-2.52,11.35a2,2,0,0,1-3.91-.86l2.87-12.92a2,2,0,0,1,2-1.57H1458a2,2,0,0,1,1.92,1.44l4,13.43a2,2,0,0,1-1.35,2.48A1.87,1.87,0,0,1,1461.94,1300.47Z" transform="translate(-1034.45 -1085.38)"/><path class="cls-4" d="M1407.86,1353.13a2.28,2.28,0,0,1-.44-.05l-13.13-2.95a2,2,0,0,1-1.56-1.94l0-13.38a2,2,0,0,1,1.44-1.93l13.19-3.85a2,2,0,1,1,1.12,3.84l-11.75,3.42,0,10.29,11.58,2.6a2,2,0,0,1-.44,4Z" transform="translate(-1034.45 -1085.38)"/><path class="cls-4" d="M1415.34,1387.08a2,2,0,0,1-1.41-.58l-9.48-9.48a2,2,0,0,1-.34-2.37l6.77-12.45a2,2,0,0,1,3.52,1.91l-6.06,11.14,7.28,7.29,10-6.31a2,2,0,1,1,2.14,3.37l-11.3,7.17A2,2,0,0,1,1415.34,1387.08Z" transform="translate(-1034.45 -1085.38)"/><path class="cls-4" d="M1458,1399h-13.4a2,2,0,0,1-1.93-1.47l-3.61-13a2,2,0,0,1,3.85-1.07l3.21,11.58h10.27l2.52-11.55a2,2,0,1,1,3.91.85l-2.87,13.12A2,2,0,0,1,1458,1399Z" transform="translate(-1034.45 -1085.38)"/><path class="cls-4" d="M1486.27,1386.78a1.94,1.94,0,0,1-1-.25l-12-6.53a2,2,0,0,1,1.92-3.51l10.64,5.81,7.29-7.28-6.44-10.18a2,2,0,1,1,3.38-2.13l7.29,11.52a2,2,0,0,1-.27,2.48l-9.48,9.48A2,2,0,0,1,1486.27,1386.78Z" transform="translate(-1034.45 -1085.38)"/><path class="cls-4" d="M1413.86,1319a2,2,0,0,1-1.69-.93l-7.15-11.24a2,2,0,0,1,.27-2.49l9.48-9.47a2,2,0,0,1,2.36-.35l12.4,6.73a2,2,0,0,1-1.91,3.51l-11.08-6-7.29,7.29,6.29,9.88a2,2,0,0,1-1.68,3.08Z" transform="translate(-1034.45 -1085.38)"/><path class="cls-4" d="M1493.6,1353.12a2,2,0,0,1-.56-3.92l12.09-3.55v-10.29l-12-2.67a2,2,0,1,1,.86-3.9l13.59,3a2,2,0,0,1,1.57,2v13.4a2,2,0,0,1-1.44,1.92l-13.53,4A2.23,2.23,0,0,1,1493.6,1353.12Z" transform="translate(-1034.45 -1085.38)"/><path class="cls-4" d="M1488.33,1320.14a2,2,0,0,1-.95-.24,2,2,0,0,1-.8-2.71l6-11.07-7.29-7.29-10.26,6.51a2,2,0,0,1-2.15-3.38l11.62-7.37a2,2,0,0,1,2.48.28l9.48,9.47a2,2,0,0,1,.34,2.37l-6.72,12.38A2,2,0,0,1,1488.33,1320.14Z" transform="translate(-1034.45 -1085.38)"/><path class="cls-4" d="M1474,1305.65a2,2,0,0,1-1-.3,41.71,41.71,0,0,0-11.48-4.94,2,2,0,1,1,1-3.87A45.55,45.55,0,0,1,1475,1302a2,2,0,0,1-1.06,3.7Z" transform="translate(-1034.45 -1085.38)"/><path class="cls-4" d="M1493.54,1332.74a2,2,0,0,1-1.94-1.53,41.8,41.8,0,0,0-5-12,2,2,0,1,1,3.41-2.08,45.69,45.69,0,0,1,5.45,13.18,2,2,0,0,1-1.48,2.41A2.59,2.59,0,0,1,1493.54,1332.74Z" transform="translate(-1034.45 -1085.38)"/><path class="cls-4" d="M1488.45,1365.78a2,2,0,0,1-1.71-3,41.67,41.67,0,0,0,4.91-12.08,2,2,0,0,1,3.9.91,45.85,45.85,0,0,1-5.39,13.24A2,2,0,0,1,1488.45,1365.78Z" transform="translate(-1034.45 -1085.38)"/><path class="cls-4" d="M1460.84,1385.92a2,2,0,0,1-.45-4,41.71,41.71,0,0,0,12.85-5.42,2,2,0,0,1,2.15,3.38,45.67,45.67,0,0,1-14.09,5.93A1.82,1.82,0,0,1,1460.84,1385.92Z" transform="translate(-1034.45 -1085.38)"/><path class="cls-4" d="M1441,1386a2.3,2.3,0,0,1-.45,0,45.73,45.73,0,0,1-15-6.36,2,2,0,0,1,2.2-3.35,41.67,41.67,0,0,0,13.67,5.81,2,2,0,0,1-.44,4Z" transform="translate(-1034.45 -1085.38)"/><path class="cls-4" d="M1412.64,1365.16a2,2,0,0,1-1.73-1,46.07,46.07,0,0,1-5-12.58,2,2,0,0,1,3.9-.91,41.85,41.85,0,0,0,4.56,11.48,2,2,0,0,1-1.73,3Z" transform="translate(-1034.45 -1085.38)"/><path class="cls-4" d="M1407.87,1333a1.88,1.88,0,0,1-.46-.06,2,2,0,0,1-1.49-2.4,45.86,45.86,0,0,1,6.26-14.59,2,2,0,1,1,3.35,2.19,41.47,41.47,0,0,0-5.71,13.31A2,2,0,0,1,1407.87,1333Z" transform="translate(-1034.45 -1085.38)"/><path class="cls-4" d="M1428.58,1305a2,2,0,0,1-1-3.73,45.64,45.64,0,0,1,13.65-5.26l.49,1.94.39,2-.4-2,.38,2a41.93,41.93,0,0,0-12.5,4.81A1.92,1.92,0,0,1,1428.58,1305Z" transform="translate(-1034.45 -1085.38)"/><path class="cls-4" d="M1324.3,1373.29h-24.75a2,2,0,0,1-1.61-.82l-4.9-6.7h-79.57a2,2,0,1,1,0-4h80.58a2,2,0,0,1,1.61.82l4.9,6.7h22.76l5.28-6.75a2,2,0,0,1,1.57-.77h80.69a2,2,0,1,1,0,4h-79.71l-5.27,6.75A2,2,0,0,1,1324.3,1373.29Z" transform="translate(-1034.45 -1085.38)"/><path class="cls-4" d="M1441,1300a2,2,0,0,1-2-2v-82.67H1184.8v71.33a2,2,0,0,1-4,0v-73.33a2,2,0,0,1,2-2H1441a2,2,0,0,1,2,2V1298A2,2,0,0,1,1441,1300Z" transform="translate(-1034.45 -1085.38)"/><g class="cls-2"><path class="cls-1" d="M1171,1399a2,2,0,0,1-1.13-.35L1138,1376.78a52,52,0,0,1-21.87-42.32v-46.92a2,2,0,0,1,2-2H1223.8a2,2,0,0,1,2,2v46.92a52,52,0,0,1-21.84,42.3l-31.85,21.93A2,2,0,0,1,1171,1399Zm-50.82-109.5v44.92a48,48,0,0,0,20.16,39l30.66,21.11,30.7-21.13a48,48,0,0,0,20.13-39v-44.92Z" transform="translate(-1034.45 -1085.38)"/></g><path class="cls-4" d="M1170.7,1360.58a27.65,27.65,0,1,1,27.65-27.65A27.67,27.67,0,0,1,1170.7,1360.58Zm0-51.29a23.65,23.65,0,1,0,23.65,23.64A23.67,23.67,0,0,0,1170.7,1309.29Z" transform="translate(-1034.45 -1085.38)"/><path class="cls-4" d="M1450.06,1370a29.39,29.39,0,1,1,29.39-29.39A29.42,29.42,0,0,1,1450.06,1370Zm0-54.78a25.39,25.39,0,1,0,25.39,25.39A25.42,25.42,0,0,0,1450.06,1315.2Z" transform="translate(-1034.45 -1085.38)"/><path class="cls-4" d="M1164.13,1344.29a2,2,0,0,1-1.41-.59l-11.33-11.33,2.82-2.83,10,10,19.44-18.79,2.78,2.88-20.86,20.15A2,2,0,0,1,1164.13,1344.29Z" transform="translate(-1034.45 -1085.38)"/><g class="cls-2"><path class="cls-1" d="M1163.8,1399.15H1059.13v-35.37H1163.8Zm-100.67-4h96.67v-27.37h-96.67Z" transform="translate(-1034.45 -1085.38)"/></g><g class="cls-2"><circle class="cls-1" cx="253.69" cy="171.8" r="15.23"/></g><path class="cls-4" d="M1262.94,1332.37a11.75,11.75,0,1,1,11.75-11.75A11.76,11.76,0,0,1,1262.94,1332.37Zm0-19.49a7.75,7.75,0,1,0,7.75,7.74A7.75,7.75,0,0,0,1262.94,1312.88Z" transform="translate(-1034.45 -1085.38)"/><path class="cls-4" d="M1288.14,1302.11a11.75,11.75,0,1,1,11.74-11.74A11.75,11.75,0,0,1,1288.14,1302.11Zm0-19.49a7.75,7.75,0,1,0,7.74,7.75A7.76,7.76,0,0,0,1288.14,1282.62Z" transform="translate(-1034.45 -1085.38)"/><path class="cls-4" d="M1288.14,1274.41a17.23,17.23,0,1,1,17.23-17.23A17.25,17.25,0,0,1,1288.14,1274.41Zm0-30.46a13.23,13.23,0,1,0,13.23,13.23A13.24,13.24,0,0,0,1288.14,1244Z" transform="translate(-1034.45 -1085.38)"/><path class="cls-4" d="M1315.9,1325a11.75,11.75,0,1,1,11.75-11.74A11.76,11.76,0,0,1,1315.9,1325Zm0-19.49a7.75,7.75,0,1,0,7.75,7.75A7.75,7.75,0,0,0,1315.9,1305.5Z" transform="translate(-1034.45 -1085.38)"/><path class="cls-4" d="M1341.24,1294.87a11.75,11.75,0,1,1,11.74-11.75A11.76,11.76,0,0,1,1341.24,1294.87Zm0-19.49a7.75,7.75,0,1,0,7.74,7.74A7.75,7.75,0,0,0,1341.24,1275.38Z" transform="translate(-1034.45 -1085.38)"/><g class="cls-2"><circle class="cls-1" cx="306.79" cy="163.27" r="15.23"/></g><rect class="cls-4" x="1265.4" y="1303.6" width="20.14" height="4" transform="translate(-1580.34 338.86) rotate(-49.4)"/><rect class="cls-4" x="1299.91" y="1293.69" width="4" height="16.5" transform="translate(-1563.13 413.95) rotate(-51.16)"/><rect class="cls-4" x="1318.85" y="1296.37" width="19.89" height="4" transform="translate(-1555.21 388.04) rotate(-49.74)"/><path class="cls-4" d="M1288.14,1259.5a6,6,0,1,1,6.42-6,2,2,0,0,1-4,0,2.48,2.48,0,1,0-2.42,2,2,2,0,1,1,0,4Z" transform="translate(-1034.45 -1085.38)"/><path class="cls-4" d="M1288.14,1267.41a6.21,6.21,0,0,1-6.43-6,2,2,0,0,1,4,0,2.48,2.48,0,1,0,2.43-2,2,2,0,0,1,0-4,6,6,0,1,1,0,11.91Z" transform="translate(-1034.45 -1085.38)"/><path class="cls-4" d="M1288.14,1251.6a2,2,0,0,1-2-2v-1.89a2,2,0,0,1,4,0v1.89A2,2,0,0,1,1288.14,1251.6Z" transform="translate(-1034.45 -1085.38)"/><path class="cls-4" d="M1288.14,1269.3a2,2,0,0,1-2-2v-1.89a2,2,0,0,1,4,0v1.89A2,2,0,0,1,1288.14,1269.3Z" transform="translate(-1034.45 -1085.38)"/><path class="cls-4" d="M1341.24,1265.89a17.24,17.24,0,1,1,17.23-17.23A17.25,17.25,0,0,1,1341.24,1265.89Zm0-30.47a13.24,13.24,0,1,0,13.23,13.24A13.25,13.25,0,0,0,1341.24,1235.42Z" transform="translate(-1034.45 -1085.38)"/><path class="cls-4" d="M1341.24,1251a6,6,0,1,1,6.42-6,2,2,0,0,1-4,0,2.48,2.48,0,1,0-2.42,2,2,2,0,0,1,0,4Z" transform="translate(-1034.45 -1085.38)"/><path class="cls-4" d="M1341.24,1258.89a6.21,6.21,0,0,1-6.43-6,2,2,0,1,1,4,0,2.48,2.48,0,1,0,2.43-2,2,2,0,0,1,0-4,6,6,0,1,1,0,11.92Z" transform="translate(-1034.45 -1085.38)"/><path class="cls-4" d="M1341.24,1243.08a2,2,0,0,1-2-2v-1.89a2,2,0,0,1,4,0v1.89A2,2,0,0,1,1341.24,1243.08Z" transform="translate(-1034.45 -1085.38)"/><path class="cls-4" d="M1341.24,1260.78a2,2,0,0,1-2-2v-1.89a2,2,0,0,1,4,0v1.89A2,2,0,0,1,1341.24,1260.78Z" transform="translate(-1034.45 -1085.38)"/><rect class="cls-4" x="413.93" y="213.09" width="5.42" height="3.98"/><rect class="cls-4" x="1477.16" y="1310.21" width="5.42" height="3.98" transform="translate(326.86 -1747.47) rotate(45)"/><rect class="cls-4" x="1488.32" y="1339.05" width="5.42" height="3.98" transform="translate(1797.61 -1235.37) rotate(90)"/><rect class="cls-4" x="1407.14" y="1339.05" width="5.42" height="3.98" transform="translate(1716.44 -1154.2) rotate(90)"/><rect class="cls-4" x="1419.26" y="1368.11" width="5.42" height="3.98" transform="translate(350.84 -1689.57) rotate(45)"/><rect class="cls-4" x="1419.26" y="1310.21" width="5.42" height="3.98" transform="translate(-1545.83 304.44) rotate(-45)"/><rect class="cls-4" x="1477.16" y="1368.11" width="5.42" height="3.98" transform="translate(-1569.82 362.33) rotate(-45)"/><rect class="cls-4" x="413.93" y="295.13" width="5.42" height="3.98"/><g class="cls-2"><rect class="cls-1" x="38.52" y="296.08" width="5.33" height="3.99"/></g><g class="cls-2"><rect class="cls-1" x="56.43" y="296.08" width="5.33" height="3.99"/></g><g class="cls-2"><rect class="cls-1" x="74.35" y="296.08" width="5.33" height="3.99"/></g><g class="cls-2"><rect class="cls-1" x="92.43" y="296.08" width="5.33" height="3.99"/></g><g class="cls-2"><rect class="cls-1" x="109.31" y="296.08" width="5.33" height="3.99"/></g></svg>