<svg width="4320" height="1323" xmlns="http://www.w3.org/2000/svg"><defs><linearGradient x1="50%" y1="0%" x2="50%" y2="75.381%" id="a"><stop stop-color="#F8FBFF" stop-opacity="0" offset="0%"/><stop stop-color="#F8FBFF" offset="100%"/></linearGradient><linearGradient x1="47.558%" y1="48.623%" x2="100.454%" y2="0%" id="b"><stop stop-color="#F8FBFF" stop-opacity="0" offset="0%"/><stop stop-color="#D3DDEC" offset="100%"/></linearGradient><linearGradient x1="79.327%" y1="100%" x2="33.778%" y2="100%" id="c"><stop stop-color="#D3DDEC" stop-opacity="0" offset="0%"/><stop stop-color="#D3DDEC" stop-opacity=".48" offset="100%"/></linearGradient><filter x="-237.9%" y="-215.6%" width="575.9%" height="531.2%" filterUnits="objectBoundingBox" id="d"><feOffset dx="24" dy="24" in="SourceAlpha" result="shadowOffsetOuter1"/><feGaussianBlur stdDeviation="24" in="shadowOffsetOuter1" result="shadowBlurOuter1"/><feColorMatrix values="0 0 0 0 0.0941176471 0 0 0 0 0.137254902 0 0 0 0 0.203921569 0 0 0 0.04 0" in="shadowBlurOuter1" result="shadowMatrixOuter1"/><feMerge><feMergeNode in="shadowMatrixOuter1"/><feMergeNode in="SourceGraphic"/></feMerge></filter><filter x="-79.8%" y="-115%" width="259.5%" height="330%" filterUnits="objectBoundingBox" id="e"><feOffset dx="24" dy="24" in="SourceAlpha" result="shadowOffsetOuter1"/><feGaussianBlur stdDeviation="24" in="shadowOffsetOuter1" result="shadowBlurOuter1"/><feColorMatrix values="0 0 0 0 0.0941176471 0 0 0 0 0.137254902 0 0 0 0 0.203921569 0 0 0 0.04 0" in="shadowBlurOuter1" result="shadowMatrixOuter1"/><feMerge><feMergeNode in="shadowMatrixOuter1"/><feMergeNode in="SourceGraphic"/></feMerge></filter><linearGradient x1="0%" y1="7.395%" x2="0%" y2="100%" id="f"><stop stop-color="#53C0F1" stop-opacity=".24" offset="0%"/><stop stop-color="#D2F1FF" offset="100%"/></linearGradient><linearGradient x1="100%" y1="27.276%" x2="0%" y2="75.582%" id="g"><stop stop-color="#25B2F2" stop-opacity=".64" offset="0%"/><stop stop-color="#85D4F8" offset="100%"/></linearGradient><linearGradient x1="73.772%" y1="18.374%" x2="19.946%" y2="72.147%" id="h"><stop stop-color="#25B2F2" offset="0%"/><stop stop-color="#85D4F8" offset="100%"/></linearGradient></defs><g fill="none" fill-rule="evenodd"><path fill="url(#a)" d="M234 754h2880v275L234 2077z" transform="translate(-234 -754)"/><path fill="url(#b)" d="M234 754h2880L234 1817z" transform="translate(-234 -754)"/><path fill="url(#c)" transform="rotate(-20 -987.243 1025.684)" d="M290.58 398.505L42.616 1079.782l2145.263-2.156 305.166-400z"/><g><path d="M2734.889 650.103l-5.956 85.173 185.88-67.655 5.957-85.174-185.881 67.656z" stroke="#D3DDEC" stroke-width="2"/><path fill="#D3DDEC" d="M2763.937 148.662l-6.109 87.357 326.074-118.68 6.108-87.356v-.002z"/></g><g fill-rule="nonzero"><g filter="url(#d)" transform="rotate(-44 1042.486 -2198.034)"><path d="M29 28.943l29-14.595L29.926.22a2.059 2.059 0 0 0-1.854 0L0 14.348l29 14.595z" fill-opacity=".8" fill="#D3DDEC"/><path d="M48.656 54.035L28.71 63.964V28.907l29-14.435v33.783c0 .781-.443 1.495-1.145 1.843l-7.91 3.937z" fill-opacity=".48" fill="#D3DDEC"/><path d="M29 63.964l-27.925-13.9A2.063 2.063 0 0 1 0 48.254V14.473l29 14.435v35.057z" fill="#F8FBFF"/></g><g filter="url(#e)" transform="rotate(-20 1540.098 -4387.424)"><path d="M86.954 86.716l85.792-43.307L89.693 1.49a6.074 6.074 0 0 0-5.485 0L1.161 43.408l85.793 43.307z" fill-opacity=".32" fill="url(#f)"/><path d="M172.309 76.796l-85.793 42.437V85.199l85.793-42.437v34.034z" fill-opacity=".48" fill="url(#g)"/><path d="M86.679 119.729L.887 77.293V43.258l85.792 42.437v34.034z" fill-opacity=".64" fill="url(#h)"/></g></g></g></svg>