<svg width="864" height="432" xmlns="http://www.w3.org/2000/svg"><defs><filter x="-237.9%" y="-215.6%" width="575.9%" height="531.2%" filterUnits="objectBoundingBox" id="a"><feOffset dx="24" dy="24" in="SourceAlpha" result="shadowOffsetOuter1"/><feGaussianBlur stdDeviation="24" in="shadowOffsetOuter1" result="shadowBlurOuter1"/><feColorMatrix values="0 0 0 0 0.0941176471 0 0 0 0 0.137254902 0 0 0 0 0.203921569 0 0 0 0.04 0" in="shadowBlurOuter1" result="shadowMatrixOuter1"/><feMerge><feMergeNode in="shadowMatrixOuter1"/><feMergeNode in="SourceGraphic"/></feMerge></filter></defs><g fill="none" fill-rule="evenodd"><g filter="url(#a)" transform="rotate(-44 566.361 -185.767)" fill-rule="nonzero"><path d="M29 28.943l29-14.595L29.926.22a2.059 2.059 0 0 0-1.854 0L0 14.348l29 14.595z" fill-opacity=".8" fill="#D3DDEC"/><path d="M48.656 54.035L28.71 63.964V28.907l29-14.435v33.783c0 .781-.443 1.495-1.145 1.843l-7.91 3.937z" fill-opacity=".48" fill="#D3DDEC"/><path d="M29 63.964l-27.925-13.9A2.063 2.063 0 0 1 0 48.254V14.473l29 14.435v35.057z" fill="#F8FBFF"/></g><path fill="#55C3F5" d="M347.75 194.01l-4.86 69.877 450.614-164.01L798.364 30z"/><path d="M456.364 268.143l-11.218 70.062 185.786-67.62 11.22-70.064-185.788 67.622z" stroke="#D3DDEC" stroke-width="2"/></g></svg>