<svg width="712" height="400" xmlns="http://www.w3.org/2000/svg" xmlns:xlink="http://www.w3.org/1999/xlink"><defs><rect id="a" width="712" height="400" rx="2"/><linearGradient x1="78.169%" y1="9.507%" x2="24.434%" y2="90.469%" id="d"><stop stop-color="#182334" stop-opacity=".64" offset="0%"/><stop stop-color="#182334" offset="100%"/></linearGradient><path d="M40 80C17.909 80 0 62.091 0 40S17.909 0 40 0 80 17.91 80 40 62.091 80 40 80zm8-40a.999.999 0 0 0-.427-.82l-10-7A1 1 0 0 0 36 33V47a.999.999 0 0 0 1.573.82l10-7A.995.995 0 0 0 48 40V40c0 .001 0 .001 0 0z" id="c"/><filter x="-70%" y="-50%" width="240%" height="240%" filterUnits="objectBoundingBox" id="b"><feOffset dy="16" in="SourceAlpha" result="shadowOffsetOuter1"/><feGaussianBlur stdDeviation="16" in="shadowOffsetOuter1" result="shadowBlurOuter1"/><feComposite in="shadowBlurOuter1" in2="SourceAlpha" operator="out" result="shadowBlurOuter1"/><feColorMatrix values="0 0 0 0 0.062745098 0 0 0 0 0.0862745098 0 0 0 0 0.254901961 0 0 0 0.24 0" in="shadowBlurOuter1"/></filter></defs><g fill="none" fill-rule="evenodd"><use fill="#FFF" xlink:href="#a"/><g transform="translate(316 160)"><use fill="#000" filter="url(#b)" xlink:href="#c"/><use fill="url(#d)" xlink:href="#c"/></g></g></svg>