<svg xmlns="http://www.w3.org/2000/svg" xmlns:xlink="http://www.w3.org/1999/xlink" viewBox="0 0 268.82 268.82"><defs><style>.cls-1{fill:#1d1d1b;}.cls-2{fill:#fff;}.cls-3{fill:url(#Dégradé_sans_nom_32);}.cls-4{fill:url(#Dégradé_sans_nom_28);}.cls-5{fill:url(#Dégradé_sans_nom_17);}.cls-6{fill:url(#Dégradé_sans_nom_22);}</style><linearGradient id="Dégradé_sans_nom_32" x1="3246.57" y1="171.51" x2="3271.25" y2="150.06" gradientTransform="matrix(-1, 0, 0, 1, 3468.9, 0)" gradientUnits="userSpaceOnUse"><stop offset="0" stop-color="#fff"/><stop offset="0.3" stop-color="#fcfcfc"/><stop offset="0.51" stop-color="#f3f3f3"/><stop offset="0.68" stop-color="#e4e4e4"/><stop offset="0.84" stop-color="#cecece"/><stop offset="0.99" stop-color="#b3b3b3"/><stop offset="1" stop-color="#b1b1b1"/></linearGradient><linearGradient id="Dégradé_sans_nom_28" x1="3245.74" y1="129.9" x2="3279.86" y2="110.2" gradientTransform="matrix(-1, 0, 0, 1, 3468.9, 0)" gradientUnits="userSpaceOnUse"><stop offset="0" stop-color="#fff"/><stop offset="0.27" stop-color="#fcfcfc"/><stop offset="0.45" stop-color="#f4f4f4"/><stop offset="0.59" stop-color="#e5e5e5"/><stop offset="0.72" stop-color="#d0d0d0"/><stop offset="0.85" stop-color="#b5b5b5"/><stop offset="0.96" stop-color="#949494"/><stop offset="1" stop-color="#868686"/></linearGradient><linearGradient id="Dégradé_sans_nom_17" x1="3313.88" y1="193.83" x2="3404.32" y2="177.88" gradientTransform="matrix(-1, 0, 0, 1, 3468.9, 0)" gradientUnits="userSpaceOnUse"><stop offset="0" stop-color="#fff"/><stop offset="0.15" stop-color="#f0f0f0"/><stop offset="0.44" stop-color="#c9c9c8"/><stop offset="0.84" stop-color="#8a8a89"/><stop offset="1" stop-color="#6f6f6e"/></linearGradient><linearGradient id="Dégradé_sans_nom_22" x1="169.24" y1="136.96" x2="144.55" y2="72.65" gradientUnits="userSpaceOnUse"><stop offset="0" stop-color="#fff"/><stop offset="0.34" stop-color="#fdfdfd"/><stop offset="0.51" stop-color="#f5f5f5"/><stop offset="0.64" stop-color="#e8e8e8"/><stop offset="0.75" stop-color="#d6d6d6"/><stop offset="0.85" stop-color="#bdbdbd"/><stop offset="0.94" stop-color="#a0a0a0"/><stop offset="1" stop-color="#868686"/></linearGradient></defs><g id="Layer_2" data-name="Layer 2"><g id="Calque_1" data-name="Calque 1"><circle class="cls-1" cx="134.41" cy="134.41" r="134.41"/><path class="cls-2" d="M57.86,216s-43.47-14.13-32.1-66.59c0,0,13.16-62,105.9-87.16,0,0,72.4-20.61,88.55-18.68,0,0-3.59,25.31-76.89,43.83,0,0-44.5,24.24-48.34,27.24s-7,8.77-7,8.77l-2.48,5.68-36.79-7.3,39,17.51L66.06,169.15S61.3,180,78.53,181.88l36.25-10.77,5,1L126.45,192l-4.71,17.65L88.34,216l-23.08,2.41Z"/><path class="cls-3" d="M197.06,200.53s41-43.63,28.21-77.43c0,0-24.68,31.7-34.47,34.85Z"/><path class="cls-4" d="M225.27,123.1s-28.93,10.13-32.14,12.43c0,0,31-13.33,27.08-54.52,0,0-23.92,44.61-44.55,52.37,0,0,13.24,16.92,14.37,24.58C190,158,217.68,150.79,225.27,123.1Z"/><path class="cls-5" d="M57.85,216s51.63,3.89,61-15.8-4.07-29.13-4.07-29.13,13.51-4.35,13.3-13.88c0,0,.54-3.86-5.05-10.46,0,0,20.38,5.45,25.24,13.56a38.09,38.09,0,0,0,2.38,3.52c4.69,6.06,16.82,27.51-15.09,47.21C97.81,234.36,57.85,216,57.85,216Z"/><path class="cls-1" d="M87.67,139.34s-21.12,28-21.61,29.81c0,0-5.62,11.53,12.47,12.73,0,0,9.64-.64,36.25-10.77,0,0,23.29-7.32,8.25-24.34,0,0,18.86,6.08,25.2,14.93.35.49.66,1,1,1.5,2.63,3.31,12,17,1.85,33l-.06.09c-.66,1.28-25.42,30.32-86.45,22.19l-.18,0c-.59.19-.11-.17.18,0,5.27,2.29,15.57,3.61,23.88,4.26,9.46.74,19.09-.27,28.56-.78a216.36,216.36,0,0,0,28.25-3.32,173.83,173.83,0,0,0,27.46-7.36c8.42-3.07,16.19-7.65,24.21-11.6l-1.78-17.4s-1.37-20.49-7.29-31.4c-.57-1-1.11-2.09-1.75-3.09-3.27-5.18-11.28-20.52-32-29.39h0L147,125.75h0l3.44-9h0c-.06,0-16.88-6.38-22-4.74h0s-1.68,8.8-1.69,8.84h0l-2.4-9.11h0a60.73,60.73,0,0,0-23.58,1.57h0l4.88,8.78s0,0,0,0c-.66-.18-6.77-1.52-11.57,8.7h0l-45.35-9h0l39,17.51Z"/><path class="cls-2" d="M107.35,141.12l-11.1,8.33s-3.42-4.08,1-7.51A10.66,10.66,0,0,1,107.35,141.12Z"/><path class="cls-6" d="M175.66,134.41s21.4-4.62,44.55-53.4c0,0-26.57,20.37-39.47,21.81,0,0,37.9-16,39.47-59.21,0,0-124,56.16-141.28,84.21l15.13,3s4.84-11.61,11.6-8.74l-4.88-8.79s7.23-4.31,23.58-1.57l2.4,9.11,1.69-8.84s4.8-2.31,22,4.75l-3.44,9,7.15-7.32S170.36,125.19,175.66,134.41Z"/></g></g></svg>