<svg id="Layer_1" data-name="Layer 1" xmlns="http://www.w3.org/2000/svg" viewBox="0 0 568.83 315.25"><defs><style>.cls-1{opacity:0.5;}.cls-2{fill:#f9b233;}.cls-3{fill:#c27200;}.cls-4{opacity:0.44;}</style></defs><title>elasticbitcoin-Risk-diversification</title><g class="cls-1"><path class="cls-2" d="M1124.31,972.61a31.27,31.27,0,1,1,24-51.31,2,2,0,1,1-3.07,2.56,27.27,27.27,0,1,0,.52,34.32,2,2,0,1,1,3.14,2.47A31.1,31.1,0,0,1,1124.31,972.61Z" transform="translate(-1032.07 -657.37)"/></g><polygon class="cls-3" points="149.62 269.97 147.39 267.74 150.23 264.88 152.46 267.12 149.62 269.97"/><polygon class="cls-3" points="154.08 274.44 151.85 272.21 154.69 269.35 156.91 271.59 154.08 274.44"/><polygon class="cls-3" points="120.98 298.67 118.66 296.35 122.04 292.94 124.36 295.26 120.98 298.67"/><polygon class="cls-3" points="125.6 303.31 123.29 300.99 126.67 297.59 128.98 299.91 125.6 303.31"/><path class="cls-3" d="M1169.35,954.27a2.08,2.08,0,0,1-.9-.21,2,2,0,0,1-.89-2.69,5.5,5.5,0,0,0,.59-2.37v-5.55l-3.44,0h-1.89a5.33,5.33,0,0,0-2.52.58,2,2,0,1,1-1.81-3.56,9.05,9.05,0,0,1,2.49-.85v-.17h11.16V949a9.68,9.68,0,0,1-1,4.13A2,2,0,0,1,1169.35,954.27Z" transform="translate(-1032.07 -657.37)"/><path class="cls-3" d="M1162.76,958.34a9.43,9.43,0,0,1-6.67-2.76,9.54,9.54,0,0,1-1.94-10.54,2,2,0,0,1,3.66,1.63,5.49,5.49,0,0,0,1.11,6.08,5.42,5.42,0,0,0,6.07,1.11,2,2,0,1,1,1.66,3.63A9.32,9.32,0,0,1,1162.76,958.34Z" transform="translate(-1032.07 -657.37)"/><path class="cls-3" d="M1184.36,939a2,2,0,0,1-.8-.16,2,2,0,0,1-1-2.64,5.43,5.43,0,0,0-7.17-7.16,2,2,0,0,1-1.64-3.65,9.43,9.43,0,0,1,12.47,12.41A2,2,0,0,1,1184.36,939Z" transform="translate(-1032.07 -657.37)"/><path class="cls-3" d="M1177.52,943.45h-9.37V932.31l.17,0a9.54,9.54,0,0,1,.75-2.34,2,2,0,1,1,3.62,1.71,5.51,5.51,0,0,0-.53,2.41l0,1.79h0v3.58h5.47a5.38,5.38,0,0,0,2.29-.54,2,2,0,0,1,1.74,3.61,9.43,9.43,0,0,1-4,.93Z" transform="translate(-1032.07 -657.37)"/><path class="cls-2" d="M1582.16,972.61H1055a2,2,0,0,1,0-4h527.13a2,2,0,0,1,0,4Z" transform="translate(-1032.07 -657.37)"/><path class="cls-2" d="M1598.91,972.62h-8.05a2,2,0,0,1,0-4h8.05a2,2,0,0,1,0,4Z" transform="translate(-1032.07 -657.37)"/><path class="cls-2" d="M1047.28,972.61h-13.21a2,2,0,0,1,0-4h13.21a2,2,0,0,1,0,4Z" transform="translate(-1032.07 -657.37)"/><g class="cls-4"><path class="cls-2" d="M1375.92,740.58a2,2,0,0,1-2-2V726.37a2,2,0,1,1,4,0v12.21A2,2,0,0,1,1375.92,740.58Z" transform="translate(-1032.07 -657.37)"/><path class="cls-2" d="M1382,734.48h-12.21a2,2,0,0,1,0-4H1382a2,2,0,0,1,0,4Z" transform="translate(-1032.07 -657.37)"/></g><g class="cls-1"><path class="cls-2" d="M1562.69,734.48H1393.06a2,2,0,0,1,0-4h169.63a2,2,0,0,1,0,4Z" transform="translate(-1032.07 -657.37)"/></g><g class="cls-1"><path class="cls-2" d="M1498.44,704.29H1338.52a2,2,0,0,1,0-4h159.92a2,2,0,0,1,0,4Z" transform="translate(-1032.07 -657.37)"/></g><g class="cls-1"><path class="cls-2" d="M1308,710.39a2,2,0,0,1-2-2v-12.2a2,2,0,0,1,4,0v12.2A2,2,0,0,1,1308,710.39Z" transform="translate(-1032.07 -657.37)"/><path class="cls-2" d="M1314.08,704.29h-12.21a2,2,0,0,1,0-4h12.21a2,2,0,0,1,0,4Z" transform="translate(-1032.07 -657.37)"/><path class="cls-2" d="M1331.28,704.29h-6.92a2,2,0,0,1,0-4h6.92a2,2,0,0,1,0,4Z" transform="translate(-1032.07 -657.37)"/></g><g class="cls-1"><path class="cls-2" d="M1253.81,734.48a2,2,0,0,1-2-2V720.27a2,2,0,0,1,4,0v12.21A2,2,0,0,1,1253.81,734.48Z" transform="translate(-1032.07 -657.37)"/><path class="cls-2" d="M1259.91,728.37H1247.7a2,2,0,0,1,0-4h12.21a2,2,0,0,1,0,4Z" transform="translate(-1032.07 -657.37)"/><path class="cls-2" d="M1237.5,728.37h-12.21a2,2,0,0,1,0-4h12.21a2,2,0,0,1,0,4Z" transform="translate(-1032.07 -657.37)"/><path class="cls-2" d="M1209.52,728.37H1090a2,2,0,0,1,0-4h119.49a2,2,0,0,1,0,4Z" transform="translate(-1032.07 -657.37)"/><path class="cls-2" d="M1169.86,750.29h-99.17a2,2,0,0,1,0-4h99.17a2,2,0,0,1,0,4Z" transform="translate(-1032.07 -657.37)"/></g><path class="cls-3" d="M1220.11,914.07a2,2,0,0,1-2-2V821.48a6.27,6.27,0,0,1,6.27-6.27H1291a2,2,0,0,1,0,4h-66.58a2.27,2.27,0,0,0-2.27,2.27v90.59A2,2,0,0,1,1220.11,914.07Z" transform="translate(-1032.07 -657.37)"/><path class="cls-3" d="M1388.36,941.37H1243.57a2,2,0,0,1,0-4h144.79a2,2,0,0,1,0,4Z" transform="translate(-1032.07 -657.37)"/><path class="cls-3" d="M1416.19,913.29a2,2,0,0,1-2-2V821.48a2.27,2.27,0,0,0-2.27-2.27h-66.56a2,2,0,1,1,0-4h66.56a6.27,6.27,0,0,1,6.27,6.27v89.81A2,2,0,0,1,1416.19,913.29Z" transform="translate(-1032.07 -657.37)"/><path class="cls-3" d="M1411.8,914.65H1220.11a2,2,0,0,1,0-4H1411.8a2,2,0,0,1,0,4Z" transform="translate(-1032.07 -657.37)"/><path class="cls-3" d="M1269.28,970.62a2,2,0,0,1-2-2V939.37a2,2,0,0,1,4,0v29.25A2,2,0,0,1,1269.28,970.62Z" transform="translate(-1032.07 -657.37)"/><path class="cls-3" d="M1365.11,970.62a2,2,0,0,1-2-2V939.37a2,2,0,0,1,4,0v29.25A2,2,0,0,1,1365.11,970.62Z" transform="translate(-1032.07 -657.37)"/><g class="cls-1"><path class="cls-2" d="M1178.87,753.85a2,2,0,0,1-1.41-3.42l8.63-8.63a2,2,0,1,1,2.83,2.83l-8.64,8.63A2,2,0,0,1,1178.87,753.85Z" transform="translate(-1032.07 -657.37)"/><path class="cls-2" d="M1187.5,753.85a2,2,0,0,1-1.41-.59l-8.63-8.63a2,2,0,1,1,2.82-2.83l8.64,8.63a2,2,0,0,1-1.42,3.42Z" transform="translate(-1032.07 -657.37)"/></g><g class="cls-1"><path class="cls-2" d="M1135.94,952.54H1111a2,2,0,1,1,0-4h23.39l4.15-15.08h-22.21a2,2,0,0,1,0-4h24.83a2,2,0,0,1,1.93,2.53l-5.25,19.08A2,2,0,0,1,1135.94,952.54Z" transform="translate(-1032.07 -657.37)"/><path class="cls-2" d="M1120.36,943h-13.5a2,2,0,0,1,0-4h13.5a2,2,0,0,1,0,4Z" transform="translate(-1032.07 -657.37)"/></g><g class="cls-1"><path class="cls-2" d="M1503.83,781.75a2,2,0,0,1-1.41-3.42l8.63-8.63a2,2,0,1,1,2.83,2.83l-8.64,8.63A2,2,0,0,1,1503.83,781.75Z" transform="translate(-1032.07 -657.37)"/><path class="cls-2" d="M1512.46,781.75a2,2,0,0,1-1.41-.59l-8.63-8.63a2,2,0,1,1,2.82-2.83l8.64,8.63a2,2,0,0,1-1.42,3.42Z" transform="translate(-1032.07 -657.37)"/></g><g class="cls-1"><path class="cls-2" d="M1086.41,816.87a2,2,0,0,1-1.42-3.41l8.64-8.63a2,2,0,0,1,2.83,2.83l-8.64,8.63A2,2,0,0,1,1086.41,816.87Z" transform="translate(-1032.07 -657.37)"/><path class="cls-2" d="M1095,816.87a2,2,0,0,1-1.41-.58l-8.64-8.63a2,2,0,0,1,2.83-2.83l8.64,8.63a2,2,0,0,1-1.42,3.41Z" transform="translate(-1032.07 -657.37)"/></g><g class="cls-1"><polygon class="cls-2" points="270.27 8.88 270.27 2.96 265.14 0 260.01 2.96 260.01 8.88 265.14 11.85 270.27 8.88"/></g><g class="cls-1"><polygon class="cls-2" points="40.63 138 40.63 132.08 35.5 129.12 30.37 132.08 30.37 138 35.5 140.96 40.63 138"/></g><g class="cls-1"><polygon class="cls-2" points="532.46 160.46 532.46 154.54 527.33 151.58 522.2 154.54 522.2 160.46 527.33 163.42 532.46 160.46"/></g><g class="cls-1"><polygon class="cls-2" points="201.19 36.85 201.19 28.73 194.15 24.66 187.11 28.73 187.11 36.85 194.15 40.92 201.19 36.85"/></g><path class="cls-3" d="M1214.29,972.61a31.32,31.32,0,0,1-23.39-10.51,2,2,0,1,1,3-2.66,27.28,27.28,0,1,0-.14-36,2,2,0,1,1-3-2.63,31.27,31.27,0,1,1,23.55,51.83Z" transform="translate(-1032.07 -657.37)"/><g class="cls-1"><path class="cls-2" d="M1506.56,972.61a31.33,31.33,0,0,1-23.4-10.51,2,2,0,1,1,3-2.66,27.28,27.28,0,1,0-.14-36,2,2,0,1,1-3-2.63,31.27,31.27,0,1,1,23.56,51.83Z" transform="translate(-1032.07 -657.37)"/></g><path class="cls-3" d="M1417.63,972.61a31.27,31.27,0,1,1,23.39-52,2,2,0,1,1-3,2.66,27.27,27.27,0,1,0,.14,36,2,2,0,0,1,3,2.63A31.28,31.28,0,0,1,1417.63,972.61Z" transform="translate(-1032.07 -657.37)"/><path class="cls-3" d="M1170.17,972.61a31.27,31.27,0,1,1,31.27-31.27A31.3,31.3,0,0,1,1170.17,972.61Zm0-58.54a27.27,27.27,0,1,0,27.27,27.27A27.31,27.31,0,0,0,1170.17,914.07Z" transform="translate(-1032.07 -657.37)"/><path class="cls-3" d="M1461.52,972.61a31.27,31.27,0,1,1,31.27-31.27A31.3,31.3,0,0,1,1461.52,972.61Zm0-58.54a27.27,27.27,0,1,0,27.27,27.27A27.3,27.3,0,0,0,1461.52,914.07Z" transform="translate(-1032.07 -657.37)"/><path class="cls-3" d="M1218.32,943.83h-15.74a2,2,0,0,1,0-4h14.74c2-1.15,4.09-3,3.46-5.51a5.33,5.33,0,0,0-4.54-3.9h-13.66a2,2,0,0,1,0-4h13.66c3.7,0,7.48,3.11,8.42,6.94.47,1.9.84,6.7-5.9,10.24Z" transform="translate(-1032.07 -657.37)"/><rect class="cls-3" x="173.5" y="265.21" width="4" height="36.83"/><rect class="cls-3" x="179.42" y="265.21" width="4" height="5.83"/><rect class="cls-3" x="179.42" y="296.21" width="4" height="5.83"/><path class="cls-3" d="M1219,957h-16.44a2,2,0,0,1,0-4H1219a4.81,4.81,0,0,0,4.91-4.12c.21-2.48-2.19-4.38-6.42-5.07a2,2,0,1,1,.65-3.95c7.66,1.25,10.07,5.65,9.76,9.35A8.78,8.78,0,0,1,1219,957Z" transform="translate(-1032.07 -657.37)"/><path class="cls-3" d="M1461.52,946a2,2,0,0,1-.83-.18l-9.67-4.41a2,2,0,0,1-1-2.72L1460,919a2,2,0,0,1,1.79-1.1h0a2,2,0,0,1,1.79,1.14l9.4,19.7a2,2,0,0,1,.07,1.54,2,2,0,0,1-1,1.14l-9.66,4.41A2,2,0,0,1,1461.52,946Zm-7-7.37,7,3.18,7-3.2-6.77-14.18Z" transform="translate(-1032.07 -657.37)"/><path class="cls-3" d="M1461.52,945.31a2,2,0,0,1-2-2V921.22a2,2,0,1,1,4,0v22.09A2,2,0,0,1,1461.52,945.31Z" transform="translate(-1032.07 -657.37)"/><path class="cls-3" d="M1461.52,964.14h0a2,2,0,0,1-1.69-1l-9-15.17a2,2,0,0,1,2.52-2.85l8.26,3.65,8.88-3.67a2,2,0,0,1,2.45,2.92l-9.67,15.17A2,2,0,0,1,1461.52,964.14Zm-4.11-12.8,4.16,7,4.52-7.08-3.81,1.57a2,2,0,0,1-1.57,0Z" transform="translate(-1032.07 -657.37)"/><path class="cls-3" d="M1434.25,962.25h-26.36l2.15-19.49-3.43.55-1-9.64,5.36-1.15,1-12.77h10.83l-1.13,10.71,3.57-.49.36,9.43-5,1.3-1.18,11.3h14.91Zm-21.9-4h17.9V956H1414.9l1.93-18.47,4.57-1.19-.07-1.81-4.24.58,1.19-11.36h-2.68l-.92,12-4.75,1,.2,1.86,4.46-.71Z" transform="translate(-1032.07 -657.37)"/><g class="cls-1"><path class="cls-2" d="M1518.42,951.55h-19.75a2,2,0,0,1-1.44-3.39l14.57-15h-13.88a2,2,0,0,1,0-4h18.62a2,2,0,0,1,1.43,3.39l-14.57,15h15a2,2,0,0,1,0,4Z" transform="translate(-1032.07 -657.37)"/><path class="cls-2" d="M1507.17,933.18a2,2,0,0,1-2-2V924.8a2,2,0,0,1,4,0v6.38A2,2,0,0,1,1507.17,933.18Z" transform="translate(-1032.07 -657.37)"/><path class="cls-2" d="M1507.17,957.93a2,2,0,0,1-2-2v-6.38a2,2,0,0,1,4,0v6.38A2,2,0,0,1,1507.17,957.93Z" transform="translate(-1032.07 -657.37)"/></g><path class="cls-3" d="M1380.78,972.62H1254a2,2,0,0,1,0-4h126.83a2,2,0,0,1,0,4Z" transform="translate(-1032.07 -657.37)"/><g class="cls-1"><path class="cls-2" d="M1330.49,805.27a12.86,12.86,0,1,1-12.86-12.86,12.87,12.87,0,0,1,12.86,12.86Z" transform="translate(-1032.07 -657.37)"/></g><path class="cls-3" d="M1325.47,780.06a2,2,0,0,1-1.92-1.44l-2.16-7.33h-5.65l-1.53,6.87a2,2,0,1,1-3.9-.87l2.22-10h11.85l3,10.2A2,2,0,0,1,1326,780,2.24,2.24,0,0,1,1325.47,780.06Z" transform="translate(-1032.07 -657.37)"/><path class="cls-3" d="M1290.16,814.44a2.28,2.28,0,0,1-.44-.05l-10.12-2.27,0-11.84,10.06-2.94a2,2,0,0,1,1.12,3.84l-7.17,2.09,0,5.64,7,1.58a2,2,0,0,1-.44,4Z" transform="translate(-1032.07 -657.37)"/><path class="cls-3" d="M1294.77,837.16l-8.38-8.38,5.14-9.44a2,2,0,0,1,3.51,1.91l-3.71,6.82,4,4,6-3.82a2,2,0,0,1,2.15,3.38Z" transform="translate(-1032.07 -657.37)"/><path class="cls-3" d="M1324.5,844.42h-11.88l-2.77-10a2,2,0,1,1,3.86-1.07l2,7h5.62l1.52-7a2,2,0,1,1,3.91.85Z" transform="translate(-1032.07 -657.37)"/><path class="cls-3" d="M1341.71,836.88l-9.12-5a2,2,0,0,1,1.92-3.51l6.49,3.55,4-4-3.91-6.17a2,2,0,0,1,3.38-2.14l5.62,8.87Z" transform="translate(-1032.07 -657.37)"/><path class="cls-3" d="M1294.08,792.15a2,2,0,0,1-1.69-.92l-5.53-8.7,8.38-8.37,9.4,5.1a2,2,0,0,1-1.91,3.52L1296,779.1l-4,4,3.8,6a2,2,0,0,1-1.68,3.07Z" transform="translate(-1032.07 -657.37)"/><path class="cls-3" d="M1346.14,814.43a2,2,0,0,1-.56-3.92l7.4-2.17V802.7l-7.31-1.62a2,2,0,1,1,.87-3.9l10.44,2.31v11.85l-10.27,3A1.87,1.87,0,0,1,1346.14,814.43Z" transform="translate(-1032.07 -657.37)"/><path class="cls-3" d="M1342.71,792.9a2.07,2.07,0,0,1-1-.24,2,2,0,0,1-.8-2.71l3.68-6.78-4-4-6.23,4a2,2,0,0,1-2.15-3.38l8.94-5.67,8.38,8.38-5.1,9.39A2,2,0,0,1,1342.71,792.9Z" transform="translate(-1032.07 -657.37)"/><path class="cls-3" d="M1333.32,783.44a2,2,0,0,1-1-.3A26.85,26.85,0,0,0,1325,780a2,2,0,1,1,1-3.87,30.82,30.82,0,0,1,8.4,3.62,2,2,0,0,1-1.06,3.7Z" transform="translate(-1032.07 -657.37)"/><path class="cls-3" d="M1346.11,801.13a2,2,0,0,1-1.95-1.54,26.67,26.67,0,0,0-3.16-7.65,2,2,0,1,1,3.42-2.08,30.53,30.53,0,0,1,3.63,8.8,2,2,0,0,1-1.48,2.41A1.82,1.82,0,0,1,1346.11,801.13Z" transform="translate(-1032.07 -657.37)"/><path class="cls-3" d="M1342.78,822.7a2,2,0,0,1-1-.29,2,2,0,0,1-.68-2.75,26.77,26.77,0,0,0,3.13-7.68,2,2,0,1,1,3.89.91,30.53,30.53,0,0,1-3.6,8.84A2,2,0,0,1,1342.78,822.7Z" transform="translate(-1032.07 -657.37)"/><path class="cls-3" d="M1324.76,835.85a2,2,0,0,1-.46-4,26.44,26.44,0,0,0,8.18-3.45,2,2,0,0,1,2.15,3.38,30.35,30.35,0,0,1-9.41,4A1.88,1.88,0,0,1,1324.76,835.85Z" transform="translate(-1032.07 -657.37)"/><path class="cls-3" d="M1311.78,835.9a1.61,1.61,0,0,1-.44,0,30.57,30.57,0,0,1-10-4.25,2,2,0,1,1,2.19-3.34,26.45,26.45,0,0,0,8.7,3.69,2,2,0,0,1-.44,3.95Z" transform="translate(-1032.07 -657.37)"/><path class="cls-3" d="M1293.29,822.29a2,2,0,0,1-1.74-1,31.11,31.11,0,0,1-3.34-8.4,2,2,0,0,1,3.9-.92,26.7,26.7,0,0,0,2.9,7.31,2,2,0,0,1-.72,2.73A1.93,1.93,0,0,1,1293.29,822.29Z" transform="translate(-1032.07 -657.37)"/><path class="cls-3" d="M1290.17,801.26a1.8,1.8,0,0,1-.46,0,2,2,0,0,1-1.49-2.41,30.51,30.51,0,0,1,4.18-9.74,2,2,0,0,1,3.35,2.19,26.3,26.3,0,0,0-3.63,8.47A2,2,0,0,1,1290.17,801.26Z" transform="translate(-1032.07 -657.37)"/><path class="cls-3" d="M1303.69,783a2,2,0,0,1-1-3.73,30.61,30.61,0,0,1,9.12-3.52,2,2,0,0,1,2.39,1.54,2,2,0,0,1-1.51,2.37h0a26.48,26.48,0,0,0-7.94,3.06A2,2,0,0,1,1303.69,783Z" transform="translate(-1032.07 -657.37)"/><rect class="cls-3" x="284.16" y="120.25" width="3.97" height="3.97"/><rect class="cls-3" x="284.09" y="172.55" width="3.97" height="3.97"/><rect class="cls-3" x="1297.8" y="785.35" width="3.97" height="3.97" transform="translate(-1208.11 492.32) rotate(-45)"/><rect class="cls-3" x="1335.05" y="785.35" width="3.97" height="3.97" transform="translate(-1197.2 518.66) rotate(-45)"/><rect class="cls-3" x="1297.8" y="822.6" width="3.97" height="3.97" transform="translate(-1234.45 503.23) rotate(-45)"/><rect class="cls-3" x="1335.05" y="822.6" width="3.97" height="3.97" transform="translate(-1223.54 529.57) rotate(-45)"/><rect class="cls-3" x="1290.14" y="803.86" width="3.97" height="3.97" transform="translate(-545.8 1440.6) rotate(-90)"/><rect class="cls-3" x="1342.48" y="803.86" width="3.97" height="3.97" transform="translate(-493.46 1492.94) rotate(-90)"/><path class="cls-3" d="M1317.71,820a14.86,14.86,0,1,1,7-27.95l-1.89,3.53a10.85,10.85,0,1,0,5.73,9.57h4A14.87,14.87,0,0,1,1317.71,820Z" transform="translate(-1032.07 -657.37)"/><polygon class="cls-3" points="286.21 154.57 276.64 145.18 279.44 142.32 286.18 148.93 301.7 133.34 304.54 136.16 286.21 154.57"/><path class="cls-3" d="M1351,752.8a2,2,0,0,1-2-1.74,34.69,34.69,0,0,0-67.77-4.69,2,2,0,1,1-3.85-1.08,38.69,38.69,0,0,1,75.58,5.24,2,2,0,0,1-1.71,2.25Z" transform="translate(-1032.07 -657.37)"/><path class="cls-3" d="M1297.21,734.48a2,2,0,0,1-1.16-3.63,31.88,31.88,0,0,1,10.73-5,2,2,0,1,1,1,3.87,28.42,28.42,0,0,0-9.4,4.37A2,2,0,0,1,1297.21,734.48Z" transform="translate(-1032.07 -657.37)"/><path class="cls-3" d="M1392.1,768.76a2,2,0,0,1-1.94-1.49,25,25,0,0,0-23.78-18.47,24.05,24.05,0,0,0-13.82,4.33,2,2,0,1,1-2.29-3.27,28,28,0,0,1,16.11-5.06A29.06,29.06,0,0,1,1394,766.25a2,2,0,0,1-1.42,2.44A1.84,1.84,0,0,1,1392.1,768.76Z" transform="translate(-1032.07 -657.37)"/><path class="cls-3" d="M1392.1,808.46h-22.91a2,2,0,0,1,0-4h22.91a17.85,17.85,0,1,0,0-35.7,2,2,0,0,1,0-4,21.85,21.85,0,1,1,0,43.7Z" transform="translate(-1032.07 -657.37)"/><path class="cls-3" d="M1382,771.29a2,2,0,0,1-1.94-1.54A14,14,0,0,0,1367.82,759a2,2,0,1,1,.4-4A18,18,0,0,1,1384,768.83a2,2,0,0,1-1.49,2.41A2.4,2.4,0,0,1,1382,771.29Z" transform="translate(-1032.07 -657.37)"/><path class="cls-3" d="M1246.88,768.27a2,2,0,0,1-2-2c0-14.22,16.79-24.2,25.88-24.2s16.92,6.58,18.1,15a2,2,0,1,1-4,.55c-.89-6.36-7.24-11.53-14.14-11.53-7.49,0-21.88,8.53-21.88,20.2A2,2,0,0,1,1246.88,768.27Z" transform="translate(-1032.07 -657.37)"/><path class="cls-3" d="M1268.86,808.46H1244a22.2,22.2,0,0,1,0-44.4,22.57,22.57,0,0,1,3.18.23,2,2,0,0,1-.57,4,17.53,17.53,0,0,0-2.61-.19,18.2,18.2,0,0,0,0,36.4h24.87a2,2,0,0,1,0,4Z" transform="translate(-1032.07 -657.37)"/><g class="cls-1"><path class="cls-2" d="M1467.94,898.72a7.12,7.12,0,1,1,7.12-7.12A7.12,7.12,0,0,1,1467.94,898.72Zm0-10.23a3.12,3.12,0,1,0,3.12,3.11A3.11,3.11,0,0,0,1467.94,888.49Z" transform="translate(-1032.07 -657.37)"/><path class="cls-2" d="M1507.34,898.72a7.12,7.12,0,1,1,7.12-7.12A7.12,7.12,0,0,1,1507.34,898.72Zm0-10.23a3.12,3.12,0,1,0,3.12,3.11A3.11,3.11,0,0,0,1507.34,888.49Z" transform="translate(-1032.07 -657.37)"/><path class="cls-2" d="M1507.34,888.49a2,2,0,0,1-2-2V816.56a29,29,0,0,0-29-29h-54.15a2,2,0,0,1,0-4h54.15a33,33,0,0,1,33,33v69.93A2,2,0,0,1,1507.34,888.49Z" transform="translate(-1032.07 -657.37)"/><path class="cls-2" d="M1467.94,888.49a2,2,0,0,1-2-2V816.56a29,29,0,0,0-29-29h-10.47a2,2,0,1,1,0-4h10.47a33,33,0,0,1,33,33v69.93A2,2,0,0,1,1467.94,888.49Z" transform="translate(-1032.07 -657.37)"/></g><g class="cls-1"><path class="cls-2" d="M1165.2,898.72a7.12,7.12,0,1,1,7.12-7.12A7.12,7.12,0,0,1,1165.2,898.72Zm0-10.23a3.12,3.12,0,1,0,3.12,3.11A3.11,3.11,0,0,0,1165.2,888.49Z" transform="translate(-1032.07 -657.37)"/><path class="cls-2" d="M1125.8,898.72a7.12,7.12,0,1,1,7.12-7.12A7.12,7.12,0,0,1,1125.8,898.72Zm0-10.23a3.12,3.12,0,1,0,3.12,3.11A3.11,3.11,0,0,0,1125.8,888.49Z" transform="translate(-1032.07 -657.37)"/><path class="cls-2" d="M1125.8,888.49a2,2,0,0,1-2-2V816.56a33,33,0,0,1,33-33H1211a2,2,0,0,1,0,4H1156.8a29,29,0,0,0-29,29v69.93A2,2,0,0,1,1125.8,888.49Z" transform="translate(-1032.07 -657.37)"/><path class="cls-2" d="M1165.2,888.49a2,2,0,0,1-2-2V816.56a33,33,0,0,1,33-33h10.48a2,2,0,0,1,0,4H1196.2a29,29,0,0,0-29,29v69.93A2,2,0,0,1,1165.2,888.49Z" transform="translate(-1032.07 -657.37)"/></g><circle class="cls-2" cx="508.56" cy="234.6" r="2.94"/><circle class="cls-2" cx="51.62" cy="230.08" r="2.94"/></svg>