<svg width="712" height="400" xmlns="http://www.w3.org/2000/svg" xmlns:xlink="http://www.w3.org/1999/xlink"><defs><filter x="-135.3%" y="-124.3%" width="370.6%" height="348.6%" filterUnits="objectBoundingBox" id="a"><feOffset dx="24" dy="24" in="SourceAlpha" result="shadowOffsetOuter1"/><feGaussianBlur stdDeviation="24" in="shadowOffsetOuter1" result="shadowBlurOuter1"/><feColorMatrix values="0 0 0 0 0.0941176471 0 0 0 0 0.137254902 0 0 0 0 0.203921569 0 0 0 0.04 0" in="shadowBlurOuter1" result="shadowMatrixOuter1"/><feMerge><feMergeNode in="shadowMatrixOuter1"/><feMergeNode in="SourceGraphic"/></feMerge></filter><linearGradient x1="93.094%" y1="50%" x2="20.788%" y2="62.551%" id="b"><stop stop-color="#FFF" offset="0%"/><stop stop-color="#FFF" stop-opacity=".724" offset="100%"/></linearGradient><path d="M35.28 68.83L.892 85.88V25.673l50-24.792v58.02a3.533 3.533 0 0 1-1.975 3.167l-13.635 6.761z" id="c"/></defs><g fill="none" fill-rule="evenodd"><rect fill="#55C3F5" width="712" height="400" rx="2"/><g filter="url(#a)" transform="rotate(27 -28.267 680.472)"><path d="M51.226 50.406l50-25.213L52.822.787a3.543 3.543 0 0 0-3.196 0l-48.4 24.406 50 25.213z" fill="url(#b)" fill-rule="nonzero"/><use fill="#25B2F2" fill-rule="nonzero" xlink:href="#c" transform="translate(49.962 24.65)"/><path d="M50.713 110.24L2.567 86.366A3.54 3.54 0 0 1 .713 83.26V25.24l50 24.791v60.208z" fill-opacity=".28" fill="#FFF" fill-rule="nonzero"/></g><path fill-opacity=".48" fill="#FFF" fill-rule="nonzero" d="M523.18 197.042l3.665 52.415-112.762-41.042L410.417 156z"/><path fill="#4346DE" d="M286.082 270.042l-3.665 52.415 112.762-41.042L398.845 229z"/></g></svg>